<svg width="257" height="181" viewBox="0 0 257 181" fill="none" xmlns="http://www.w3.org/2000/svg">
<g clip-path="url(#clip0_22_1014)">
<path opacity="0.4" d="M71.6429 26.2319C71.6429 26.2319 123.602 10.7067 144.022 22.1088C158.067 29.9496 189.714 27.6954 208.111 25.5206C218.288 24.3163 228.623 25.3701 238.287 28.5971C247.597 31.7099 257.386 35.4683 256.976 37.3917C256.201 41.03 71.6429 38.8461 71.6429 38.8461V26.2319Z" fill="#6C63FF"/>
<path d="M194.431 96.7901L194.238 96.8059L194.299 96.6655L194.057 96.7584L194.299 96.1626C194.299 96.1626 193.514 96.4593 192.061 96.9441C156.379 98.5051 81.7166 70.0938 81.7166 70.0938L40.3888 75.4199C40.1486 75.2093 39.9213 74.9862 39.708 74.7516L39.8915 75.4516C39.8271 75.3851 39.7659 75.3194 39.708 75.2545L39.7732 75.4992H39.708L39.8094 75.6306L44.5384 93.632C44.5384 93.632 128.816 137.211 179.537 131.672L193.975 97.4267L194.431 96.7901Z" fill="url(#paint0_linear_22_1014)"/>
<path d="M83.0177 71.2423C83.0177 71.2423 158.241 99.8598 191.588 96.9486L169.357 128.001L88.9706 104.47L49.6706 87.7304L68.017 76.0859L83.0177 71.2423Z" fill="#6C63FF"/>
<path opacity="0.1" d="M83.0177 71.2423C83.0177 71.2423 158.241 99.8598 191.588 96.9486L169.357 128.001L88.9706 104.47L49.6706 87.7304L68.017 76.0859L83.0177 71.2423Z" fill="black"/>
<path opacity="0.1" d="M80.0436 79.8466L100.077 84.0921L59.2349 90.8839L49.6706 82.8778L80.0436 79.8466Z" fill="white"/>
<path opacity="0.1" d="M88.961 97.1911L112.616 89.0648L129.289 94.2799L100.078 104.47L88.961 97.1911Z" fill="white"/>
<path opacity="0.1" d="M121.533 106.409L147.513 99.7397L170.649 105.682L146.091 113.446L121.533 106.409Z" fill="white"/>
<path d="M42.5613 76.4507L83.0177 71.2356V80.4538L49.154 85.0618L42.5613 76.4507Z" fill="#6C63FF"/>
<path opacity="0.1" d="M42.8196 76.9355L83.0177 71.2356V80.4538L49.154 85.0618L42.8196 76.9355Z" fill="white"/>
<path d="M6.75922 46.1251C6.76149 42.4121 8.0967 38.8082 10.5494 35.8948C13.0021 32.9814 16.4292 30.9286 20.2777 30.0674C37.1105 26.2773 65.3399 21.6852 79.148 29.3878C99.5705 40.7899 157.215 30.8422 157.215 30.8422C157.215 30.8422 192.886 41.0368 192.111 44.6616C191.337 48.2863 6.76646 46.116 6.76646 46.116L6.75922 46.1251Z" fill="#6C63FF"/>
<path d="M149.362 33.2051C149.806 32.8177 150.224 32.36 150.352 31.8027C150.48 31.2454 150.226 30.5771 149.659 30.3732C149.024 30.1467 148.343 30.559 147.829 30.9758C147.315 31.3927 146.723 31.8707 146.05 31.7823C146.397 31.4872 146.656 31.1127 146.803 30.6954C146.95 30.2781 146.979 29.8323 146.887 29.4013C146.855 29.2229 146.772 29.056 146.646 28.9188C146.294 28.5654 145.654 28.7172 145.231 28.9958C143.887 29.8839 143.513 31.5966 143.505 33.1394C143.37 32.5821 143.484 32.0066 143.481 31.4335C143.479 30.8603 143.312 30.2305 142.798 29.9247C142.479 29.7645 142.12 29.6863 141.758 29.6981C141.154 29.6777 140.481 29.7344 140.068 30.1512C139.556 30.6655 139.689 31.5309 140.133 32.0995C140.577 32.6681 141.258 33.0216 141.883 33.4135C142.384 33.6936 142.812 34.0761 143.134 34.5326C143.171 34.5961 143.202 34.6629 143.225 34.732H147.013C147.866 34.3253 148.656 33.8116 149.362 33.2051Z" fill="#6C63FF"/>
<path d="M66.1269 25.4413C66.5711 25.0539 66.9887 24.5963 67.1167 24.039C67.2446 23.4817 66.9911 22.8133 66.4238 22.6095C65.789 22.3829 65.1082 22.7952 64.594 23.2121C64.0798 23.6289 63.4884 24.1069 62.8149 24.0186C63.1633 23.7225 63.4237 23.3465 63.5706 22.9275C63.7174 22.5085 63.7457 22.0609 63.6526 21.6285C63.6204 21.45 63.5369 21.2832 63.4112 21.146C63.0587 20.7925 62.419 20.9443 61.9965 21.223C60.6519 22.1111 60.2778 23.8237 60.2705 25.3665C60.1353 24.8092 60.2488 24.2338 60.2464 23.6606C60.244 23.0875 60.0774 22.4577 59.5632 22.1518C59.2437 21.9916 58.8848 21.9135 58.5228 21.9253C57.9193 21.9049 57.2458 21.9615 56.833 22.3784C56.3212 22.8926 56.454 23.7581 56.8982 24.3267C57.3423 24.8953 58.0231 25.2487 58.6483 25.6407C59.1495 25.9207 59.5769 26.3033 59.8988 26.7598C59.9362 26.8233 59.967 26.8901 59.9905 26.9592H63.7781C64.6306 26.5552 65.4207 26.0446 66.1269 25.4413Z" fill="#6C63FF"/>
<path d="M189.688 42.1809C190.132 41.7935 190.55 41.3359 190.678 40.7786C190.806 40.2213 190.552 39.5529 189.985 39.3491C189.35 39.1225 188.669 39.5348 188.155 39.9517C187.641 40.3685 187.049 40.8465 186.376 40.7582C186.723 40.463 186.982 40.0885 187.129 39.6712C187.276 39.254 187.305 38.8081 187.213 38.3772C187.181 38.1987 187.098 38.0319 186.972 37.8946C186.62 37.5412 185.98 37.693 185.557 37.9716C184.213 38.8597 183.839 40.5724 183.831 42.1152C183.696 41.5579 183.81 40.9825 183.807 40.4093C183.805 39.8361 183.638 39.2063 183.124 38.9005C182.805 38.7403 182.446 38.6622 182.084 38.6739C181.48 38.6536 180.807 38.7102 180.394 39.127C179.882 39.6413 180.015 40.5067 180.459 41.0753C180.903 41.644 181.584 41.9974 182.209 42.3893C182.71 42.6694 183.138 43.0519 183.46 43.5085C183.497 43.5719 183.528 43.6387 183.551 43.7078H187.339C188.192 43.3011 188.982 42.7874 189.688 42.1809Z" fill="#6C63FF"/>
<path d="M142.183 114.966C139.769 112.73 137.859 110.075 136.85 107.048C136.075 104.717 135.382 102.44 135.382 101.704C135.382 100.415 133.473 95.5645 131.114 93.2265C131.032 93.145 130.948 93.0657 130.873 93C130.463 91.4776 129.644 87.6376 131.064 85.2543C131.411 84.6723 131.701 84.0619 131.93 83.4306C132.781 80.9866 134.089 78.7043 135.793 76.6908C136.134 76.3036 136.437 75.8872 136.696 75.4471C137.287 75.5422 137.635 75.3882 137.562 74.8422C137.562 74.8218 137.562 74.8014 137.562 74.781C137.835 74.7221 137.977 74.5364 137.929 74.1716C137.569 71.4848 139.011 63.0866 139.011 63.0866C140.379 59.2978 140.983 55.3028 140.792 51.3062C140.432 44.9243 133.222 43.5809 133.222 43.5809L132.626 44.136C132.143 43.8573 131.602 43.5447 131.054 43.2139C131.163 43.1694 131.262 43.1051 131.345 43.0246C131.428 42.9442 131.493 42.8491 131.537 42.745C132.162 41.5284 132.193 39.861 132.283 38.5425C132.335 38.117 132.314 37.6862 132.22 37.267C132.105 36.9089 131.918 36.5745 131.67 36.2816C131.112 35.5924 130.4 35.0268 129.583 34.6248C128.767 34.2227 127.866 33.994 126.945 33.9549C126.347 33.9323 125.738 33.9912 125.152 33.9912C124.051 33.9912 122.95 33.7918 121.854 33.8779C120.758 33.964 119.6 34.4171 119.114 35.3391C118.81 35.9168 118.808 36.6123 118.448 37.1515C118.033 37.7836 117.224 38.1053 116.758 38.7056C116.504 39.0351 116.366 39.4314 116.365 39.8384C116.358 39.9706 116.387 40.1023 116.449 40.2212C116.56 40.3647 116.696 40.4889 116.852 40.5882C117.119 40.8154 117.295 41.1211 117.351 41.4547C117.407 41.7884 117.34 42.1301 117.161 42.4233C117.533 42.4885 117.877 42.6549 118.149 42.9018C118.421 43.1487 118.61 43.4652 118.692 43.812C118.7 43.9284 118.745 44.0399 118.822 44.1314C118.891 44.1844 118.975 44.2174 119.064 44.2266C119.766 44.3399 120.476 44.0295 121.007 43.5832C121.05 43.6579 121.091 43.7304 121.14 43.8097C121.773 44.7849 122.759 45.5137 123.918 45.8631C125.076 46.2125 126.33 46.1591 127.45 45.7127C127.55 45.8305 127.648 45.9521 127.744 46.0775C128.145 46.5978 128.474 47.1633 128.725 47.7607L128.169 48.2772C127.681 48.9953 127.242 49.7413 126.854 50.511C125.954 52.1224 125.294 53.8421 124.893 55.6219C123.585 56.8362 121.562 59.0201 121.321 61.0409C121.321 61.0409 111.947 65.4088 109.425 63.0572C106.902 60.7056 103.657 64.7359 104.377 65.4088C105.096 66.0816 107.262 67.425 109.784 66.0884H119.882C121.418 65.8962 122.896 65.4129 124.227 64.6679C124.049 65.121 123.826 65.59 123.58 66.068C123.201 66.7477 122.793 67.4273 122.412 68.0367C122.202 68.1976 121.994 68.3539 121.787 68.5034C120.495 69.0041 118.871 69.6361 117.183 70.3158C116.253 70.5017 115.37 70.8573 114.586 71.3624C110.689 72.9483 107.163 74.4933 107.266 74.815C107.006 74.9758 106.87 75.0959 106.907 75.1594C106.943 75.2228 106.974 75.2998 107.025 75.4176C106.747 76.3759 106.694 78.3355 107.266 82.214C108.715 91.9556 105.463 93.6343 105.463 93.6343C105.463 93.6343 102.94 96.6564 100.056 96.3211C97.171 95.9859 99.6961 98.6727 102.228 98.3374C103.93 98.1109 107.604 97.8843 109.811 97.7597C110.01 97.7483 110.204 97.6956 110.379 97.6055C110.554 97.5154 110.706 97.3901 110.823 97.2386C110.941 97.087 111.021 96.913 111.058 96.7289C111.096 96.5449 111.089 96.3553 111.039 96.1739C110.622 94.6889 110.568 93.1346 110.88 91.6271C111.423 89.0988 112.782 84.2869 113.268 81.6296V81.6001C113.992 80.9205 115.341 79.9848 117.005 80.2068C117.871 80.3224 119.419 79.5634 121.079 78.5213C120.21 83.1633 119.546 88.1496 120.249 89.9484C121.697 93.6434 123.134 95.3221 123.134 95.3221C123.134 95.3221 123.826 95.3515 124.799 95.3402L125.265 96.0198L131.783 105.408C131.783 105.408 137.55 113.133 132.143 114.141C132.143 114.141 127.817 115.149 129.62 116.493C129.62 116.493 142.238 116.828 142.598 115.813C142.685 115.553 142.501 115.26 142.183 114.966Z" fill="url(#paint1_linear_22_1014)"/>
<path d="M134.27 45.5972C134.27 45.5972 129.364 54.8041 129.014 50.2007C128.913 48.8315 128.405 47.5164 127.549 46.4037C126.653 45.2354 125.474 44.2834 124.109 43.6263C124.109 43.6263 126.912 38.6943 126.562 40.0015C126.383 40.6811 128.399 42.1197 130.424 43.3725C132.343 44.5755 134.27 45.5972 134.27 45.5972Z" fill="#FFB9B9"/>
<path d="M111.146 90.9747C110.842 92.4507 110.894 93.972 111.3 95.4263C111.351 95.6038 111.359 95.7896 111.324 95.9704C111.289 96.1512 111.212 96.3224 111.098 96.4717C110.984 96.6211 110.836 96.7448 110.664 96.8339C110.493 96.9231 110.303 96.9754 110.108 96.9872C107.962 97.1073 104.391 97.3293 102.738 97.5513C100.285 97.8798 97.8324 95.2496 100.635 95.5781C103.438 95.9066 105.89 92.9479 105.89 92.9479C105.89 92.9479 109.043 91.3032 107.643 81.7678C107.085 77.9731 107.138 76.052 107.402 75.1164C107.453 74.8788 107.565 74.6565 107.727 74.4684C107.801 74.3894 107.899 74.3339 108.007 74.3099C108.131 74.2986 108.255 74.3131 108.371 74.3522C108.488 74.3914 108.594 74.4543 108.681 74.5364C108.681 74.5364 113.236 78.4829 113.586 79.4683C113.673 79.7107 113.61 80.3405 113.453 81.1924C112.995 83.7909 111.674 88.4985 111.146 90.9747Z" fill="#FFB9B9"/>
<path opacity="0.05" d="M111.146 90.9747C110.842 92.4507 110.894 93.972 111.3 95.4263C111.351 95.6038 111.359 95.7896 111.324 95.9704C111.289 96.1512 111.212 96.3224 111.098 96.4717C110.984 96.6211 110.836 96.7448 110.664 96.8339C110.493 96.9231 110.303 96.9754 110.108 96.9872C107.962 97.1073 104.391 97.3293 102.738 97.5513C100.285 97.8798 97.8324 95.2496 100.635 95.5781C103.438 95.9066 105.89 92.9479 105.89 92.9479C105.89 92.9479 109.043 91.3032 107.643 81.7678C107.085 77.9731 107.138 76.052 107.402 75.1164C107.453 74.8788 107.565 74.6565 107.727 74.4684C107.801 74.3894 107.899 74.3339 108.007 74.3099C108.131 74.2986 108.255 74.3131 108.371 74.3522C108.488 74.3914 108.594 74.4543 108.681 74.5364C108.681 74.5364 113.236 78.4829 113.586 79.4683C113.673 79.7107 113.61 80.3405 113.453 81.1924C112.995 83.7909 111.674 88.4985 111.146 90.9747Z" fill="black"/>
<path d="M141.98 114.651C141.63 115.637 129.367 115.308 129.367 115.308C127.614 113.992 131.819 113.006 131.819 113.006C137.075 112.021 131.469 104.456 131.469 104.456L125.12 95.2564L123.752 93.2673C123.752 93.2673 125.504 90.9656 128.657 91.2941C129.381 91.3688 130.122 91.8355 130.815 92.531C133.106 94.8191 134.965 99.5676 134.965 100.829C134.965 101.55 135.638 103.775 136.391 106.06C137.371 109.024 139.237 111.62 141.574 113.811C141.89 114.116 142.067 114.404 141.98 114.651Z" fill="#FFB9B9"/>
<path opacity="0.1" d="M113.466 81.1901C113.126 81.46 112.818 81.7638 112.548 82.0963C109.965 81.7927 107.979 76.4666 107.409 75.1164C107.361 75.0008 107.322 74.9147 107.293 74.8626C107.264 74.8105 107.416 74.6565 107.735 74.4684L108.015 74.3099C108.138 74.2986 108.262 74.3131 108.379 74.3522C108.495 74.3914 108.601 74.4543 108.688 74.5364C108.688 74.5364 113.243 78.4829 113.594 79.4683C113.685 79.7107 113.622 80.3383 113.466 81.1901Z" fill="black"/>
<path d="M124.459 67.3004C124.459 67.3004 107.291 73.8703 107.641 74.5341C107.991 75.1979 110.093 81.4392 112.896 81.7677C112.896 81.7677 114.648 79.466 117.101 79.7945C119.554 80.123 127.612 73.2246 127.612 73.2246L133.217 69.2782L124.459 67.3004Z" fill="#4C4C78"/>
<path opacity="0.05" d="M124.459 67.3004C124.459 67.3004 107.291 73.8703 107.641 74.5341C107.991 75.1979 110.093 81.4392 112.896 81.7677C112.896 81.7677 114.648 79.466 117.101 79.7945C119.554 80.123 127.612 73.2246 127.612 73.2246L133.217 69.2782L124.459 67.3004Z" fill="black"/>
<path opacity="0.1" d="M131.117 93.6048C131.117 94.9754 127.399 95.236 125.128 95.2654L123.759 93.2763C123.759 93.2763 125.511 90.9746 128.664 91.3031C129.388 91.3778 130.129 91.8445 130.822 92.54C130.982 93.1948 131.117 93.6048 131.117 93.6048Z" fill="black"/>
<path d="M123.059 68.9452C123.059 68.9452 118.854 85.7097 120.256 89.3345C121.659 92.9592 123.059 94.5949 123.059 94.5949C123.059 94.5949 130.767 94.9234 130.767 92.9502C130.767 92.9502 129.014 87.6897 130.767 84.7287C131.104 84.1587 131.386 83.5612 131.609 82.9436C132.432 80.5533 133.699 78.3189 135.353 76.3442C136.206 75.3565 136.857 74.2396 136.722 73.2201C136.372 70.5877 123.059 68.9452 123.059 68.9452Z" fill="#4C4C78"/>
<path d="M125.861 54.8041C125.861 54.8041 121.656 58.1026 121.306 61.0477C121.306 61.0477 112.196 65.3227 109.743 63.0209C107.291 60.7192 104.138 64.6725 104.843 65.3272C105.548 65.9819 107.645 67.3004 110.098 65.9842H119.906C119.906 65.9842 126.564 65.3272 126.907 60.3953C127.25 55.4633 125.861 54.8041 125.861 54.8041Z" fill="#FFB9B9"/>
<path opacity="0.05" d="M125.861 54.8041C125.861 54.8041 121.656 58.1026 121.306 61.0477C121.306 61.0477 112.196 65.3227 109.743 63.0209C107.291 60.7192 104.138 64.6725 104.843 65.3272C105.548 65.9819 107.645 67.3004 110.098 65.9842H119.906C119.906 65.9842 126.564 65.3272 126.907 60.3953C127.25 55.4633 125.861 54.8041 125.861 54.8041Z" fill="black"/>
<path opacity="0.1" d="M129.54 43.1324C129.478 43.3453 129.635 42.9353 129.54 43.1324C129.029 44.2198 128.724 45.9506 127.551 46.4037C126.655 45.2354 125.476 44.2834 124.111 43.6263C124.111 43.6263 126.914 38.6943 126.564 40.0015C126.383 40.6789 127.534 41.8796 129.54 43.1324Z" fill="black"/>
<path d="M130.241 41.8161C130.241 42.7265 129.953 43.6166 129.414 44.3736C128.875 45.1306 128.109 45.7207 127.212 46.0691C126.316 46.4175 125.33 46.5087 124.378 46.331C123.427 46.1534 122.553 45.715 121.867 45.0712C121.181 44.4274 120.714 43.6071 120.524 42.7141C120.335 41.8212 120.432 40.8956 120.803 40.0544C121.175 39.2132 121.803 38.4943 122.61 37.9884C123.417 37.4826 124.365 37.2126 125.335 37.2126C125.981 37.2087 126.62 37.3251 127.217 37.5551C127.814 37.785 128.357 38.124 128.813 38.5522C129.269 38.9805 129.631 39.4895 129.876 40.0498C130.121 40.6101 130.245 41.2104 130.241 41.8161Z" fill="#FFB9B9"/>
<path opacity="0.1" d="M127.614 49.2151L132.519 44.6117C132.519 44.6117 139.52 45.9279 139.877 52.1738C140.053 56.0786 139.459 59.9803 138.125 63.6825C138.125 63.6825 136.722 71.9039 137.075 74.5341C137.427 77.1643 127.964 70.5876 127.964 70.5876C127.964 70.5876 120.256 71.9039 120.606 70.9161C120.956 69.9284 125.161 64.3462 124.469 62.3662C124.167 61.5167 124.254 59.634 124.452 57.7628C124.78 54.7192 125.866 51.7905 127.621 49.2129L127.614 49.2151Z" fill="black"/>
<path d="M138.475 63.0255C138.475 63.0255 137.075 71.2424 137.432 73.8771C137.789 76.5119 128.321 69.9307 128.321 69.9307C128.321 69.9307 127.114 70.1368 125.666 70.3249C123.476 70.6103 120.751 70.855 120.961 70.2592C121.017 70.1194 121.084 69.9839 121.161 69.8536C122.076 68.2316 125.451 63.4899 124.816 61.6979C124.514 60.8507 124.601 58.9658 124.799 57.0945C125.129 54.0509 126.216 51.1224 127.971 48.5446L132.877 43.9412C132.877 43.9412 139.877 45.2574 140.234 51.5033C140.41 55.413 139.813 59.3195 138.475 63.0255Z" fill="#CBCDDA"/>
<path opacity="0.1" d="M130.24 41.8162C130.242 42.4534 130.101 43.0838 129.828 43.6671C129.41 43.3446 129.049 42.9624 128.758 42.5343C128.34 41.9268 127.883 41.3428 127.392 40.7854C127.286 40.6441 127.138 40.5353 126.967 40.4727C126.644 40.3866 126.315 40.663 126.224 40.9689C126.167 41.2816 126.167 41.6009 126.224 41.9136C126.251 42.0707 126.242 42.2315 126.196 42.3848C126.151 42.5382 126.07 42.6804 125.96 42.8016C125.543 43.1664 124.867 42.9127 124.391 42.6136C123.916 42.3146 123.32 41.9815 122.815 42.233C122.627 42.344 122.469 42.4935 122.352 42.6702C121.99 43.2062 121.58 43.7125 121.128 44.1836C120.738 43.5753 120.504 42.8908 120.443 42.1835C120.383 41.4762 120.497 40.7653 120.777 40.1063C121.058 39.4474 121.497 38.8582 122.06 38.3847C122.623 37.9112 123.295 37.5664 124.024 37.377C124.752 37.1877 125.518 37.159 126.26 37.2931C127.003 37.4273 127.702 37.7208 128.304 38.1505C128.905 38.5803 129.393 39.1348 129.729 39.7707C130.064 40.4065 130.239 41.1066 130.238 41.8162H130.24Z" fill="black"/>
<path d="M131.954 39.0228C132.006 38.6063 131.985 38.1849 131.894 37.7745C131.782 37.425 131.601 37.0983 131.361 36.8117C130.822 36.1387 130.131 35.5855 129.338 35.1915C128.546 34.7976 127.67 34.5726 126.774 34.5326C126.192 34.5122 125.613 34.5688 125.031 34.5688C123.962 34.5688 122.892 34.374 121.825 34.4578C120.758 34.5417 119.633 34.9857 119.17 35.8873C118.875 36.4537 118.873 37.1334 118.523 37.6703C118.12 38.2887 117.333 38.6037 116.881 39.1927C116.634 39.5156 116.501 39.9029 116.5 40.3005C116.494 40.4296 116.522 40.5581 116.582 40.6743C116.689 40.8141 116.822 40.9352 116.973 41.0322C117.232 41.2557 117.403 41.555 117.457 41.8814C117.512 42.2077 117.447 42.5417 117.272 42.8288C117.636 42.8925 117.97 43.0556 118.235 43.2974C118.5 43.5393 118.682 43.8491 118.759 44.188C118.767 44.3018 118.81 44.4108 118.885 44.5007C118.954 44.5535 119.038 44.5858 119.126 44.5936C119.829 44.7091 120.543 44.3829 121.058 43.9252C121.572 43.4676 121.948 42.8831 122.361 42.3394C122.477 42.1622 122.635 42.0125 122.822 41.9022C123.327 41.6507 123.921 41.9883 124.396 42.285C124.872 42.5818 125.55 42.8356 125.968 42.4685C126.078 42.3478 126.158 42.206 126.204 42.053C126.249 41.9 126.258 41.7395 126.231 41.5827C126.174 41.2701 126.174 40.9507 126.231 40.638C126.323 40.3322 126.648 40.0558 126.974 40.1419C127.145 40.205 127.291 40.3147 127.394 40.4568C127.887 41.0139 128.344 41.5979 128.763 42.2058C129.217 42.865 130.574 44.4259 131.235 43.1323C131.839 41.9452 131.88 40.3118 131.954 39.0228Z" fill="#B96B6B"/>
<path opacity="0.1" d="M124.638 61.5461C124.638 61.5461 129.893 61.2176 131.295 62.2031C132.698 63.1886 138.296 62.8601 138.296 62.8601" fill="black"/>
<path opacity="0.05" d="M136.372 59.7383C136.372 59.7383 134.62 63.0255 134.62 64.0132C134.62 65.001 133.217 66.315 133.217 66.315C133.217 66.315 129.258 68.3539 125.659 70.3271C123.469 70.6126 120.744 70.8572 120.954 70.2614C121.01 70.1217 121.077 69.9861 121.154 69.8559C124.889 67.7218 130.064 61.7002 130.064 61.7002C130.064 58.7415 131.817 53.4788 131.817 53.4788C131.817 53.4788 136.022 51.5056 137.422 53.4788C138.822 55.452 136.372 59.7383 136.372 59.7383Z" fill="black"/>
<path opacity="0.1" d="M42.5613 75.7212L47.2131 93.4304C47.2131 93.4304 128.384 135.401 177.241 130.063L191.46 96.3415C191.46 96.3415 156.418 109.635 119.233 103.523C117.808 103.286 116.399 102.971 115.013 102.578C103.901 99.4566 49.9748 83.9834 42.5613 75.7212Z" fill="black"/>
<path d="M42.5613 76.2061L47.2131 93.9153C47.2131 93.9153 128.382 135.883 177.239 130.548L191.457 96.8264C191.457 96.8264 156.416 110.12 119.23 104.008C117.805 103.771 116.396 103.455 115.011 103.063C103.901 99.9414 49.9748 84.4682 42.5613 76.2061Z" fill="#6C63FF"/>
<path d="M70.6813 33.8375L69.5146 35.1368L120.953 75.8155L122.12 74.5162L70.6813 33.8375Z" fill="#535461"/>
<path d="M131.117 52.8331C131.117 52.8331 129.364 58.1026 129.364 61.0477C129.364 61.0477 122.006 69.5976 118.501 69.9261C114.996 70.2546 112.896 72.2278 114.296 72.8848C115.696 73.5418 117.449 74.5295 119.551 72.8848C121.654 71.2401 132.515 65.6511 132.515 65.6511C132.515 65.6511 133.917 64.3349 133.917 63.3494C133.917 62.3639 135.67 59.0745 135.67 59.0745C135.67 59.0745 138.122 54.7995 136.72 52.8263C135.317 50.8531 131.117 52.8331 131.117 52.8331Z" fill="#FFB9B9"/>
<path opacity="0.1" d="M135.322 47.5704C135.322 47.5704 129.014 46.9134 130.067 55.461C130.067 55.461 134.272 53.1593 137.775 55.461C137.775 55.4633 139.175 49.2151 135.322 47.5704Z" fill="black"/>
<path d="M135.322 46.9134C135.322 46.9134 129.014 46.2564 130.067 54.804C130.067 54.804 134.272 52.5023 137.775 54.804C137.775 54.804 139.175 48.5581 135.322 46.9134Z" fill="#CBCDDA"/>
<path d="M71.6429 35.9893L69.5741 133.459" stroke="#535461" stroke-width="2" stroke-miterlimit="10"/>
<path opacity="0.15" d="M64.4057 126.422C64.4057 126.422 56.6519 130.788 61.562 140.493" stroke="#6C63FF" stroke-miterlimit="10"/>
<path opacity="0.15" d="M68.0243 128.122C68.0243 128.122 60.2705 132.487 65.1806 142.192" stroke="#6C63FF" stroke-miterlimit="10"/>
<path opacity="0.15" d="M72.1595 126.422C72.1595 126.422 79.9133 130.788 75.0032 140.493" stroke="#6C63FF" stroke-miterlimit="10"/>
<path opacity="0.15" d="M69.3158 128.849C69.3158 128.849 77.0696 133.214 72.1595 142.92" stroke="#6C63FF" stroke-miterlimit="10"/>
<path opacity="0.1" d="M38.3538 13.2462H36.5746C36.905 13.2462 37.2218 13.123 37.4554 12.9038C37.689 12.6846 37.8203 12.3872 37.8203 12.0772C37.8203 11.7672 37.689 11.4698 37.4554 11.2506C37.2218 11.0314 36.905 10.9082 36.5746 10.9082H22.1678C22.0043 10.9082 21.8423 10.9384 21.6912 10.9972C21.54 11.0559 21.4027 11.142 21.287 11.2506C21.1714 11.3591 21.0796 11.488 21.017 11.6298C20.9544 11.7717 20.9222 11.9237 20.9222 12.0772C20.9222 12.2307 20.9544 12.3827 21.017 12.5245C21.0796 12.6664 21.1714 12.7952 21.287 12.9038C21.4027 13.0123 21.54 13.0984 21.6912 13.1572C21.8423 13.2159 22.0043 13.2462 22.1678 13.2462H23.947C23.6166 13.2462 23.2998 13.3693 23.0662 13.5886C22.8326 13.8078 22.7013 14.1051 22.7013 14.4152C22.7013 14.7252 22.8326 15.0225 23.0662 15.2418C23.2998 15.461 23.6166 15.5841 23.947 15.5841H21.4557C21.1254 15.5841 20.8085 15.7073 20.5749 15.9265C20.3413 16.1458 20.2101 16.4431 20.2101 16.7531C20.2101 17.0632 20.3413 17.3605 20.5749 17.5797C20.8085 17.7989 21.1254 17.9221 21.4557 17.9221H35.8625C36.1929 17.9221 36.5097 17.7989 36.7433 17.5797C36.9769 17.3605 37.1081 17.0632 37.1081 16.7531C37.1081 16.4431 36.9769 16.1458 36.7433 15.9265C36.5097 15.7073 36.1929 15.5841 35.8625 15.5841H38.3538C38.6841 15.5841 39.0009 15.461 39.2346 15.2418C39.4682 15.0225 39.5994 14.7252 39.5994 14.4152C39.5994 14.1051 39.4682 13.8078 39.2346 13.5886C39.0009 13.3693 38.6841 13.2462 38.3538 13.2462Z" fill="#6C63FF"/>
<path opacity="0.1" d="M136.84 2.33577H135.061C135.392 2.33577 135.708 2.21261 135.942 1.99338C136.176 1.77416 136.307 1.47682 136.307 1.16679C136.307 0.856753 136.176 0.559418 135.942 0.34019C135.708 0.120963 135.392 -0.00219727 135.061 -0.00219727H120.654C120.324 -0.00219727 120.007 0.120963 119.774 0.34019C119.54 0.559418 119.409 0.856753 119.409 1.16679C119.409 1.47682 119.54 1.77416 119.774 1.99338C120.007 2.21261 120.324 2.33577 120.654 2.33577H122.434C122.27 2.33577 122.108 2.36601 121.957 2.42475C121.806 2.4835 121.668 2.56961 121.553 2.67816C121.437 2.78671 121.345 2.91558 121.283 3.0574C121.22 3.19923 121.188 3.35124 121.188 3.50476C121.188 3.65827 121.22 3.81028 121.283 3.95211C121.345 4.09393 121.437 4.2228 121.553 4.33135C121.668 4.4399 121.806 4.52601 121.957 4.58476C122.108 4.6435 122.27 4.67374 122.434 4.67374H119.945C119.781 4.67374 119.619 4.70398 119.468 4.76272C119.317 4.82147 119.18 4.90758 119.064 5.01613C118.948 5.12468 118.857 5.25355 118.794 5.39537C118.731 5.5372 118.699 5.68921 118.699 5.84272C118.699 5.99624 118.731 6.14825 118.794 6.29008C118.857 6.4319 118.948 6.56077 119.064 6.66932C119.18 6.77787 119.317 6.86398 119.468 6.92273C119.619 6.98147 119.781 7.01171 119.945 7.01171H134.352C134.682 7.01171 134.999 6.88855 135.232 6.66932C135.466 6.45009 135.597 6.15276 135.597 5.84272C135.597 5.53269 135.466 5.23535 135.232 5.01613C134.999 4.7969 134.682 4.67374 134.352 4.67374H136.843C137.173 4.67374 137.49 4.55058 137.724 4.33135C137.957 4.11213 138.088 3.81479 138.088 3.50476C138.088 3.19472 137.957 2.89739 137.724 2.67816C137.49 2.45893 137.173 2.33577 136.843 2.33577H136.84Z" fill="#6C63FF"/>
<path opacity="0.1" d="M188.541 20.2873H186.762C186.926 20.2873 187.088 20.2571 187.239 20.1983C187.39 20.1396 187.527 20.0535 187.643 19.9449C187.759 19.8364 187.85 19.7075 187.913 19.5657C187.975 19.4239 188.008 19.2718 188.008 19.1183C188.008 18.9648 187.975 18.8128 187.913 18.671C187.85 18.5291 187.759 18.4003 187.643 18.2917C187.527 18.1832 187.39 18.0971 187.239 18.0383C187.088 17.9796 186.926 17.9493 186.762 17.9493H172.355C172.192 17.9493 172.03 17.9796 171.879 18.0383C171.727 18.0971 171.59 18.1832 171.474 18.2917C171.359 18.4003 171.267 18.5291 171.204 18.671C171.142 18.8128 171.11 18.9648 171.11 19.1183C171.11 19.2718 171.142 19.4239 171.204 19.5657C171.267 19.7075 171.359 19.8364 171.474 19.9449C171.59 20.0535 171.727 20.1396 171.879 20.1983C172.03 20.2571 172.192 20.2873 172.355 20.2873H174.125C173.794 20.2873 173.478 20.4105 173.244 20.6297C173.01 20.8489 172.879 21.1463 172.879 21.4563C172.879 21.7663 173.01 22.0637 173.244 22.2829C173.478 22.5021 173.794 22.6253 174.125 22.6253H171.643C171.313 22.6253 170.996 22.7484 170.762 22.9677C170.529 23.1869 170.398 23.4842 170.398 23.7943C170.398 24.1043 170.529 24.4016 170.762 24.6209C170.996 24.8401 171.313 24.9632 171.643 24.9632H186.05C186.38 24.9632 186.697 24.8401 186.931 24.6209C187.164 24.4016 187.296 24.1043 187.296 23.7943C187.296 23.4842 187.164 23.1869 186.931 22.9677C186.697 22.7484 186.38 22.6253 186.05 22.6253H188.541C188.872 22.6253 189.188 22.5021 189.422 22.2829C189.656 22.0637 189.787 21.7663 189.787 21.4563C189.787 21.1463 189.656 20.8489 189.422 20.6297C189.188 20.4105 188.872 20.2873 188.541 20.2873Z" fill="#6C63FF"/>
</g>
<defs>
<linearGradient id="paint0_linear_22_1014" x1="117.075" y1="132.156" x2="117.075" y2="70.0938" gradientUnits="userSpaceOnUse">
<stop stop-color="#808080" stop-opacity="0.25"/>
<stop offset="0.54" stop-color="#808080" stop-opacity="0.12"/>
<stop offset="1" stop-color="#808080" stop-opacity="0.1"/>
</linearGradient>
<linearGradient id="paint1_linear_22_1014" x1="120.693" y1="116.529" x2="120.693" y2="33.862" gradientUnits="userSpaceOnUse">
<stop stop-color="#808080" stop-opacity="0.25"/>
<stop offset="0.54" stop-color="#808080" stop-opacity="0.12"/>
<stop offset="1" stop-color="#808080" stop-opacity="0.1"/>
</linearGradient>
<clipPath id="clip0_22_1014">
<rect width="257" height="181" fill="white"/>
</clipPath>
</defs>
</svg>
