<svg width="281" height="200" viewBox="0 0 281 200" fill="none" xmlns="http://www.w3.org/2000/svg">
<path d="M226.103 68.904H58.2072C57.8879 68.9043 57.5818 69.0309 57.3561 69.256L35.0126 91.522C34.7867 91.7468 34.6596 92.0518 34.6594 92.37V123.858C34.6596 124.176 34.7867 124.481 35.0126 124.706L57.3581 146.972C57.5838 147.197 57.8899 147.324 58.2092 147.324H226.103C226.422 147.324 226.728 147.197 226.954 146.972L249.299 124.706C249.525 124.481 249.652 124.176 249.652 123.858V92.37C249.652 92.0518 249.525 91.7468 249.299 91.522L226.954 69.256C226.728 69.0309 226.422 68.9043 226.103 68.904Z" stroke="#A8B9DF" stroke-width="4" stroke-miterlimit="10"/>
<path d="M138.399 51.364V146.66C138.399 146.978 138.526 147.283 138.752 147.508L161.095 169.774C161.207 169.885 161.341 169.974 161.487 170.034C161.633 170.094 161.79 170.124 161.948 170.124H193.549C193.868 170.124 194.174 169.998 194.4 169.774L216.745 147.508C216.971 147.283 217.097 146.978 217.097 146.66V51.364C217.097 51.0461 216.971 50.7412 216.745 50.516L194.4 28.25C194.174 28.0249 193.868 27.8983 193.549 27.898H161.948C161.79 27.8979 161.633 27.9289 161.487 27.9893C161.34 28.0497 161.207 28.1383 161.095 28.25L138.752 50.516C138.526 50.7408 138.399 51.0459 138.399 51.364Z" stroke="#A8B9DF" stroke-width="4" stroke-miterlimit="10"/>
<path d="M190.464 70.576C191.391 70.576 192.142 69.8274 192.142 68.904C192.142 67.9806 191.391 67.232 190.464 67.232C189.537 67.232 188.786 67.9806 188.786 68.904C188.786 69.8274 189.537 70.576 190.464 70.576Z" fill="#A8B9DF"/>
<path d="M197.401 70.576C198.327 70.576 199.078 69.8274 199.078 68.904C199.078 67.9806 198.327 67.232 197.401 67.232C196.474 67.232 195.723 67.9806 195.723 68.904C195.723 69.8274 196.474 70.576 197.401 70.576Z" fill="#A8B9DF"/>
<path d="M204.337 70.576C205.264 70.576 206.015 69.8274 206.015 68.904C206.015 67.9806 205.264 67.232 204.337 67.232C203.41 67.232 202.659 67.9806 202.659 68.904C202.659 69.8274 203.41 70.576 204.337 70.576Z" fill="#A8B9DF"/>
<path d="M211.274 70.576C212.201 70.576 212.952 69.8274 212.952 68.904C212.952 67.9806 212.201 67.232 211.274 67.232C210.347 67.232 209.596 67.9806 209.596 68.904C209.596 69.8274 210.347 70.576 211.274 70.576Z" fill="#A8B9DF"/>
<path d="M249.652 94.144C250.579 94.144 251.33 93.3954 251.33 92.472C251.33 91.5486 250.579 90.8 249.652 90.8C248.726 90.8 247.974 91.5486 247.974 92.472C247.974 93.3954 248.726 94.144 249.652 94.144Z" fill="#A8B9DF"/>
<path d="M249.652 101.056C250.579 101.056 251.33 100.307 251.33 99.384C251.33 98.4606 250.579 97.712 249.652 97.712C248.726 97.712 247.974 98.4606 247.974 99.384C247.974 100.307 248.726 101.056 249.652 101.056Z" fill="#A8B9DF"/>
<path d="M249.652 107.968C250.579 107.968 251.33 107.219 251.33 106.296C251.33 105.373 250.579 104.624 249.652 104.624C248.726 104.624 247.974 105.373 247.974 106.296C247.974 107.219 248.726 107.968 249.652 107.968Z" fill="#A8B9DF"/>
<path d="M249.652 114.88C250.579 114.88 251.33 114.131 251.33 113.208C251.33 112.285 250.579 111.536 249.652 111.536C248.726 111.536 247.974 112.285 247.974 113.208C247.974 114.131 248.726 114.88 249.652 114.88Z" fill="#A8B9DF"/>
<path d="M221.113 80.918H187.718C187.41 80.9186 187.114 80.8018 186.89 80.5917C186.666 80.3815 186.532 80.094 186.514 79.788L185.88 68.884C185.862 68.5781 185.727 68.2905 185.503 68.0804C185.279 67.8703 184.983 67.7535 184.675 67.754H132.046C131.735 67.7537 131.437 67.873 131.212 68.0869C130.988 68.3008 130.855 68.5929 130.842 68.902L130.374 79.77C130.361 80.0792 130.228 80.3712 130.003 80.5851C129.779 80.7991 129.48 80.9183 129.17 80.918H53.2194C52.9001 80.9183 52.594 81.0449 52.3684 81.27L30.0229 103.534C29.7974 103.76 29.6705 104.065 29.6696 104.384V135.872C29.6699 136.19 29.797 136.495 30.0229 136.72L52.3684 158.986C52.5944 159.21 52.9004 159.336 53.2194 159.336H129.172C129.483 159.336 129.782 159.455 130.006 159.67C130.23 159.884 130.363 160.177 130.376 160.486L130.844 171.354C130.857 171.663 130.99 171.955 131.214 172.169C131.439 172.383 131.737 172.502 132.048 172.502H184.679C184.987 172.503 185.283 172.386 185.507 172.176C185.731 171.966 185.866 171.678 185.884 171.372L186.518 160.468C186.535 160.162 186.67 159.874 186.894 159.663C187.118 159.453 187.414 159.336 187.722 159.336H221.117C221.436 159.336 221.742 159.21 221.968 158.986L244.309 136.72C244.535 136.495 244.662 136.19 244.663 135.872V104.384C244.663 104.226 244.632 104.07 244.571 103.924C244.51 103.778 244.422 103.646 244.309 103.534L221.964 81.27C221.738 81.0449 221.432 80.9183 221.113 80.918Z" fill="#F0F3F8"/>
<path d="M115.525 55V143.03C115.525 143.175 115.554 143.319 115.609 143.452C115.665 143.586 115.747 143.708 115.85 143.81L136.424 164.312C136.632 164.519 136.914 164.635 137.208 164.636H166.312C166.606 164.635 166.888 164.519 167.097 164.312L187.668 143.81C187.771 143.708 187.853 143.586 187.909 143.452C187.965 143.319 187.993 143.175 187.993 143.03V55C187.993 54.8547 187.964 54.7109 187.909 54.5767C187.853 54.4425 187.771 54.3206 187.668 54.218L167.095 33.718C166.992 33.6152 166.869 33.5337 166.735 33.4781C166.6 33.4225 166.456 33.3939 166.31 33.394H137.206C137.061 33.3939 136.916 33.4225 136.782 33.4781C136.647 33.5337 136.524 33.6152 136.422 33.718L115.848 54.218C115.745 54.3208 115.664 54.4427 115.609 54.5769C115.553 54.7111 115.525 54.8549 115.525 55Z" fill="#F0F3F8"/>
<path d="M189.165 42.108H131.159C128.387 42.108 126.141 44.3466 126.141 47.108V167.502C126.141 170.263 128.387 172.502 131.159 172.502H189.165C191.936 172.502 194.183 170.263 194.183 167.502V47.108C194.183 44.3466 191.936 42.108 189.165 42.108Z" fill="#8EB8E2"/>
<path d="M182.429 42.108H124.423C121.652 42.108 119.405 44.3466 119.405 47.108V167.502C119.405 170.263 121.652 172.502 124.423 172.502H182.429C185.201 172.502 187.447 170.263 187.447 167.502V47.108C187.447 44.3466 185.201 42.108 182.429 42.108Z" fill="#3E5FAB"/>
<path d="M182.68 54.234H124.152V156.394H182.68V54.234Z" fill="#8EB8E2"/>
<path opacity="0.47" d="M182.69 88.45C175.342 97.31 165.72 105.934 151.62 109.532C140.257 112.432 131.749 110.6 124.162 108.844V156.4H182.69V88.45Z" fill="url(#paint0_linear_16_244)"/>
<path d="M143.444 42.108H163.381V44.6C163.381 45.4243 163.053 46.2149 162.468 46.7977C161.883 47.3806 161.09 47.708 160.262 47.708H146.564C145.736 47.708 144.943 47.3806 144.358 46.7977C143.773 46.2149 143.444 45.4243 143.444 44.6V42.108Z" fill="#324E87"/>
<path d="M170.651 49.3481C171.56 49.3481 172.297 48.6138 172.297 47.7081C172.297 46.8023 171.56 46.0681 170.651 46.0681C169.742 46.0681 169.005 46.8023 169.005 47.7081C169.005 48.6138 169.742 49.3481 170.651 49.3481Z" fill="#324E87"/>
<path d="M153.416 168.004C155.831 168.004 157.79 166.053 157.79 163.646C157.79 161.239 155.831 159.288 153.416 159.288C151 159.288 149.042 161.239 149.042 163.646C149.042 166.053 151 168.004 153.416 168.004Z" stroke="#8EB8E2" stroke-width="5" stroke-miterlimit="10"/>
<path opacity="0.47" d="M174.623 83.52H149.649" stroke="url(#paint1_linear_16_244)" stroke-width="7" stroke-miterlimit="10"/>
<path opacity="0.47" d="M174.623 88.9561H149.649" stroke="url(#paint2_linear_16_244)" stroke-width="7" stroke-miterlimit="10"/>
<path opacity="0.47" d="M174.623 72.646H149.649" stroke="url(#paint3_linear_16_244)" stroke-width="7" stroke-miterlimit="10"/>
<path opacity="0.47" d="M174.623 67.21H149.649" stroke="url(#paint4_linear_16_244)" stroke-width="7" stroke-miterlimit="10"/>
<path opacity="0.47" d="M174.623 78.082H149.649" stroke="url(#paint5_linear_16_244)" stroke-width="7" stroke-miterlimit="10"/>
<path d="M191.02 61.726V75.612" stroke="#336297" stroke-width="7" stroke-miterlimit="10"/>
<path opacity="0.47" d="M140.598 116.236H131.494V147.294H140.598V116.236Z" fill="url(#paint6_linear_16_244)"/>
<path opacity="0.47" d="M152.547 110.92H143.442V147.516H152.547V110.92Z" fill="url(#paint7_linear_16_244)"/>
<path opacity="0.47" d="M164.066 122.634H154.961V147.516H164.066V122.634Z" fill="url(#paint8_linear_16_244)"/>
<path opacity="0.47" d="M175.338 116.236H166.234V147.516H175.338V116.236Z" fill="url(#paint9_linear_16_244)"/>
<path d="M143.442 93.352C151.695 93.352 158.386 86.6855 158.386 78.462C158.386 70.2385 151.695 63.572 143.442 63.572C135.19 63.572 128.499 70.2385 128.499 78.462C128.499 86.6855 135.19 93.352 143.442 93.352Z" fill="url(#paint10_linear_16_244)"/>
<path d="M143.442 78.462L128.541 79.6C128.49 78.8869 128.49 78.1711 128.541 77.458C129.099 69.31 136.287 63.058 144.466 63.616C152.645 64.174 158.918 71.334 158.36 79.482C157.802 87.63 150.614 93.882 142.435 93.326C139.635 93.1374 136.945 92.167 134.673 90.526L143.442 78.462Z" fill="#F9BF1F"/>
<path d="M143.442 78.4621L128.537 79.5421C128.311 76.421 129.076 73.3082 130.725 70.6451C132.374 67.9821 134.823 65.9041 137.724 64.7061L143.442 78.4621Z" fill="#EE465E"/>
<path opacity="0.25" d="M165.22 54.234L132.983 156.394H124.164V135.438L149.789 54.234H165.22Z" fill="white"/>
<path opacity="0.25" d="M138.15 156.394L170.386 54.234H182.692V80.676L158.799 156.394H138.15Z" fill="white"/>
<path d="M84.5662 79.7582L88.4393 79.6854L88.379 76.496L84.5059 76.5687L84.5662 79.7582Z" fill="#30302F"/>
<path d="M91.4181 76.4256L98.8131 76.2867C99.3672 76.2763 99.808 75.8202 99.7976 75.2681L99.7367 72.0506C99.7262 71.4984 99.2685 71.0593 98.7144 71.0697L91.3194 71.2086C90.7652 71.219 90.3244 71.6751 90.3349 72.2272L90.3958 75.4447C90.4062 75.9969 90.8639 76.4361 91.4181 76.4256Z" fill="#AA3552"/>
<path d="M77.4791 76.6872L89.9251 76.4535C90.701 76.4389 91.318 75.8004 91.3034 75.0273L91.0688 62.6255C91.0542 61.8525 90.4134 61.2376 89.6375 61.2522L77.1915 61.4859C76.4156 61.5005 75.7986 62.139 75.8132 62.9121L76.0478 75.3139C76.0625 76.0869 76.7032 76.7018 77.4791 76.6872Z" fill="#C53C56"/>
<path d="M82.1581 76.5991L94.6042 76.3653C95.38 76.3507 95.9971 75.7122 95.9825 74.9391L95.7479 62.5373C95.7332 61.7643 95.0924 61.1494 94.3166 61.164L81.8705 61.3978C81.0947 61.4123 80.4776 62.0508 80.4923 62.8239L80.7269 75.2257C80.7415 75.9987 81.3823 76.6136 82.1581 76.5991Z" fill="#EE465E"/>
<path d="M87.8393 68.7074L87.7972 66.4818C87.7952 66.3714 87.7036 66.2835 87.5928 66.2856L86.1479 66.3128C86.0371 66.3149 85.9489 66.4061 85.951 66.5165L85.9931 68.7421C85.9952 68.8525 86.0867 68.9404 86.1976 68.9383L87.6425 68.9112C87.7533 68.9091 87.8414 68.8179 87.8393 68.7074Z" fill="#30302F"/>
<path d="M86.2963 73.3185L90.9709 73.2254C91.0818 73.2232 91.1698 73.1318 91.1676 73.0214L91.1347 71.3814C91.1325 71.2709 91.0408 71.1832 90.93 71.1854L86.2553 71.2785C86.1445 71.2807 86.0564 71.3721 86.0586 71.4825L86.0916 73.1225C86.0938 73.233 86.1854 73.3207 86.2963 73.3185Z" fill="#30302F"/>
<path d="M75.3042 76.727L82.6992 76.5881C83.2533 76.5777 83.6941 76.1216 83.6837 75.5695L83.6228 72.352C83.6123 71.7998 83.1546 71.3606 82.6005 71.3711L75.2055 71.51C74.6513 71.5204 74.2106 71.9764 74.221 72.5286L74.2819 75.7461C74.2923 76.2982 74.75 76.7374 75.3042 76.727Z" fill="#D13F5B"/>
<path d="M75.2077 71.506L78.8025 71.438C78.6707 71.4403 78.5406 71.4685 78.4198 71.521C78.2989 71.5734 78.1896 71.649 78.0981 71.7436C78.0066 71.8381 77.9346 71.9497 77.8864 72.0719C77.8382 72.1942 77.8146 72.3247 77.817 72.456L77.8792 75.674C77.8815 75.8053 77.9098 75.9349 77.9624 76.0553C78.0151 76.1758 78.091 76.2847 78.1858 76.3759C78.2807 76.4671 78.3927 76.5387 78.5154 76.5868C78.638 76.6349 78.769 76.6584 78.9008 76.656L75.306 76.724C75.1742 76.7264 75.0432 76.7029 74.9206 76.6548C74.7979 76.6067 74.6859 76.5351 74.591 76.4439C74.4962 76.3527 74.4203 76.2438 74.3676 76.1233C74.315 76.0029 74.2867 75.8733 74.2844 75.742L74.2242 72.524C74.2193 72.2591 74.3202 72.0031 74.5046 71.8123C74.689 71.6214 74.9418 71.5112 75.2077 71.506Z" fill="#AA3552"/>
<path d="M78.102 59.086L78.2846 68.752C78.2888 68.9638 78.3772 69.1654 78.5304 69.3123C78.6835 69.4593 78.8889 69.5398 79.1015 69.536L81.6606 69.49C81.7661 69.4879 81.8701 69.4652 81.9667 69.423C82.0633 69.3809 82.1506 69.3202 82.2237 69.2444C82.2968 69.1686 82.3541 69.0793 82.3925 68.9814C82.4309 68.8835 82.4496 68.7791 82.4474 68.674L82.3411 63C82.3389 62.8948 82.3577 62.7902 82.3962 62.6922C82.4347 62.5942 82.4922 62.5047 82.5655 62.4289C82.6388 62.3531 82.7264 62.2924 82.8232 62.2504C82.92 62.2084 83.0243 62.1858 83.1299 62.184L93.9223 61.984C94.1349 61.9803 94.3403 62.0607 94.4934 62.2077C94.6466 62.3547 94.735 62.5562 94.7392 62.768L94.8456 68.436C94.8477 68.5411 94.8705 68.6447 94.9128 68.741C94.9551 68.8372 95.016 68.9242 95.092 68.9971C95.1681 69.0699 95.2578 69.127 95.356 69.1653C95.4542 69.2035 95.559 69.2221 95.6645 69.22L98.2236 69.172C98.4362 69.1678 98.6384 69.0797 98.7859 68.9271C98.9334 68.7745 99.0141 68.5699 99.0104 68.358L98.8277 58.692C98.8259 58.5869 98.8033 58.4833 98.7613 58.3869C98.7192 58.2905 98.6585 58.2034 98.5827 58.1304C98.5068 58.0574 98.4173 58 98.3192 57.9615C98.221 57.923 98.1163 57.9042 98.0108 57.906L78.8807 58.27C78.6692 58.2763 78.4687 58.3655 78.3229 58.5184C78.177 58.6712 78.0976 58.8752 78.102 59.086Z" fill="#D13F5B"/>
<path d="M83.1077 59.212L97.234 58.948C97.3228 58.9462 97.411 58.9618 97.4936 58.994C97.5763 59.0262 97.6518 59.0743 97.7157 59.1356C97.7797 59.1969 97.8309 59.2702 97.8664 59.3513C97.9018 59.4324 97.9209 59.5196 97.9225 59.608L98.1031 69.18L95.6644 69.226C95.559 69.2281 95.4542 69.2096 95.3559 69.1713C95.2577 69.133 95.168 69.0759 95.092 69.0031C95.0159 68.9303 94.955 68.8432 94.9127 68.747C94.8704 68.6507 94.8476 68.5471 94.8455 68.442L94.7371 62.774C94.7329 62.5622 94.6445 62.3607 94.4914 62.2137C94.3382 62.0667 94.1328 61.9863 93.9202 61.99L83.1278 62.19C82.9177 62.1942 82.7176 62.2803 82.5705 62.4299C82.4234 62.5795 82.341 62.7806 82.341 62.99L82.2928 60.06C82.2891 59.8402 82.3726 59.6277 82.5252 59.4689C82.6778 59.3101 82.8872 59.2178 83.1077 59.212Z" fill="#AA3552"/>
<path d="M86.5021 79.7225L90.3752 79.6498L90.3149 76.4604L86.4418 76.5331L86.5021 79.7225Z" fill="#474748"/>
<path d="M95.0242 71.364C95.1245 71.6785 95.2043 71.9992 95.263 72.324C95.3232 72.642 95.3674 72.962 95.4035 73.284C95.4704 73.9231 95.4992 74.5655 95.4898 75.208V75.232C95.4883 75.3324 95.4468 75.4282 95.3746 75.4983C95.3024 75.5683 95.2053 75.6071 95.1045 75.606C94.6428 75.606 94.1792 75.574 93.7155 75.522C93.4827 75.496 93.2519 75.468 93.019 75.422C92.784 75.3836 92.5515 75.3315 92.3226 75.266C92.549 75.1921 92.7795 75.1313 93.013 75.084C93.2438 75.03 93.4727 74.994 93.7035 74.958C94.1651 74.89 94.6288 74.848 95.0904 74.824L94.705 75.224C94.6726 74.5823 94.6773 73.9392 94.7191 73.298C94.7432 72.976 94.7753 72.656 94.8235 72.334C94.8702 72.0069 94.9372 71.6829 95.0242 71.364Z" fill="white"/>
<path d="M94.0106 66.814C93.9088 66.5007 93.8296 66.1806 93.7737 65.856C93.7135 65.536 93.6653 65.216 93.6312 64.896C93.5644 64.2569 93.5355 63.6145 93.5449 62.972L93.9463 63.356C92.8143 63.356 91.6823 63.3407 90.5502 63.31C89.9822 63.286 89.4162 63.268 88.8502 63.23C88.2842 63.192 87.7162 63.154 87.1501 63.092C87.7142 63.01 88.2782 62.946 88.8442 62.892C89.4102 62.838 89.9742 62.792 90.5382 62.746C91.6702 62.666 92.8016 62.6087 93.9323 62.574C94.0342 62.5697 94.1336 62.6058 94.2089 62.6744C94.2841 62.743 94.329 62.8385 94.3337 62.94V62.958C94.3661 63.5998 94.3615 64.2428 94.3197 64.884C94.2976 65.204 94.2615 65.526 94.2133 65.848C94.168 66.1743 94.1002 66.497 94.0106 66.814Z" fill="white"/>
<path d="M94.048 68.5921L94.0059 66.3665C94.0038 66.2561 93.9123 66.1683 93.8015 66.1703L92.3566 66.1975C92.2457 66.1996 92.1576 66.2908 92.1597 66.4012L92.2018 68.6268C92.2039 68.7373 92.2954 68.8251 92.4062 68.823L93.8511 68.7959C93.962 68.7938 94.0501 68.7026 94.048 68.5921Z" fill="#30302F"/>
<path d="M107.543 87.026C108.641 87.026 109.532 86.1386 109.532 85.044C109.532 83.9494 108.641 83.062 107.543 83.062C106.444 83.062 105.554 83.9494 105.554 85.044C105.554 86.1386 106.444 87.026 107.543 87.026Z" fill="#30302F"/>
<path d="M112.749 86.968C114.388 86.968 115.716 85.6445 115.716 84.012C115.716 82.3794 114.388 81.056 112.749 81.056C111.111 81.056 109.783 82.3794 109.783 84.012C109.783 85.6445 111.111 86.968 112.749 86.968Z" fill="#30302F"/>
<path d="M117.229 83.158C118.328 83.158 119.218 82.2707 119.218 81.176C119.218 80.0814 118.328 79.194 117.229 79.194C116.131 79.194 115.24 80.0814 115.24 81.176C115.24 82.2707 116.131 83.158 117.229 83.158Z" fill="#30302F"/>
<path d="M64.8347 104.654C65.9333 104.654 66.8238 103.767 66.8238 102.672C66.8238 101.577 65.9333 100.69 64.8347 100.69C63.7362 100.69 62.8456 101.577 62.8456 102.672C62.8456 103.767 63.7362 104.654 64.8347 104.654Z" fill="#30302F"/>
<path d="M63.8552 110.826C65.4936 110.826 66.8218 109.503 66.8218 107.87C66.8218 106.237 65.4936 104.914 63.8552 104.914C62.2169 104.914 60.8887 106.237 60.8887 107.87C60.8887 109.503 62.2169 110.826 63.8552 110.826Z" fill="#30302F"/>
<path d="M64.8287 115.05C65.9273 115.05 66.8178 114.163 66.8178 113.068C66.8178 111.973 65.9273 111.086 64.8287 111.086C63.7302 111.086 62.8397 111.973 62.8397 113.068C62.8397 114.163 63.7302 115.05 64.8287 115.05Z" fill="#30302F"/>
<path d="M91.899 99.58H83.3085V102.864H91.899V99.58Z" fill="#4E4F50"/>
<path d="M97.5893 100.616L96.0719 100.8C90.4476 101.488 84.7599 101.488 79.1356 100.8L77.6182 100.616C77.4274 100.593 77.2496 100.507 77.1128 100.372C76.9759 100.238 76.8875 100.062 76.8615 99.872L76.6889 98.604C75.9958 93.5242 75.8706 88.3834 76.3156 83.276L76.4541 81.686C76.4717 81.4809 76.5623 81.2888 76.7095 81.1443C76.8567 80.9999 77.0508 80.9125 77.2569 80.898L82.1604 80.514C85.7864 80.23 89.4291 80.23 93.0551 80.514L97.9486 80.898C98.1547 80.9125 98.3488 80.9999 98.496 81.1443C98.6432 81.2888 98.7338 81.4809 98.7514 81.686L98.8899 83.276C99.3342 88.382 99.2097 93.5213 98.5186 98.6L98.346 99.868C98.3204 100.058 98.2324 100.235 98.0955 100.37C97.9586 100.506 97.7806 100.592 97.5893 100.616Z" fill="#F6BE1D"/>
<path d="M98.35 99.872L98.5226 98.604C98.722 97.1467 98.8732 95.684 98.9762 94.216C96.1662 96.994 95.0663 97.256 89.5045 96.994C85.9419 96.826 83.1098 93.234 81.8453 90.512C80.934 88.55 79.3303 81.442 79.0473 80.758L77.257 80.898C77.0509 80.9125 76.8567 80.9998 76.7095 81.1443C76.5623 81.2888 76.4718 81.4809 76.4541 81.686L76.3156 83.276C75.8709 88.382 75.9961 93.5215 76.6889 98.6L76.8615 99.868C76.8876 100.058 76.9759 100.234 77.1128 100.368C77.2497 100.503 77.4274 100.589 77.6182 100.612L79.1356 100.796C84.7599 101.484 90.4476 101.484 96.0719 100.796L97.5893 100.612C97.7802 100.589 97.9582 100.504 98.0957 100.371C98.2333 100.237 98.3227 100.062 98.35 99.872Z" fill="#EE9E23"/>
<path d="M91.0761 81.98C90.5384 82.577 89.9367 83.1135 89.2817 83.58C89.4965 83.694 95.1205 86.536 102.701 86.58C109.678 86.622 120.097 84.33 130.121 73.18L128.499 71.734C120.916 80.172 112.276 84.438 102.808 84.414C96.7222 84.4 92.2342 82.518 91.0761 81.98Z" fill="#F6BE1D"/>
<path d="M113.201 88.09C114.839 88.09 116.167 86.7665 116.167 85.134C116.167 83.5014 114.839 82.178 113.201 82.178C111.562 82.178 110.234 83.5014 110.234 85.134C110.234 86.7665 111.562 88.09 113.201 88.09Z" fill="#4E4F50"/>
<path d="M113.201 86.824C114.138 86.824 114.897 86.0673 114.897 85.134C114.897 84.2006 114.138 83.444 113.201 83.444C112.264 83.444 111.505 84.2006 111.505 85.134C111.505 86.0673 112.264 86.824 113.201 86.824Z" fill="#30302F"/>
<path d="M107.908 87.93C109.007 87.93 109.897 87.0426 109.897 85.948C109.897 84.8534 109.007 83.966 107.908 83.966C106.809 83.966 105.919 84.8534 105.919 85.948C105.919 87.0426 106.809 87.93 107.908 87.93Z" fill="#4E4F50"/>
<path d="M107.908 86.95C108.463 86.95 108.914 86.5014 108.914 85.948C108.914 85.3946 108.463 84.946 107.908 84.946C107.353 84.946 106.902 85.3946 106.902 85.948C106.902 86.5014 107.353 86.95 107.908 86.95Z" fill="#30302F"/>
<path d="M117.592 84.064C118.691 84.064 119.582 83.1766 119.582 82.082C119.582 80.9873 118.691 80.1 117.592 80.1C116.494 80.1 115.603 80.9873 115.603 82.082C115.603 83.1766 116.494 84.064 117.592 84.064Z" fill="#4E4F50"/>
<path d="M117.592 83.084C118.148 83.084 118.598 82.6354 118.598 82.082C118.598 81.5286 118.148 81.08 117.592 81.08C117.037 81.08 116.587 81.5286 116.587 82.082C116.587 82.6354 117.037 83.084 117.592 83.084Z" fill="#30302F"/>
<path d="M136.165 72.544L134.88 71.374C134.315 71.9755 133.536 72.3309 132.71 72.3631C131.884 72.3952 131.078 72.1014 130.469 71.5456C129.859 70.9897 129.493 70.2166 129.452 69.394C129.411 68.5715 129.696 67.7658 130.248 67.152L128.963 65.982C128.095 66.9345 127.642 68.1908 127.702 69.4757C127.762 70.7606 128.331 71.9694 129.284 72.8374C130.236 73.7055 131.495 74.162 132.785 74.107C134.075 74.052 135.29 73.4899 136.165 72.544Z" fill="#EE9E23"/>
<path d="M129.473 74.296C130.571 74.296 131.462 73.4087 131.462 72.314C131.462 71.2194 130.571 70.332 129.473 70.332C128.374 70.332 127.484 71.2194 127.484 72.314C127.484 73.4087 128.374 74.296 129.473 74.296Z" fill="#4E4F50"/>
<path d="M129.473 73.316C130.028 73.316 130.478 72.8674 130.478 72.314C130.478 71.7606 130.028 71.312 129.473 71.312C128.917 71.312 128.467 71.7606 128.467 72.314C128.467 72.8674 128.917 73.316 129.473 73.316Z" fill="#EE9E23"/>
<path d="M80.2858 89.028H75.85V88.828C75.862 86.956 75.9483 85.084 76.1069 83.262L76.2454 81.672C76.2666 81.4199 76.3773 81.1837 76.5575 81.0055C76.7377 80.8274 76.9758 80.7191 77.2289 80.7L81.5302 80.364V87.79C81.5291 88.1184 81.3976 88.4329 81.1644 88.6649C80.9312 88.8969 80.6153 89.0275 80.2858 89.028ZM76.2534 88.628H80.2858C80.5092 88.6275 80.7233 88.5388 80.8813 88.3814C81.0392 88.224 81.1282 88.0106 81.1288 87.788V80.8L77.275 81.096C77.1182 81.108 76.9706 81.1747 76.8582 81.2845C76.7459 81.3942 76.676 81.54 76.6609 81.696L76.5224 83.296C76.3638 85.04 76.2715 86.834 76.2715 88.628H76.2534Z" fill="#F8E782"/>
<path d="M97.9787 97.568H93.5429V97.368C93.555 95.496 93.6413 93.622 93.7998 91.802L93.9363 90.212C93.9575 89.9599 94.0682 89.7236 94.2484 89.5455C94.4287 89.3674 94.6667 89.2591 94.9198 89.24L99.2231 88.904V96.33C99.2221 96.6584 99.0905 96.9729 98.8573 97.2049C98.6241 97.4369 98.3082 97.5675 97.9787 97.568ZM93.9463 97.168H97.9787C98.2025 97.168 98.4171 97.0796 98.5755 96.9221C98.7339 96.7646 98.8232 96.551 98.8237 96.328V89.328L94.9539 89.63C94.7971 89.642 94.6495 89.7087 94.5371 89.8185C94.4248 89.9282 94.3549 90.0739 94.3397 90.23L94.2013 91.82C94.0487 93.58 93.9644 95.372 93.9463 97.168Z" fill="#F8E782"/>
<path d="M93.1896 80.524V85.886C93.1896 86.1162 93.2814 86.337 93.4448 86.4998C93.6081 86.6625 93.8297 86.754 94.0607 86.754H96.6279C96.8586 86.7535 97.0796 86.6618 97.2425 86.499C97.4055 86.3363 97.497 86.1158 97.497 85.886V80.862L93.1896 80.524Z" fill="#EE9E23"/>
<path d="M92.8063 96.502C92.5758 96.502 92.3547 96.5933 92.1918 96.7557C92.0288 96.9181 91.9372 97.1383 91.9372 97.368V101.18C93.3181 101.095 94.6963 100.968 96.0719 100.8L97.5893 100.616C97.78 100.592 97.9576 100.507 98.0944 100.372C98.2312 100.237 98.3197 100.062 98.346 99.872L98.5186 98.604C98.613 97.904 98.6952 97.204 98.7695 96.502H92.8063Z" fill="#EE9E23"/>
<path d="M95.9415 96.502C94.9178 96.94 93.7477 97.082 91.9854 97.072C91.9493 97.1666 91.9302 97.2668 91.9292 97.368V101.18C93.2981 101.095 94.6649 100.969 96.0298 100.804H96.0639L97.5813 100.62C97.7004 100.606 97.8154 100.568 97.919 100.507C98.0226 100.447 98.1126 100.366 98.1835 100.27C98.2702 100.152 98.3255 100.015 98.344 99.87L98.5166 98.602C98.611 97.902 98.6933 97.202 98.7675 96.5L95.9415 96.502Z" fill="#E77B26"/>
<path d="M79.2822 93.068H76.1631C76.2634 94.9187 76.4387 96.764 76.689 98.604L76.8616 99.872C76.8876 100.062 76.9759 100.238 77.1128 100.372C77.2497 100.507 77.4274 100.593 77.6183 100.616L79.1357 100.8C79.6174 100.86 80.0991 100.906 80.5808 100.954V94.368C80.5808 94.0242 80.4442 93.6945 80.2008 93.4509C79.9575 93.2072 79.6272 93.0696 79.2822 93.068Z" fill="#E77B26"/>
<path d="M92.2342 80.458C92.0925 79.8209 91.7366 79.2512 91.2256 78.8431C90.7146 78.4351 90.0791 78.2131 89.4242 78.214H86.1406C85.4916 78.2146 84.8619 78.4341 84.3542 78.8369C83.8465 79.2397 83.4906 79.8019 83.3446 80.432C86.3054 80.2527 89.2746 80.2613 92.2342 80.458Z" fill="#4E4F50"/>
<path d="M76.0547 91.82L74.2282 89.4C71.6189 84.4 73.1483 83.488 75.8238 82.03L76.4541 81.686L76.0547 91.82Z" fill="#EE9E23"/>
<path d="M99.0907 91.82L100.917 89.4C103.526 84.4 101.997 83.488 99.3115 82.03L98.6812 81.686L99.0907 91.82Z" fill="#EE9E23"/>
<path d="M87.6038 101.748C84.7551 101.749 81.909 101.576 79.0815 101.23L77.5641 101.046C77.2779 101.01 77.0114 100.882 76.806 100.68C76.6006 100.478 76.4678 100.215 76.428 99.93L76.2554 98.662C75.5596 93.5509 75.4338 88.3787 75.8801 83.24L76.0186 81.65C76.0441 81.3416 76.1796 81.0525 76.4005 80.835C76.6214 80.6175 76.9131 80.4859 77.2228 80.464L82.1263 80.082C85.775 79.796 89.4406 79.796 93.0893 80.082L97.9928 80.464C98.3024 80.4863 98.5939 80.618 98.8147 80.8354C99.0355 81.0529 99.1711 81.3417 99.197 81.65L99.3355 83.24C99.7782 88.379 99.6496 93.5511 98.9522 98.662L98.7776 99.93C98.7389 100.215 98.6066 100.479 98.4014 100.681C98.1963 100.883 97.9297 101.011 97.6435 101.046L96.1261 101.23C93.2986 101.575 90.4525 101.748 87.6038 101.748ZM87.6038 80.736C85.7974 80.736 83.9909 80.806 82.1845 80.946L77.2811 81.33C77.1769 81.337 77.0788 81.3814 77.005 81.455C76.9312 81.5285 76.8867 81.6262 76.8796 81.73L76.7411 83.32C76.2995 88.3954 76.424 93.5039 77.1125 98.552L77.2851 99.818C77.2977 99.9129 77.3416 100.001 77.4099 100.068C77.4782 100.136 77.567 100.178 77.6624 100.19L79.1798 100.376C84.7689 101.058 90.4206 101.058 96.0097 100.376L97.5271 100.19C97.6223 100.178 97.711 100.136 97.7795 100.069C97.8481 100.002 97.8927 99.9146 97.9065 99.82L98.0791 98.552C98.7665 93.5039 98.891 88.3954 98.4504 83.32L98.3119 81.73C98.3049 81.6262 98.2603 81.5285 98.1865 81.455C98.1127 81.3814 98.0146 81.337 97.9105 81.33L93.007 80.946C91.2207 80.8 89.4122 80.736 87.6038 80.736Z" fill="#E77B26"/>
<path d="M73.8227 88.584C73.4641 87.8641 73.1867 87.1068 72.9958 86.326C72.8091 86.482 68.0682 90.624 65.2 97.618C62.5626 104.054 60.8164 114.542 67.4681 127.966L69.419 127.006C64.3851 116.85 63.6304 107.27 67.1751 98.534C69.4592 92.902 72.8894 89.456 73.8227 88.584Z" fill="#F6BE1D"/>
<path d="M62.6409 110.826C64.2793 110.826 65.6075 109.503 65.6075 107.87C65.6075 106.237 64.2793 104.914 62.6409 104.914C61.0026 104.914 59.6744 106.237 59.6744 107.87C59.6744 109.503 61.0026 110.826 62.6409 110.826Z" fill="#4E4F50"/>
<path d="M62.6409 109.56C63.5776 109.56 64.337 108.803 64.337 107.87C64.337 106.937 63.5776 106.18 62.6409 106.18C61.7042 106.18 60.9449 106.937 60.9449 107.87C60.9449 108.803 61.7042 109.56 62.6409 109.56Z" fill="#30302F"/>
<path d="M87.8105 94.126C89.4489 94.126 90.777 92.8025 90.777 91.17C90.777 89.5374 89.4489 88.214 87.8105 88.214C86.1721 88.214 84.8439 89.5374 84.8439 91.17C84.8439 92.8025 86.1721 94.126 87.8105 94.126Z" fill="#30302F"/>
<path d="M87.8105 92.916C89.4489 92.916 90.777 91.5926 90.777 89.96C90.777 88.3275 89.4489 87.004 87.8105 87.004C86.1721 87.004 84.8439 88.3275 84.8439 89.96C84.8439 91.5926 86.1721 92.916 87.8105 92.916Z" fill="#4E4F50"/>
<path d="M87.8105 91.65C88.7472 91.65 89.5066 90.8934 89.5066 89.96C89.5066 89.0267 88.7472 88.27 87.8105 88.27C86.8738 88.27 86.1145 89.0267 86.1145 89.96C86.1145 90.8934 86.8738 91.65 87.8105 91.65Z" fill="#30302F"/>
<path d="M63.8553 104.654C64.9538 104.654 65.8444 103.767 65.8444 102.672C65.8444 101.577 64.9538 100.69 63.8553 100.69C62.7568 100.69 61.8662 101.577 61.8662 102.672C61.8662 103.767 62.7568 104.654 63.8553 104.654Z" fill="#4E4F50"/>
<path d="M63.8553 103.674C64.4106 103.674 64.8608 103.225 64.8608 102.672C64.8608 102.119 64.4106 101.67 63.8553 101.67C63.2999 101.67 62.8497 102.119 62.8497 102.672C62.8497 103.225 63.2999 103.674 63.8553 103.674Z" fill="#30302F"/>
<path d="M63.8492 115.05C64.9478 115.05 65.8383 114.163 65.8383 113.068C65.8383 111.973 64.9478 111.086 63.8492 111.086C62.7507 111.086 61.8602 111.973 61.8602 113.068C61.8602 114.163 62.7507 115.05 63.8492 115.05Z" fill="#4E4F50"/>
<path d="M63.8493 114.07C64.4046 114.07 64.8548 113.621 64.8548 113.068C64.8548 112.515 64.4046 112.066 63.8493 112.066C63.2939 112.066 62.8437 112.515 62.8437 113.068C62.8437 113.621 63.2939 114.07 63.8493 114.07Z" fill="#30302F"/>
<path d="M65.8142 133.8C65.524 133.223 65.3519 132.595 65.3079 131.951C65.2639 131.307 65.349 130.661 65.5581 130.05C65.7673 129.44 66.0963 128.877 66.526 128.394C66.9558 127.911 67.4776 127.519 68.0612 127.239C68.6447 126.959 69.2783 126.798 69.925 126.765C70.5717 126.732 71.2185 126.827 71.8278 127.046C72.4372 127.264 72.9967 127.601 73.474 128.037C73.9512 128.474 74.3365 129 74.6075 129.586L73.0379 130.338C72.8594 129.968 72.6094 129.637 72.3023 129.363C71.9952 129.089 71.637 128.878 71.2481 128.742C70.8592 128.606 70.4473 128.548 70.0358 128.571C69.6244 128.594 69.2214 128.697 68.85 128.875C68.4787 129.053 68.1461 129.302 67.8713 129.608C67.5965 129.914 67.3849 130.271 67.2486 130.659C67.1122 131.046 67.0538 131.456 67.0767 131.866C67.0996 132.276 67.2032 132.678 67.3818 133.048L65.8142 133.8Z" fill="#EE9E23"/>
<path d="M68.5198 129.674C69.6184 129.674 70.5089 128.787 70.5089 127.692C70.5089 126.597 69.6184 125.71 68.5198 125.71C67.4213 125.71 66.5308 126.597 66.5308 127.692C66.5308 128.787 67.4213 129.674 68.5198 129.674Z" fill="#4E4F50"/>
<path d="M68.5199 128.694C69.0752 128.694 69.5254 128.245 69.5254 127.692C69.5254 127.139 69.0752 126.69 68.5199 126.69C67.9645 126.69 67.5143 127.139 67.5143 127.692C67.5143 128.245 67.9645 128.694 68.5199 128.694Z" fill="#EE9E23"/>
<path d="M79.6595 94.404C79.8668 94.404 80.0348 94.2366 80.0348 94.03C80.0348 93.8235 79.8668 93.656 79.6595 93.656C79.4522 93.656 79.2842 93.8235 79.2842 94.03C79.2842 94.2366 79.4522 94.404 79.6595 94.404Z" fill="#020202"/>
<path d="M94.1209 86.054C94.3282 86.054 94.4963 85.8866 94.4963 85.68C94.4963 85.4735 94.3282 85.306 94.1209 85.306C93.9136 85.306 93.7456 85.4735 93.7456 85.68C93.7456 85.8866 93.9136 86.054 94.1209 86.054Z" fill="#020202"/>
<path d="M96.7603 86.054C96.9676 86.054 97.1357 85.8866 97.1357 85.68C97.1357 85.4735 96.9676 85.306 96.7603 85.306C96.5531 85.306 96.385 85.4735 96.385 85.68C96.385 85.8866 96.5531 86.054 96.7603 86.054Z" fill="#020202"/>
<path d="M96.7603 82.436C96.9676 82.436 97.1357 82.2685 97.1357 82.062C97.1357 81.8554 96.9676 81.688 96.7603 81.688C96.5531 81.688 96.385 81.8554 96.385 82.062C96.385 82.2685 96.5531 82.436 96.7603 82.436Z" fill="#020202"/>
<path d="M94.1209 82.06C94.3282 82.06 94.4963 81.8926 94.4963 81.686C94.4963 81.4795 94.3282 81.312 94.1209 81.312C93.9136 81.312 93.7456 81.4795 93.7456 81.686C93.7456 81.8926 93.9136 82.06 94.1209 82.06Z" fill="#020202"/>
<path d="M92.8143 97.76C93.0216 97.76 93.1896 97.5926 93.1896 97.386C93.1896 97.1795 93.0216 97.012 92.8143 97.012C92.607 97.012 92.439 97.1795 92.439 97.386C92.439 97.5926 92.607 97.76 92.8143 97.76Z" fill="#020202"/>
<path d="M97.497 97.742C97.7043 97.742 97.8723 97.5746 97.8723 97.368C97.8723 97.1615 97.7043 96.994 97.497 96.994C97.2897 96.994 97.1216 97.1615 97.1216 97.368C97.1216 97.5746 97.2897 97.742 97.497 97.742Z" fill="#020202"/>
<path d="M77.3292 94.404C77.5365 94.404 77.7045 94.2366 77.7045 94.03C77.7045 93.8235 77.5365 93.656 77.3292 93.656C77.1219 93.656 76.9539 93.8235 76.9539 94.03C76.9539 94.2366 77.1219 94.404 77.3292 94.404Z" fill="#020202"/>
<path d="M79.8382 100.13C80.0455 100.13 80.2135 99.9626 80.2135 99.756C80.2135 99.5495 80.0455 99.382 79.8382 99.382C79.6309 99.382 79.4628 99.5495 79.4628 99.756C79.4628 99.9626 79.6309 100.13 79.8382 100.13Z" fill="#020202"/>
<path d="M92.8143 100.33C93.0216 100.33 93.1896 100.163 93.1896 99.956C93.1896 99.7495 93.0216 99.582 92.8143 99.582C92.607 99.582 92.439 99.7495 92.439 99.956C92.439 100.163 92.607 100.33 92.8143 100.33Z" fill="#020202"/>
<path d="M74.7159 156.246H71.9541V172.502H74.7159V156.246Z" fill="#8EA3CA"/>
<path d="M100.757 156.246H97.9948V172.502H100.757V156.246Z" fill="#8EA3CA"/>
<path d="M81.1729 156.246H78.4111V172.502H81.1729V156.246Z" fill="#CFD7ED"/>
<path d="M107.067 156.246H104.305V172.502H107.067V156.246Z" fill="#CFD7ED"/>
<path d="M72.5563 157.102H106.567C106.9 157.102 107.169 156.833 107.169 156.502V115.212C107.169 114.881 106.9 114.612 106.567 114.612H72.5563C72.2237 114.612 71.9541 114.881 71.9541 115.212V156.502C71.9541 156.833 72.2237 157.102 72.5563 157.102Z" fill="#CFD7ED"/>
<path d="M72.5562 114.612H79.0333C78.8736 114.612 78.7204 114.675 78.6075 114.788C78.4946 114.9 78.4312 115.053 78.4312 115.212V156.502C78.4312 156.661 78.4946 156.814 78.6075 156.926C78.7204 157.039 78.8736 157.102 79.0333 157.102H72.5562C72.3965 157.102 72.2434 157.039 72.1305 156.926C72.0175 156.814 71.9541 156.661 71.9541 156.502V115.212C71.9541 115.053 72.0175 114.9 72.1305 114.788C72.2434 114.675 72.3965 114.612 72.5562 114.612Z" fill="#A8B9DF"/>
<path d="M95.1747 153.248C96.1691 153.248 96.9751 152.445 96.9751 151.454C96.9751 150.463 96.1691 149.66 95.1747 149.66C94.1804 149.66 93.3743 150.463 93.3743 151.454C93.3743 152.445 94.1804 153.248 95.1747 153.248Z" fill="#30302F"/>
<path d="M97.228 146.588L95.3333 146.45C94.98 146.424 94.685 146.612 94.683 146.85L94.6428 154.556C94.6428 154.788 94.8997 154.99 95.2289 155.014L96.3589 155.098" stroke="#30302F" stroke-width="3" stroke-miterlimit="10"/>
<path d="M102.292 150.734L96.1864 150.58L98.2196 126.06L78.385 114.684L88.3665 108.408L100.411 125.812L102.292 150.734Z" fill="#F6BE1D"/>
<path d="M77.6765 110.922H82.3491C82.5088 110.922 82.662 110.985 82.7749 111.098C82.8878 111.21 82.9513 111.363 82.9513 111.522V112.218C82.9513 113.427 82.4691 114.587 81.6109 115.442C80.7527 116.298 79.5887 116.778 78.375 116.778H77.6765C77.5168 116.778 77.3636 116.715 77.2507 116.602C77.1378 116.49 77.0743 116.337 77.0743 116.178V111.522C77.0743 111.363 77.1378 111.21 77.2507 111.098C77.3636 110.985 77.5168 110.922 77.6765 110.922Z" fill="#4E4F50"/>
<path d="M77.9695 113.4H77.7326C77.5589 113.399 77.3925 113.33 77.2698 113.208C77.1472 113.085 77.0783 112.919 77.0783 112.746V114.314C77.078 114.4 77.0948 114.485 77.1275 114.564C77.1603 114.643 77.2085 114.716 77.2692 114.776C77.33 114.837 77.4023 114.885 77.4818 114.918C77.5613 114.951 77.6465 114.968 77.7326 114.968H77.9695C78.6241 114.968 79.2724 114.839 79.8771 114.59C80.4819 114.34 81.0314 113.974 81.4942 113.513C81.957 113.051 82.3241 112.504 82.5744 111.901C82.8248 111.298 82.9535 110.652 82.9532 110V109.764C82.9533 109.643 82.9192 109.525 82.8549 109.422C82.6254 110.545 82.0138 111.554 81.1236 112.278C80.2334 113.003 79.1191 113.4 77.9695 113.4Z" fill="#797979"/>
<path d="M89.3982 117.452C90.3355 118.074 91.2367 118.738 92.14 119.398C93.0432 120.058 93.9263 120.742 94.8014 121.436C95.6765 122.13 96.5456 122.836 97.4107 123.528C98.2758 124.22 99.1248 124.956 99.9839 125.67L100.209 125.858L100.193 126.158C100.115 127.69 100.027 129.223 99.9277 130.758C99.8153 132.29 99.727 133.822 99.5925 135.358C99.458 136.894 99.3315 138.42 99.191 139.958C99.0505 141.496 98.8719 143.016 98.6612 144.542C98.605 143.002 98.605 141.464 98.6009 139.928C98.5969 138.392 98.623 136.854 98.6612 135.328C98.6993 133.802 98.7495 132.258 98.7936 130.728C98.8378 129.198 98.9201 127.66 98.9943 126.128L99.1951 126.616C98.3541 125.884 97.505 125.16 96.6681 124.416C95.8311 123.672 94.9961 122.936 94.1832 122.17C93.3703 121.404 92.5514 120.646 91.7466 119.87C90.9417 119.094 90.1629 118.276 89.3982 117.452Z" fill="#4E4F50"/>
<path d="M112.858 152.734C113.852 152.734 114.658 151.931 114.658 150.94C114.658 149.949 113.852 149.146 112.858 149.146C111.863 149.146 111.057 149.949 111.057 150.94C111.057 151.931 111.863 152.734 112.858 152.734Z" fill="#30302F"/>
<path d="M114.546 145.936H112.647C112.294 145.936 112.013 146.136 112.031 146.392L112.555 154.08C112.569 154.314 112.842 154.496 113.171 154.496H114.305" stroke="#30302F" stroke-width="3" stroke-miterlimit="10"/>
<path d="M113.564 150.734L119.67 150.58L115.495 126.06L98.3139 112.198H81.3917L113.062 126.72L113.564 150.734Z" fill="#F6BE1D"/>
<path d="M98.8036 116.776H98.1051C96.8914 116.776 95.7274 116.296 94.8692 115.44C94.011 114.585 93.5288 113.425 93.5288 112.216V111.52C93.5288 111.361 93.5923 111.208 93.7052 111.096C93.8181 110.983 93.9713 110.92 94.131 110.92H98.8036C98.9633 110.92 99.1165 110.983 99.2294 111.096C99.3423 111.208 99.4058 111.361 99.4058 111.52V116.176C99.4058 116.335 99.3423 116.488 99.2294 116.6C99.1165 116.713 98.9633 116.776 98.8036 116.776Z" fill="#4E4F50"/>
<path d="M98.5146 113.4H98.7515C98.9255 113.4 99.0925 113.331 99.2156 113.208C99.3387 113.086 99.4078 112.919 99.4078 112.746V114.314C99.4081 114.4 99.3913 114.485 99.3584 114.565C99.3255 114.644 99.2772 114.716 99.2162 114.777C99.1552 114.838 99.0827 114.886 99.003 114.919C98.9232 114.952 98.8377 114.968 98.7515 114.968H98.5146C97.8602 114.968 97.2121 114.839 96.6076 114.589C96.003 114.339 95.4538 113.973 94.9912 113.512C94.5286 113.051 94.1617 112.503 93.9115 111.901C93.6613 111.298 93.5326 110.652 93.5329 110V109.764C93.5335 109.643 93.5683 109.524 93.6333 109.422C93.8619 110.544 94.4727 111.553 95.3622 112.278C96.2518 113.003 97.3655 113.399 98.5146 113.4Z" fill="#797979"/>
<path d="M113.568 150.58V157.06H127.921V154.86C127.92 154.462 127.764 154.08 127.484 153.795C127.205 153.511 126.825 153.346 126.426 153.336C124.332 153.28 120.671 152.848 119.67 150.574H113.568V150.58Z" fill="#EE9E23"/>
<path d="M113.604 157.06C113.589 156.82 113.622 156.579 113.702 156.353C113.782 156.126 113.907 155.917 114.07 155.74C114.239 155.556 114.443 155.407 114.67 155.303C114.897 155.198 115.143 155.139 115.393 155.13C115.65 155.122 115.907 155.165 116.148 155.255C116.389 155.346 116.61 155.484 116.798 155.66C117.182 156.026 117.406 156.53 117.418 157.06H116.948C116.942 156.793 116.99 156.527 117.089 156.278C117.187 156.03 117.335 155.803 117.522 155.612C117.81 155.321 118.179 155.121 118.581 155.039C118.983 154.957 119.401 154.996 119.78 155.151C120.16 155.307 120.485 155.571 120.713 155.911C120.942 156.251 121.063 156.651 121.063 157.06H120.461C120.459 156.65 120.581 156.249 120.809 155.908C121.038 155.568 121.363 155.303 121.744 155.147C122.124 154.992 122.543 154.953 122.946 155.036C123.349 155.118 123.718 155.319 124.005 155.612C124.192 155.804 124.339 156.03 124.437 156.279C124.535 156.527 124.583 156.793 124.577 157.06H124.108C124.113 156.797 124.17 156.539 124.276 156.298C124.382 156.058 124.535 155.841 124.726 155.66C125.105 155.305 125.61 155.113 126.131 155.128C126.381 155.137 126.628 155.196 126.855 155.301C127.082 155.406 127.287 155.556 127.456 155.74C127.618 155.917 127.744 156.126 127.824 156.353C127.904 156.579 127.937 156.82 127.921 157.06C127.891 156.6 127.682 156.17 127.339 155.86C127.011 155.563 126.578 155.407 126.135 155.426C125.706 155.442 125.301 155.627 125.009 155.94C124.726 156.245 124.572 156.647 124.581 157.062H124.112C124.098 156.656 123.928 156.27 123.636 155.986C123.348 155.71 122.962 155.558 122.563 155.562C122.163 155.566 121.781 155.726 121.498 156.008C121.221 156.289 121.066 156.668 121.067 157.062H120.465C120.466 156.865 120.428 156.67 120.353 156.487C120.278 156.305 120.167 156.139 120.027 156C119.745 155.718 119.362 155.558 118.963 155.554C118.563 155.55 118.178 155.702 117.89 155.978C117.597 156.264 117.428 156.652 117.418 157.06H116.948C116.958 156.644 116.804 156.241 116.521 155.936C116.227 155.624 115.822 155.44 115.393 155.422C114.95 155.405 114.518 155.56 114.188 155.856C113.845 156.167 113.635 156.598 113.604 157.06Z" fill="#30302F"/>
<path d="M96.1904 150.58V157.06H110.543V154.86C110.543 154.462 110.386 154.08 110.106 153.795C109.827 153.511 109.447 153.346 109.048 153.336C106.955 153.28 103.294 152.848 102.292 150.574H96.1904V150.58Z" fill="#EE9E23"/>
<path d="M96.2265 157.06C96.211 156.82 96.2442 156.58 96.3242 156.353C96.4042 156.126 96.5294 155.917 96.6922 155.74C96.8611 155.556 97.065 155.407 97.2921 155.303C97.5191 155.198 97.7648 155.139 98.0149 155.13C98.2725 155.122 98.5293 155.165 98.7704 155.255C99.0115 155.346 99.2322 155.484 99.4199 155.66C99.8047 156.026 100.028 156.53 100.04 157.06H99.5704C99.5646 156.793 99.6124 156.527 99.711 156.278C99.8096 156.03 99.9569 155.803 100.144 155.612C100.432 155.321 100.801 155.121 101.203 155.039C101.605 154.957 102.023 154.996 102.403 155.151C102.782 155.307 103.107 155.571 103.336 155.911C103.564 156.251 103.686 156.651 103.685 157.06H103.083C103.081 156.65 103.202 156.249 103.43 155.908C103.659 155.567 103.984 155.302 104.364 155.146C104.745 154.991 105.164 154.952 105.566 155.035C105.969 155.118 106.338 155.319 106.626 155.612C106.812 155.804 106.959 156.03 107.057 156.279C107.156 156.527 107.203 156.793 107.198 157.06H106.728C106.733 156.798 106.79 156.539 106.896 156.298C107.002 156.058 107.155 155.841 107.346 155.66C107.725 155.305 108.231 155.113 108.751 155.128C109.002 155.137 109.248 155.196 109.475 155.301C109.703 155.407 109.907 155.556 110.076 155.74C110.239 155.917 110.364 156.126 110.444 156.353C110.524 156.58 110.557 156.82 110.541 157.06C110.511 156.6 110.302 156.17 109.959 155.86C109.631 155.563 109.198 155.407 108.755 155.426C108.326 155.442 107.922 155.627 107.629 155.94C107.346 156.245 107.193 156.647 107.202 157.062H106.732C106.719 156.656 106.548 156.27 106.256 155.986C105.968 155.71 105.583 155.558 105.183 155.562C104.783 155.566 104.401 155.726 104.119 156.008C103.841 156.289 103.686 156.668 103.687 157.062H103.085C103.086 156.667 102.93 156.287 102.651 156.006C102.372 155.725 101.992 155.565 101.596 155.562C101.194 155.556 100.805 155.708 100.516 155.986C100.223 156.27 100.053 156.655 100.04 157.062H99.5704C99.5799 156.646 99.4266 156.243 99.1429 155.938C98.8489 155.626 98.4439 155.442 98.0149 155.424C97.572 155.407 97.1398 155.562 96.8106 155.858C96.4672 156.168 96.2579 156.599 96.2265 157.06Z" fill="#30302F"/>
<path d="M99.5985 129.082C101.237 129.082 102.565 127.759 102.565 126.126C102.565 124.493 101.237 123.17 99.5985 123.17C97.9601 123.17 96.6319 124.493 96.6319 126.126C96.6319 127.759 97.9601 129.082 99.5985 129.082Z" fill="#4E4F50"/>
<path d="M99.5985 127.816C100.535 127.816 101.295 127.059 101.295 126.126C101.295 125.193 100.535 124.436 99.5985 124.436C98.6618 124.436 97.9025 125.193 97.9025 126.126C97.9025 127.059 98.6618 127.816 99.5985 127.816Z" fill="#EE9E23"/>
<path d="M96.9008 111.918C91.232 113.264 85.331 113.315 79.6394 112.068C79.7087 110.861 79.5902 109.651 79.2882 108.48C78.8411 106.772 78.0184 105.185 76.8796 103.834C76.8264 103.77 76.7926 103.693 76.782 103.611C76.7715 103.529 76.7847 103.446 76.8202 103.371C76.8556 103.296 76.9118 103.233 76.982 103.189C77.0523 103.145 77.1338 103.121 77.2168 103.122H99.3536C99.4334 103.122 99.5116 103.144 99.5798 103.185C99.648 103.226 99.7037 103.285 99.7406 103.356C99.7776 103.426 99.7946 103.505 99.7897 103.585C99.7848 103.664 99.7582 103.741 99.7129 103.806C98.0488 106.203 97.0769 109.009 96.9029 111.918H96.9008Z" fill="#30302F"/>
<path d="M96.9008 111.918C91.232 113.264 85.331 113.315 79.6394 112.068C79.7087 110.861 79.5902 109.651 79.2882 108.48C78.8411 106.772 78.0184 105.185 76.8796 103.834C76.8264 103.77 76.7926 103.693 76.782 103.611C76.7715 103.529 76.7847 103.446 76.8202 103.371C76.8556 103.296 76.9118 103.233 76.982 103.189C77.0523 103.145 77.1338 103.121 77.2168 103.122H99.3536C99.4334 103.122 99.5116 103.144 99.5798 103.185C99.648 103.226 99.7037 103.285 99.7406 103.356C99.7776 103.426 99.7946 103.505 99.7897 103.585C99.7848 103.664 99.7582 103.741 99.7129 103.806C98.0488 106.203 97.0769 109.009 96.9029 111.918H96.9008Z" fill="#F6BE1D"/>
<path d="M97.4508 108.628C97.4869 108.502 97.5271 108.38 97.5652 108.256C96.0298 109.066 94.2996 109.118 90.6988 108.948C87.4171 108.794 84.7536 105.732 83.3667 103.122H77.275C77.2871 103.544 77.3031 103.968 77.3212 104.39C78.9789 106.597 79.8007 109.316 79.6414 112.068C85.333 113.315 91.234 113.264 96.9029 111.918C96.9705 110.805 97.1541 109.703 97.4508 108.628Z" fill="#EE9E23"/>
<path d="M91.6602 108.276C90.6766 107.515 89.4755 107.085 88.2307 107.049C86.9858 107.013 85.7618 107.373 84.7356 108.076L84.2619 108.4C83.5585 108.887 82.742 109.186 81.8898 109.27C81.0376 109.354 80.1781 109.22 79.3926 108.88C79.4287 109.052 79.4628 109.22 79.4909 109.386C80.3162 109.692 81.2035 109.795 82.0772 109.686C82.9509 109.576 83.7852 109.258 84.5088 108.758L84.9825 108.436C85.9317 107.784 87.0645 107.449 88.2171 107.481C89.3696 107.513 90.482 107.91 91.3933 108.614C92.228 109.258 93.2312 109.648 94.2828 109.738C95.3343 109.828 96.3897 109.614 97.3224 109.122C97.3625 108.956 97.4047 108.79 97.4508 108.622C97.4609 108.59 97.4709 108.56 97.481 108.526C96.6026 109.087 95.5719 109.363 94.5299 109.317C93.4879 109.271 92.4856 108.905 91.6602 108.27V108.276Z" fill="#545454"/>
<path d="M86.6424 107.228C85.9609 107.398 85.3152 107.687 84.7356 108.082L84.2619 108.4C83.5585 108.887 82.742 109.186 81.8898 109.27C81.0376 109.354 80.1781 109.22 79.3926 108.88C79.4287 109.052 79.4628 109.22 79.4909 109.386C80.3162 109.692 81.2035 109.795 82.0772 109.686C82.9509 109.576 83.7852 109.258 84.5088 108.758L84.9825 108.436C85.6171 108.002 86.3367 107.707 87.094 107.57C86.9394 107.466 86.7909 107.35 86.6424 107.228Z" fill="#484748"/>
<path d="M94.7573 109.328C94.1721 109.326 93.5915 109.224 93.0412 109.026C92.704 109.026 92.3487 109.014 91.9673 109C92.7739 109.478 93.6902 109.74 94.6281 109.763C95.5659 109.785 96.4938 109.566 97.3224 109.128C97.3625 108.964 97.4047 108.798 97.4509 108.63C97.4609 108.598 97.4709 108.568 97.481 108.534C96.667 109.051 95.7224 109.326 94.7573 109.328Z" fill="#484748"/>
<path d="M83.8785 103.558C85.4878 103.963 87.1237 104.255 88.774 104.432C90.4078 104.632 92.0436 104.736 93.6814 104.796C94.0829 104.81 94.5003 104.824 94.9098 104.828C95.3193 104.832 95.7287 104.844 96.1382 104.84C96.5476 104.836 96.9571 104.84 97.3665 104.828L97.9827 104.814L98.2898 104.802H98.328C98.34 104.802 98.3601 104.802 98.34 104.802C98.319 104.798 98.2983 104.794 98.2778 104.788C98.2263 104.774 98.178 104.75 98.1353 104.718C98.0595 104.661 98.0064 104.579 97.9854 104.487C97.9645 104.395 97.977 104.298 98.0209 104.214C98.0315 104.196 98.0435 104.18 98.057 104.164V104.182L98.0369 104.216L97.9607 104.356L97.8161 104.64C97.6129 105.033 97.4469 105.444 97.3204 105.868C97.0922 106.692 96.9941 107.546 97.0293 108.4C97.501 107.686 97.8864 106.948 98.332 106.324C98.5548 106.012 98.7936 105.724 99.0485 105.426L99.2492 105.204L99.3456 105.088L99.3697 105.06L99.3817 105.046L99.4098 105.008C99.4501 104.95 99.485 104.888 99.5142 104.824C99.6406 104.553 99.6649 104.245 99.5824 103.958C99.4992 103.666 99.3141 103.414 99.0606 103.246C98.9307 103.161 98.7866 103.099 98.6351 103.064C98.5646 103.047 98.4927 103.036 98.4203 103.032H98.3179L98.0108 103.004L97.4087 102.96C97.0073 102.93 96.5918 102.908 96.1823 102.888C95.7729 102.868 95.3654 102.852 94.956 102.838C94.5465 102.824 94.1391 102.816 93.7296 102.81C92.0958 102.786 90.46 102.81 88.8201 102.928C87.1603 103.024 85.5091 103.234 83.8785 103.558Z" fill="#F8E782"/>
<path d="M87.949 113.366C85.1283 113.366 82.316 113.062 79.5612 112.458L79.226 112.384L79.246 112.044C79.4126 109.15 78.4585 106.303 76.5806 104.09C76.4785 103.968 76.4135 103.82 76.3933 103.662C76.373 103.504 76.3983 103.344 76.4662 103.201C76.5341 103.057 76.6417 102.936 76.7765 102.851C76.9112 102.766 77.0675 102.721 77.2269 102.722H99.3536C99.5065 102.722 99.6564 102.764 99.7872 102.843C99.918 102.922 100.025 103.034 100.096 103.169C100.167 103.304 100.2 103.456 100.19 103.608C100.181 103.76 100.131 103.907 100.044 104.032C98.4197 106.369 97.47 109.105 97.2983 111.942L97.2802 112.238L96.9912 112.306C94.1595 112.979 91.2613 113.333 88.3504 113.364L87.949 113.366ZM80.0609 111.748C85.4932 112.888 91.1093 112.836 96.5195 111.596C96.6014 110.556 96.7836 109.527 97.0634 108.522C97.5558 106.757 98.3399 105.086 99.3837 103.578C99.3881 103.573 99.3905 103.566 99.3905 103.559C99.3905 103.552 99.3881 103.545 99.3837 103.54C99.3808 103.534 99.3762 103.529 99.3705 103.526C99.3647 103.523 99.3581 103.521 99.3516 103.522H77.2269C77.2197 103.521 77.2125 103.523 77.2063 103.526C77.2001 103.53 77.1954 103.535 77.1927 103.542C77.1888 103.547 77.1867 103.554 77.1867 103.56C77.1867 103.566 77.1888 103.573 77.1927 103.578C78.3705 104.973 79.2202 106.613 79.6796 108.378C79.9656 109.478 80.0939 110.612 80.0609 111.748Z" fill="#F6BE1D"/>
<path d="M104.907 119.372C105.746 119.83 106.555 120.33 107.364 120.826C108.173 121.322 108.97 121.846 109.753 122.372C110.535 122.898 111.32 123.438 112.093 123.972C112.866 124.506 113.632 125.074 114.395 125.636L114.608 125.8L114.632 126.068C114.76 127.498 114.885 128.926 114.995 130.358C115.106 131.79 115.196 133.22 115.29 134.654C115.385 136.088 115.453 137.52 115.507 138.956C115.561 140.392 115.609 141.828 115.607 143.27C115.342 141.852 115.132 140.432 114.919 139.01C114.706 137.588 114.518 136.164 114.349 134.74C114.18 133.316 114.01 131.888 113.857 130.462C113.705 129.036 113.566 127.606 113.434 126.178L113.673 126.604C112.914 126.04 112.16 125.469 111.41 124.89C110.661 124.311 109.921 123.724 109.189 123.128C108.456 122.528 107.727 121.928 107.013 121.296C106.298 120.664 105.588 120.042 104.907 119.372Z" fill="#4E4F50"/>
<path d="M114.65 129.082C116.288 129.082 117.617 127.759 117.617 126.126C117.617 124.493 116.288 123.17 114.65 123.17C113.012 123.17 111.683 124.493 111.683 126.126C111.683 127.759 113.012 129.082 114.65 129.082Z" fill="#4E4F50"/>
<path d="M114.65 127.816C115.587 127.816 116.346 127.059 116.346 126.126C116.346 125.193 115.587 124.436 114.65 124.436C113.713 124.436 112.954 125.193 112.954 126.126C112.954 127.059 113.713 127.816 114.65 127.816Z" fill="#EE9E23"/>
<path d="M223.616 150.63C223.415 150.85 223.202 151.352 223.026 151.888L222.923 146.164C223.155 144.836 223.599 143.553 224.238 142.364L223.796 142.1C223.429 142.763 223.128 143.461 222.895 144.182L222.608 128.018C222.771 127.004 223.12 125.836 223.389 125.7L223.154 125.238C222.921 125.356 222.729 125.674 222.574 126.058L222.494 121.608L221.974 121.618L222.016 123.942C221.843 123.512 221.61 123.108 221.326 122.742L220.924 123.078C220.924 123.078 221.779 124.11 222.048 126.042L222.45 149.104C221.998 147.945 221.391 146.853 220.643 145.858L220.242 146.18C220.26 146.204 222.048 148.48 222.502 151.144L222.56 154.484H223.082L223.068 153.736C223.269 152.834 223.704 151.316 224.005 150.996L223.616 150.63Z" fill="#A4B5DD"/>
<path d="M209.407 131.814C209.293 131.53 209.885 130.902 211.071 129.658C212.209 128.458 212.779 127.868 213.401 127.458C213.975 127.082 215.28 126.258 217.064 126.172C218.397 126.114 217.972 126.572 221.185 127.208C221.942 127.36 222.773 127.498 223.192 128.162C223.236 128.234 223.542 128.732 223.359 129.162C223.132 129.688 222.341 129.696 221.069 129.95C220.573 130.05 221.4 129.908 217.948 130.862C216.153 131.36 215.256 131.608 214.869 131.692C214.481 131.776 209.787 132.772 209.407 131.814Z" fill="#C4CFE6"/>
<path d="M210.688 131.018C211.018 130.784 211.37 130.583 211.74 130.418C211.914 130.338 212.091 130.26 212.267 130.192C212.443 130.117 212.625 130.058 212.811 130.016C213.189 129.934 213.614 129.918 213.963 129.76C214.323 129.591 214.647 129.355 214.919 129.066C215.063 128.924 215.21 128.778 215.368 128.648C215.527 128.519 215.693 128.399 215.866 128.29C216.204 128.057 216.565 127.861 216.944 127.704C217.718 127.399 218.553 127.285 219.381 127.37L219.407 127.466C219.084 127.713 218.745 127.939 218.391 128.14C218.052 128.34 217.713 128.518 217.37 128.684C217.026 128.85 216.667 128.98 216.312 129.124C215.951 129.279 215.582 129.412 215.206 129.524C214.822 129.645 214.456 129.817 214.118 130.034C213.781 130.25 213.482 130.568 213.126 130.782C212.949 130.887 212.759 130.968 212.56 131.024C212.363 131.084 212.162 131.129 211.958 131.158C211.542 131.226 211.116 131.209 210.706 131.108L210.688 131.018Z" fill="#A4B5DD"/>
<path d="M220.643 146.66C220.882 146.504 220.625 145.98 220.186 143.84C219.67 141.33 219.806 140.994 219.312 140.24C218.853 139.534 218.257 139.148 217.064 138.374C216.048 137.735 214.973 137.194 213.853 136.758C211.866 135.916 211.944 136.158 210.899 135.638C208.624 134.5 207.687 133.064 207.235 133.356C207.035 133.482 207.069 133.838 207.32 135.222C207.721 137.506 207.938 138.646 208.151 139.038C208.891 140.39 210.114 140.996 211.764 141.816C213.849 142.848 214.142 142.416 215.884 143.268C218.891 144.712 220.141 147 220.643 146.66Z" fill="#DDE6F4"/>
<path d="M208.115 134.77C208.638 135.13 209.1 135.512 209.564 135.89L210.252 136.454C210.483 136.64 210.704 136.836 210.919 137.042C211.346 137.458 211.75 137.93 212.251 138.272C212.756 138.612 213.308 138.875 213.891 139.052C214.18 139.15 214.477 139.234 214.76 139.332C215.043 139.43 215.326 139.532 215.609 139.628C215.892 139.724 216.181 139.814 216.484 139.93C216.806 140.051 217.109 140.215 217.386 140.418C217.911 140.822 218.352 141.324 218.684 141.896C219.013 142.448 219.228 143.06 219.316 143.696L219.224 143.736C218.858 143.26 218.467 142.804 218.052 142.37C217.658 141.969 217.226 141.606 216.763 141.286C216.54 141.136 216.307 141.003 216.065 140.886L215.244 140.486C214.961 140.354 214.686 140.207 214.419 140.046C214.15 139.886 213.897 139.702 213.642 139.526C213.143 139.16 212.622 138.826 212.081 138.526C211.543 138.23 210.939 138.012 210.405 137.678C210.138 137.512 209.889 137.318 209.662 137.1C209.43 136.887 209.213 136.66 209.012 136.418C208.6 135.938 208.269 135.394 208.034 134.808L208.115 134.77Z" fill="#A4B5DD"/>
<path d="M223.558 151.554C223.036 151.378 223.501 148.754 223.722 147.49C224.106 145.326 224.296 144.244 225.055 143.26C226.245 141.716 227.985 141.186 228.8 140.938C230.324 140.474 230.54 140.868 232.505 140.358C234.513 139.836 235.348 139.158 235.669 139.486C236.04 139.886 235.325 141.262 234.545 142.182C233.764 143.102 232.989 143.478 231.333 144.382C229.3 145.494 228.282 146.05 227.879 146.33C224.77 148.506 224.136 151.75 223.558 151.554Z" fill="#C4CFE6"/>
<path d="M223.965 149.934C223.826 149.389 223.785 148.823 223.845 148.264C223.859 148.124 223.881 147.986 223.901 147.846C223.921 147.706 223.959 147.57 223.993 147.434C224.027 147.298 224.073 147.162 224.122 147.034C224.175 146.902 224.235 146.772 224.302 146.646C224.609 146.166 224.968 145.72 225.372 145.318C225.557 145.118 225.745 144.918 225.94 144.718C226.136 144.512 226.344 144.317 226.562 144.134C226.983 143.782 227.433 143.466 227.907 143.19C228.365 142.906 228.822 142.624 229.3 142.39C229.779 142.144 230.271 141.925 230.773 141.732C231.287 141.531 231.816 141.371 232.355 141.252L232.405 141.338C232.02 141.732 231.604 142.095 231.161 142.422C230.726 142.748 230.274 143.051 229.808 143.33C229.336 143.594 228.849 143.83 228.349 144.036C228.1 144.144 227.853 144.256 227.6 144.346C227.347 144.436 227.09 144.522 226.845 144.614C226.352 144.789 225.926 145.111 225.625 145.538C225.322 145.968 225.209 146.5 225.077 146.986C225.047 147.11 225.009 147.232 224.971 147.352C224.932 147.472 224.892 147.592 224.85 147.712L224.611 148.446C224.457 148.962 224.274 149.469 224.065 149.966L223.965 149.934Z" fill="#A4B5DD"/>
<path d="M223.678 142.486C223.477 142.358 223.263 142.03 223.802 138.588C224.182 136.17 224.372 134.96 224.678 134.274C225.424 132.59 226.52 131.674 228.714 129.838C229.766 128.958 232.455 126.706 233.001 127.184C233.429 127.558 232.349 129.464 232.044 130.004C230.946 131.94 230.318 131.848 229.671 133.28C228.999 134.772 229.563 135.132 228.838 137.344C228.571 138.158 228.236 139.18 227.433 140.206C226.337 141.6 224.423 142.972 223.678 142.486Z" fill="#DDE6F4"/>
<path d="M224.712 140.648C224.715 140.02 224.804 139.395 224.975 138.79C225.055 138.49 225.151 138.19 225.26 137.906C225.367 137.612 225.501 137.328 225.661 137.058C225.82 136.784 226.01 136.542 226.175 136.292C226.344 136.038 226.492 135.771 226.616 135.492C226.736 135.214 226.83 134.926 226.897 134.632C226.968 134.338 226.998 134.032 227.044 133.722C227.085 133.39 227.173 133.065 227.305 132.758C227.372 132.604 227.451 132.455 227.54 132.312C227.634 132.165 227.738 132.025 227.851 131.892C228.078 131.632 228.296 131.418 228.513 131.204C228.73 130.99 228.949 130.786 229.172 130.584C229.623 130.184 230.083 129.784 230.56 129.412C231.039 129.019 231.538 128.651 232.054 128.308L232.128 128.374C231.845 128.932 231.508 129.463 231.125 129.958C230.751 130.453 230.343 130.921 229.902 131.358C229.681 131.574 229.451 131.784 229.212 131.978C228.973 132.172 228.732 132.362 228.533 132.542C228.435 132.63 228.343 132.725 228.258 132.826C228.172 132.928 228.088 133.042 228.001 133.152C227.829 133.376 227.682 133.618 227.564 133.874C227.314 134.437 227.097 135.014 226.914 135.602C226.819 135.896 226.755 136.202 226.677 136.506C226.598 136.81 226.51 137.12 226.416 137.4C226.321 137.684 226.211 137.962 226.087 138.234C225.966 138.51 225.84 138.782 225.707 139.054C225.446 139.613 225.146 140.153 224.808 140.67L224.712 140.648Z" fill="#A4B5DD"/>
<path d="M222.143 121.786C221.577 121.596 221.639 119.758 221.683 118.468C221.713 117.618 221.805 117.188 221.767 116.146C221.747 115.563 221.691 114.981 221.601 114.404C221.362 112.922 220.986 112.34 220.768 111.5C220.348 109.9 220.808 108.486 221.476 106.442C222.173 104.304 222.751 104.1 222.849 102.502C222.893 101.788 222.837 100.87 223.182 100.76C223.405 100.688 223.702 100.984 223.931 101.258C226.321 104.11 226.761 108.97 226.761 108.97C226.905 110.57 226.986 111.45 226.719 112.662C226.466 113.816 226.171 114.026 225.43 116.262C224.854 117.998 224.949 118.124 224.555 118.958C223.927 120.296 222.741 121.986 222.143 121.786Z" fill="#DDE6F4"/>
<path d="M213.61 106.898C213.787 106.778 214.162 107.044 214.774 107.478C216.02 108.364 216.964 109.608 217.48 111.044C217.653 111.546 217.614 111.634 217.938 113.244C218.138 114.234 218.239 114.734 218.355 114.986C218.692 115.722 219.013 115.81 219.76 116.77C220.284 117.436 220.713 117.97 221.009 118.76C221.209 119.276 221.133 119.348 221.382 121.58C221.536 122.946 221.595 123.218 221.416 123.35C220.864 123.75 219.027 122.114 218.807 121.912C217.765 120.982 215.796 119.216 215.061 116.23C214.459 113.748 215.441 113.404 214.686 110.59C214.162 108.646 213.253 107.14 213.61 106.898Z" fill="#DDE6F4"/>
<path d="M215.499 108.824C215.939 109.326 216.269 109.914 216.468 110.55C216.573 110.867 216.65 111.193 216.697 111.524C216.748 111.855 216.756 112.191 216.719 112.524C216.683 112.848 216.625 113.148 216.589 113.458C216.556 113.769 216.556 114.083 216.589 114.394C216.665 115.018 216.857 115.621 217.157 116.174C217.295 116.454 217.462 116.724 217.606 117.01C217.751 117.296 217.885 117.566 218.032 117.83C218.176 118.088 218.334 118.337 218.508 118.576C218.684 118.814 218.857 119.046 219.046 119.26C219.234 119.474 219.447 119.708 219.664 119.956C219.881 120.204 220.077 120.46 220.266 120.724C220.362 120.854 220.451 120.99 220.535 121.124C220.619 121.258 220.705 121.402 220.788 121.542C220.952 121.824 221.107 122.11 221.243 122.408L221.163 122.47C220.645 122.091 220.15 121.682 219.68 121.246L218.969 120.634C218.717 120.425 218.476 120.203 218.247 119.97C218.01 119.717 217.802 119.44 217.626 119.142C217.453 118.849 217.301 118.544 217.173 118.228C216.93 117.62 216.75 116.99 216.635 116.346C216.513 115.702 216.408 115.068 216.268 114.44C216.201 114.124 216.113 113.808 216.043 113.484C215.973 113.164 215.921 112.84 215.888 112.514C215.858 112.204 215.84 111.914 215.816 111.616C215.792 111.318 215.754 111.016 215.714 110.718C215.631 110.118 215.513 109.518 215.415 108.858L215.499 108.824Z" fill="#A4B5DD"/>
<path d="M223.521 101.906C223.736 102.245 223.906 102.61 224.027 102.992C224.156 103.377 224.241 103.774 224.28 104.178C224.301 104.384 224.308 104.591 224.302 104.798C224.302 104.998 224.286 105.198 224.274 105.38C224.254 105.758 224.226 106.136 224.174 106.518C224.069 107.286 223.865 108.03 223.925 108.79C223.985 109.55 224.276 110.272 224.435 111.058C224.524 111.445 224.591 111.837 224.635 112.232C224.678 112.631 224.694 113.031 224.686 113.432C224.687 114.242 224.561 115.047 224.31 115.818C224.083 116.552 223.841 117.272 223.598 118.004C223.365 118.746 223.089 119.474 222.771 120.184L222.672 120.164C222.678 119.381 222.731 118.599 222.829 117.822C222.871 117.434 222.945 117.05 223.018 116.666C223.09 116.282 223.182 115.902 223.279 115.528C223.375 115.154 223.479 114.798 223.562 114.454C223.641 114.098 223.7 113.737 223.738 113.374C223.78 113.004 223.804 112.632 223.831 112.256C223.857 111.88 223.885 111.502 223.887 111.122C223.895 110.742 223.868 110.361 223.806 109.986C223.744 109.61 223.662 109.222 223.606 108.832C223.468 108.055 223.379 107.27 223.339 106.482C223.326 106.092 223.342 105.702 223.385 105.314C223.403 105.114 223.431 104.924 223.453 104.742C223.475 104.56 223.489 104.39 223.501 104.206C223.519 103.84 223.515 103.47 223.501 103.094C223.487 102.718 223.453 102.338 223.425 101.942L223.521 101.906Z" fill="#A4B5DD"/>
<path d="M223.178 125.556C222.576 124.668 223.925 122.836 224.302 122.32C225.015 121.306 226.015 120.526 227.174 120.082C227.662 119.906 228.429 119.826 229.962 119.666C231.313 119.526 231.329 119.578 232.501 119.466C234.571 119.266 235.606 119.152 236.331 118.968C236.897 118.824 237.985 118.508 238.868 118.884C239.097 118.982 239.227 119.084 239.243 119.216C239.277 119.484 238.804 119.738 238.24 120.046C238.24 120.046 237.236 120.606 236.201 121.208C235.506 121.579 234.863 122.039 234.288 122.576C233.535 123.31 233.613 123.566 232.883 124.234C232.387 124.678 231.825 125.041 231.217 125.312C230.183 125.758 229.37 125.694 228.096 125.686C224.358 125.656 223.57 126.14 223.178 125.556Z" fill="#DDE6F4"/>
<path d="M223.564 124.77C223.934 124.243 224.406 123.794 224.953 123.45C225.223 123.277 225.508 123.126 225.804 123C226.097 122.867 226.405 122.767 226.721 122.704C227.355 122.58 228.005 122.6 228.632 122.556C228.947 122.534 229.268 122.532 229.559 122.492C229.854 122.443 230.141 122.357 230.414 122.236C230.691 122.12 230.958 121.978 231.217 121.846C231.476 121.714 231.749 121.582 232.006 121.446C232.263 121.31 232.513 121.15 232.748 120.992C232.983 120.834 233.216 120.66 233.487 120.482C234.036 120.123 234.639 119.853 235.273 119.682C235.896 119.513 236.543 119.45 237.186 119.498L237.206 119.596C236.634 119.874 236.084 120.126 235.564 120.414C235.055 120.697 234.563 121.01 234.093 121.354C233.835 121.542 233.567 121.716 233.29 121.874C233.004 122.032 232.708 122.171 232.403 122.29C232.106 122.414 231.8 122.516 231.488 122.596C231.174 122.672 230.856 122.728 230.534 122.762C230.213 122.796 229.892 122.818 229.569 122.824C229.262 122.813 228.955 122.829 228.652 122.872C228.05 122.974 227.496 123.272 226.95 123.498C226.677 123.614 226.402 123.72 226.125 123.818C225.848 123.916 225.579 124.018 225.304 124.142C224.752 124.366 224.208 124.618 223.61 124.852L223.564 124.77Z" fill="#A4B5DD"/>
<path d="M230.854 172.502H214.594L212.851 165.2L218.08 152.396H227.369L232.598 165.2L230.854 172.502Z" fill="#B2C2E3"/>
<path opacity="0.47" d="M227.369 152.396H222.725V172.502H230.854L232.598 165.2L227.369 152.396Z" fill="url(#paint11_linear_16_244)"/>
<path d="M230.908 172.502H214.55L222.725 164.748L230.908 172.502Z" fill="url(#paint12_linear_16_244)"/>
<path d="M231.301 86.502H189.113V59.934H198.322V74.048C198.322 74.2934 198.37 74.5364 198.465 74.763C198.559 74.9897 198.697 75.1956 198.872 75.3689C199.046 75.5422 199.253 75.6796 199.481 75.7731C199.708 75.8667 199.952 75.9145 200.198 75.914L231.309 75.846L231.301 86.502Z" fill="#E7EBF6"/>
<path opacity="0.47" d="M231.959 75.866V87.118H188.382V59.248H198.298" stroke="url(#paint13_linear_16_244)" stroke-width="7" stroke-miterlimit="10"/>
<path opacity="0.47" d="M209.329 77.398H191.018V80.428H209.329V77.398Z" fill="url(#paint14_linear_16_244)"/>
<path opacity="0.47" d="M200.708 82.02H191.018V85.05H200.708V82.02Z" fill="url(#paint15_linear_16_244)"/>
<path opacity="0.47" d="M241.12 47.902H200.351C199.908 47.902 199.548 48.2602 199.548 48.702V73.774C199.548 74.2159 199.908 74.574 200.351 74.574H241.12C241.563 74.574 241.923 74.2159 241.923 73.774V48.702C241.923 48.2602 241.563 47.902 241.12 47.902Z" fill="url(#paint16_linear_16_244)"/>
<path d="M206.101 72.138C208.396 72.138 210.256 70.2845 210.256 67.998C210.256 65.7116 208.396 63.858 206.101 63.858C203.807 63.858 201.947 65.7116 201.947 67.998C201.947 70.2845 203.807 72.138 206.101 72.138Z" fill="#E7EBF6"/>
<path opacity="0.47" d="M206.101 72.138C208.396 72.138 210.256 70.2845 210.256 67.998C210.256 65.7116 208.396 63.858 206.101 63.858C203.807 63.858 201.947 65.7116 201.947 67.998C201.947 70.2845 203.807 72.138 206.101 72.138Z" stroke="url(#paint17_linear_16_244)" stroke-width="5" stroke-miterlimit="10"/>
<path opacity="0.47" d="M206.101 70.466C207.469 70.466 208.578 69.3611 208.578 67.998C208.578 66.635 207.469 65.53 206.101 65.53C204.734 65.53 203.625 66.635 203.625 67.998C203.625 69.3611 204.734 70.466 206.101 70.466Z" stroke="url(#paint18_linear_16_244)" stroke-width="5" stroke-miterlimit="10"/>
<path opacity="0.47" d="M212.318 68H215.053L216.802 65.53H224.455" stroke="url(#paint19_linear_16_244)" stroke-width="4" stroke-miterlimit="10"/>
<path opacity="0.47" d="M217.105 49.89H201.242V52.92H217.105V49.89Z" fill="url(#paint20_linear_16_244)"/>
<path opacity="0.47" d="M210.933 54.068H201.242V57.098H210.933V54.068Z" fill="url(#paint21_linear_16_244)"/>
<path opacity="0.47" d="M224.453 60.83H218.385V63.86H224.453V60.83Z" fill="url(#paint22_linear_16_244)"/>
<path d="M239.055 49.89H226.448V72.548H239.055V49.89Z" fill="#E7EBF6"/>
<path d="M234.334 51.892H228.266V54.922H234.334V51.892Z" fill="#A8B9DF"/>
<path d="M239.055 49.89H226.448V72.548H239.055V49.89Z" stroke="#A8B9DF" stroke-width="4" stroke-miterlimit="10"/>
<path d="M230.442 64.01H228.802V69.604H230.442V64.01Z" fill="#A8B9DF"/>
<path d="M232.594 63.052H230.954V69.644H232.594V63.052Z" fill="#A8B9DF"/>
<path d="M234.669 65.162H233.029V69.644H234.669V65.162Z" fill="#A8B9DF"/>
<path d="M236.698 64.01H235.059V69.644H236.698V64.01Z" fill="#A8B9DF"/>
<path d="M228.266 57.872H236.698" stroke="#A8B9DF" stroke-width="4" stroke-miterlimit="10"/>
<path d="M228.266 59.614H236.698" stroke="#A8B9DF" stroke-width="4" stroke-miterlimit="10"/>
<path opacity="0.47" d="M241.335 47.302H200.136C199.479 47.302 198.946 47.833 198.946 48.488V73.988C198.946 74.643 199.479 75.174 200.136 75.174H241.335C241.992 75.174 242.525 74.643 242.525 73.988V48.488C242.525 47.833 241.992 47.302 241.335 47.302Z" stroke="url(#paint23_linear_16_244)" stroke-width="7" stroke-miterlimit="10"/>
<path opacity="0.6" d="M206.101 79.588C212.525 79.588 217.733 74.399 217.733 67.998C217.733 61.597 212.525 56.408 206.101 56.408C199.678 56.408 194.47 61.597 194.47 67.998C194.47 74.399 199.678 79.588 206.101 79.588Z" fill="url(#paint24_radial_16_244)"/>
<path opacity="0.6" d="M206.101 75.54C210.282 75.54 213.67 72.1633 213.67 67.998C213.67 63.8327 210.282 60.456 206.101 60.456C201.921 60.456 198.533 63.8327 198.533 67.998C198.533 72.1633 201.921 75.54 206.101 75.54Z" fill="url(#paint25_radial_16_244)"/>
<path opacity="0.6" d="M206.101 72.364C208.521 72.364 210.483 70.4093 210.483 67.998C210.483 65.5867 208.521 63.632 206.101 63.632C203.682 63.632 201.72 65.5867 201.72 67.998C201.72 70.4093 203.682 72.364 206.101 72.364Z" fill="url(#paint26_radial_16_244)"/>
<path d="M206.101 70.332C207.395 70.332 208.444 69.287 208.444 67.998C208.444 66.709 207.395 65.664 206.101 65.664C204.808 65.664 203.759 66.709 203.759 67.998C203.759 69.287 204.808 70.332 206.101 70.332Z" fill="white"/>
<path d="M99.4559 51H61.6052C61.4988 51 61.3967 50.9579 61.3214 50.8829C61.2461 50.8078 61.2038 50.7061 61.2038 50.6V28.298C61.2038 28.1919 61.2461 28.0902 61.3214 28.0152C61.3967 27.9402 61.4988 27.898 61.6052 27.898H84.2077C84.2668 27.8982 84.3252 27.9113 84.3786 27.9366C84.432 27.9618 84.4792 27.9985 84.5168 28.044L89.2195 33.724C89.257 33.7695 89.3042 33.8062 89.3577 33.8315C89.4111 33.8567 89.4695 33.8699 89.5286 33.87H99.4559C99.5624 33.87 99.6645 33.9122 99.7398 33.9872C99.8151 34.0622 99.8574 34.1639 99.8574 34.27V50.6C99.8574 50.7061 99.8151 50.8078 99.7398 50.8829C99.6645 50.9579 99.5624 51 99.4559 51Z" fill="#E7EBF6"/>
<path opacity="0.47" d="M106.152 40.796H86.1907C85.969 40.796 85.7893 40.9751 85.7893 41.196V43.084C85.7893 43.3049 85.969 43.484 86.1907 43.484H106.152C106.373 43.484 106.553 43.3049 106.553 43.084V41.196C106.553 40.9751 106.373 40.796 106.152 40.796Z" fill="url(#paint27_linear_16_244)"/>
<path opacity="0.47" d="M96.377 45.498H86.1907C85.969 45.498 85.7893 45.6771 85.7893 45.898V47.786C85.7893 48.0069 85.969 48.186 86.1907 48.186H96.377C96.5987 48.186 96.7784 48.0069 96.7784 47.786V45.898C96.7784 45.6771 96.5987 45.498 96.377 45.498Z" fill="url(#paint28_linear_16_244)"/>
<path d="M74.1258 47.6H66.2798C66.1734 47.6 66.0713 47.5578 65.996 47.4828C65.9207 47.4078 65.8784 47.3061 65.8784 47.2V41.2C65.8784 41.0939 65.9207 40.9922 65.996 40.9171C66.0713 40.8421 66.1734 40.8 66.2798 40.8H76.444C76.5505 40.8 76.6526 40.8421 76.7279 40.9171C76.8032 40.9922 76.8454 41.0939 76.8454 41.2V45.44C76.8456 45.5014 76.8316 45.562 76.8044 45.6172C76.7773 45.6723 76.7377 45.7205 76.6889 45.758L74.3686 47.526C74.2978 47.5762 74.2126 47.6022 74.1258 47.6Z" stroke="#A8B9DF" stroke-width="4" stroke-miterlimit="10"/>
<path d="M74.465 32.064H66.2798C66.0581 32.064 65.8784 32.2431 65.8784 32.464V34.352C65.8784 34.5729 66.0581 34.752 66.2798 34.752H74.465C74.6867 34.752 74.8664 34.5729 74.8664 34.352V32.464C74.8664 32.2431 74.6867 32.064 74.465 32.064Z" fill="#A8B9DF"/>
<defs>
<linearGradient id="paint0_linear_16_244" x1="153.426" y1="164.482" x2="153.426" y2="96.538" gradientUnits="userSpaceOnUse">
<stop stop-color="white" stop-opacity="0"/>
<stop offset="0.01" stop-color="#FCFDFE" stop-opacity="0.02"/>
<stop offset="0.14" stop-color="#D1DDEF" stop-opacity="0.27"/>
<stop offset="0.28" stop-color="#ACC2E1" stop-opacity="0.5"/>
<stop offset="0.43" stop-color="#8EACD6" stop-opacity="0.68"/>
<stop offset="0.57" stop-color="#769ACE" stop-opacity="0.82"/>
<stop offset="0.71" stop-color="#658EC8" stop-opacity="0.92"/>
<stop offset="0.85" stop-color="#5B86C4" stop-opacity="0.98"/>
<stop offset="1" stop-color="#5884C3"/>
</linearGradient>
<linearGradient id="paint1_linear_16_244" x1="-nan" y1="-nan" x2="-nan" y2="-nan" gradientUnits="userSpaceOnUse">
<stop stop-color="#4058A6"/>
<stop offset="0.25" stop-color="#415AA8" stop-opacity="0.97"/>
<stop offset="0.49" stop-color="#4562AD" stop-opacity="0.89"/>
<stop offset="0.72" stop-color="#4C6FB5" stop-opacity="0.74"/>
<stop offset="0.96" stop-color="#5680C0" stop-opacity="0.54"/>
<stop offset="1" stop-color="#5884C3" stop-opacity="0.5"/>
</linearGradient>
<linearGradient id="paint2_linear_16_244" x1="-nan" y1="-nan" x2="-nan" y2="-nan" gradientUnits="userSpaceOnUse">
<stop stop-color="#4058A6"/>
<stop offset="0.25" stop-color="#415AA8" stop-opacity="0.97"/>
<stop offset="0.49" stop-color="#4562AD" stop-opacity="0.89"/>
<stop offset="0.72" stop-color="#4C6FB5" stop-opacity="0.74"/>
<stop offset="0.96" stop-color="#5680C0" stop-opacity="0.54"/>
<stop offset="1" stop-color="#5884C3" stop-opacity="0.5"/>
</linearGradient>
<linearGradient id="paint3_linear_16_244" x1="-nan" y1="-nan" x2="-nan" y2="-nan" gradientUnits="userSpaceOnUse">
<stop stop-color="#4058A6"/>
<stop offset="0.25" stop-color="#415AA8" stop-opacity="0.97"/>
<stop offset="0.49" stop-color="#4562AD" stop-opacity="0.89"/>
<stop offset="0.72" stop-color="#4C6FB5" stop-opacity="0.74"/>
<stop offset="0.96" stop-color="#5680C0" stop-opacity="0.54"/>
<stop offset="1" stop-color="#5884C3" stop-opacity="0.5"/>
</linearGradient>
<linearGradient id="paint4_linear_16_244" x1="-nan" y1="-nan" x2="-nan" y2="-nan" gradientUnits="userSpaceOnUse">
<stop stop-color="#4058A6"/>
<stop offset="0.25" stop-color="#415AA8" stop-opacity="0.97"/>
<stop offset="0.49" stop-color="#4562AD" stop-opacity="0.89"/>
<stop offset="0.72" stop-color="#4C6FB5" stop-opacity="0.74"/>
<stop offset="0.96" stop-color="#5680C0" stop-opacity="0.54"/>
<stop offset="1" stop-color="#5884C3" stop-opacity="0.5"/>
</linearGradient>
<linearGradient id="paint5_linear_16_244" x1="-nan" y1="-nan" x2="-nan" y2="-nan" gradientUnits="userSpaceOnUse">
<stop stop-color="#4058A6"/>
<stop offset="0.25" stop-color="#415AA8" stop-opacity="0.97"/>
<stop offset="0.49" stop-color="#4562AD" stop-opacity="0.89"/>
<stop offset="0.72" stop-color="#4C6FB5" stop-opacity="0.74"/>
<stop offset="0.96" stop-color="#5680C0" stop-opacity="0.54"/>
<stop offset="1" stop-color="#5884C3" stop-opacity="0.5"/>
</linearGradient>
<linearGradient id="paint6_linear_16_244" x1="131.494" y1="131.764" x2="140.598" y2="131.764" gradientUnits="userSpaceOnUse">
<stop stop-color="#2433C4"/>
<stop offset="0.23" stop-color="#293AC5" stop-opacity="0.98"/>
<stop offset="0.47" stop-color="#3850C9" stop-opacity="0.93"/>
<stop offset="0.72" stop-color="#5275D0" stop-opacity="0.84"/>
<stop offset="0.97" stop-color="#75A8DA" stop-opacity="0.71"/>
<stop offset="1" stop-color="#79AEDB" stop-opacity="0.7"/>
</linearGradient>
<linearGradient id="paint7_linear_16_244" x1="143.442" y1="129.218" x2="152.547" y2="129.218" gradientUnits="userSpaceOnUse">
<stop stop-color="#2433C4"/>
<stop offset="0.23" stop-color="#293AC5" stop-opacity="0.98"/>
<stop offset="0.47" stop-color="#3850C9" stop-opacity="0.93"/>
<stop offset="0.72" stop-color="#5275D0" stop-opacity="0.84"/>
<stop offset="0.97" stop-color="#75A8DA" stop-opacity="0.71"/>
<stop offset="1" stop-color="#79AEDB" stop-opacity="0.7"/>
</linearGradient>
<linearGradient id="paint8_linear_16_244" x1="154.961" y1="135.074" x2="164.066" y2="135.074" gradientUnits="userSpaceOnUse">
<stop stop-color="#2433C4"/>
<stop offset="0.23" stop-color="#293AC5" stop-opacity="0.98"/>
<stop offset="0.47" stop-color="#3850C9" stop-opacity="0.93"/>
<stop offset="0.72" stop-color="#5275D0" stop-opacity="0.84"/>
<stop offset="0.97" stop-color="#75A8DA" stop-opacity="0.71"/>
<stop offset="1" stop-color="#79AEDB" stop-opacity="0.7"/>
</linearGradient>
<linearGradient id="paint9_linear_16_244" x1="166.234" y1="131.876" x2="175.338" y2="131.876" gradientUnits="userSpaceOnUse">
<stop stop-color="#2433C4"/>
<stop offset="0.23" stop-color="#293AC5" stop-opacity="0.98"/>
<stop offset="0.47" stop-color="#3850C9" stop-opacity="0.93"/>
<stop offset="0.72" stop-color="#5275D0" stop-opacity="0.84"/>
<stop offset="0.97" stop-color="#75A8DA" stop-opacity="0.71"/>
<stop offset="1" stop-color="#79AEDB" stop-opacity="0.7"/>
</linearGradient>
<linearGradient id="paint10_linear_16_244" x1="129.407" y1="83.6027" x2="157.442" y2="73.262" gradientUnits="userSpaceOnUse">
<stop stop-color="#2433C4"/>
<stop offset="0.23" stop-color="#293AC5" stop-opacity="0.98"/>
<stop offset="0.47" stop-color="#3850C9" stop-opacity="0.93"/>
<stop offset="0.72" stop-color="#5275D0" stop-opacity="0.84"/>
<stop offset="0.97" stop-color="#75A8DA" stop-opacity="0.71"/>
<stop offset="1" stop-color="#79AEDB" stop-opacity="0.7"/>
</linearGradient>
<linearGradient id="paint11_linear_16_244" x1="222.725" y1="162.45" x2="232.598" y2="162.45" gradientUnits="userSpaceOnUse">
<stop stop-color="#5884C3"/>
<stop offset="0.15" stop-color="#5B86C4" stop-opacity="0.98"/>
<stop offset="0.29" stop-color="#658EC8" stop-opacity="0.92"/>
<stop offset="0.43" stop-color="#769ACE" stop-opacity="0.82"/>
<stop offset="0.57" stop-color="#8EACD6" stop-opacity="0.68"/>
<stop offset="0.72" stop-color="#ACC2E1" stop-opacity="0.5"/>
<stop offset="0.86" stop-color="#D1DDEF" stop-opacity="0.27"/>
<stop offset="0.99" stop-color="#FCFDFE" stop-opacity="0.02"/>
<stop offset="1" stop-color="white" stop-opacity="0"/>
</linearGradient>
<linearGradient id="paint12_linear_16_244" x1="222.729" y1="179.568" x2="222.729" y2="163.268" gradientUnits="userSpaceOnUse">
<stop stop-color="white" stop-opacity="0.6"/>
<stop offset="0.02" stop-color="#F8FAFD" stop-opacity="0.62"/>
<stop offset="0.26" stop-color="#B2C6E3" stop-opacity="0.78"/>
<stop offset="0.5" stop-color="#80A1D1" stop-opacity="0.9"/>
<stop offset="0.75" stop-color="#628BC7" stop-opacity="0.98"/>
<stop offset="1" stop-color="#5884C3"/>
</linearGradient>
<linearGradient id="paint13_linear_16_244" x1="187.68" y1="73.182" x2="232.662" y2="73.182" gradientUnits="userSpaceOnUse">
<stop stop-color="#4058A6"/>
<stop offset="0.25" stop-color="#415AA8" stop-opacity="0.97"/>
<stop offset="0.49" stop-color="#4562AD" stop-opacity="0.89"/>
<stop offset="0.72" stop-color="#4C6FB5" stop-opacity="0.74"/>
<stop offset="0.96" stop-color="#5680C0" stop-opacity="0.54"/>
<stop offset="1" stop-color="#5884C3" stop-opacity="0.5"/>
</linearGradient>
<linearGradient id="paint14_linear_16_244" x1="191.018" y1="78.914" x2="209.329" y2="78.914" gradientUnits="userSpaceOnUse">
<stop stop-color="#4058A6"/>
<stop offset="0.25" stop-color="#415AA8" stop-opacity="0.97"/>
<stop offset="0.49" stop-color="#4562AD" stop-opacity="0.89"/>
<stop offset="0.72" stop-color="#4C6FB5" stop-opacity="0.74"/>
<stop offset="0.96" stop-color="#5680C0" stop-opacity="0.54"/>
<stop offset="1" stop-color="#5884C3" stop-opacity="0.5"/>
</linearGradient>
<linearGradient id="paint15_linear_16_244" x1="191.018" y1="83.534" x2="200.708" y2="83.534" gradientUnits="userSpaceOnUse">
<stop stop-color="#4058A6"/>
<stop offset="0.25" stop-color="#415AA8" stop-opacity="0.97"/>
<stop offset="0.49" stop-color="#4562AD" stop-opacity="0.89"/>
<stop offset="0.72" stop-color="#4C6FB5" stop-opacity="0.74"/>
<stop offset="0.96" stop-color="#5680C0" stop-opacity="0.54"/>
<stop offset="1" stop-color="#5884C3" stop-opacity="0.5"/>
</linearGradient>
<linearGradient id="paint16_linear_16_244" x1="199.548" y1="61.238" x2="241.923" y2="61.238" gradientUnits="userSpaceOnUse">
<stop stop-color="#5884C3"/>
<stop offset="0.15" stop-color="#5B86C4" stop-opacity="0.98"/>
<stop offset="0.29" stop-color="#658EC8" stop-opacity="0.92"/>
<stop offset="0.43" stop-color="#769ACE" stop-opacity="0.82"/>
<stop offset="0.57" stop-color="#8EACD6" stop-opacity="0.68"/>
<stop offset="0.72" stop-color="#ACC2E1" stop-opacity="0.5"/>
<stop offset="0.86" stop-color="#D1DDEF" stop-opacity="0.27"/>
<stop offset="0.99" stop-color="#FCFDFE" stop-opacity="0.02"/>
<stop offset="1" stop-color="white" stop-opacity="0"/>
</linearGradient>
<linearGradient id="paint17_linear_16_244" x1="201.443" y1="67.998" x2="210.758" y2="67.998" gradientUnits="userSpaceOnUse">
<stop stop-color="#4058A6"/>
<stop offset="0.25" stop-color="#415AA8" stop-opacity="0.97"/>
<stop offset="0.49" stop-color="#4562AD" stop-opacity="0.89"/>
<stop offset="0.72" stop-color="#4C6FB5" stop-opacity="0.74"/>
<stop offset="0.96" stop-color="#5680C0" stop-opacity="0.54"/>
<stop offset="1" stop-color="#5884C3" stop-opacity="0.5"/>
</linearGradient>
<linearGradient id="paint18_linear_16_244" x1="203.121" y1="67.998" x2="209.08" y2="67.998" gradientUnits="userSpaceOnUse">
<stop stop-color="#4058A6"/>
<stop offset="0.25" stop-color="#415AA8" stop-opacity="0.97"/>
<stop offset="0.49" stop-color="#4562AD" stop-opacity="0.89"/>
<stop offset="0.72" stop-color="#4C6FB5" stop-opacity="0.74"/>
<stop offset="0.96" stop-color="#5680C0" stop-opacity="0.54"/>
<stop offset="1" stop-color="#5884C3" stop-opacity="0.5"/>
</linearGradient>
<linearGradient id="paint19_linear_16_244" x1="212.318" y1="66.764" x2="224.453" y2="66.764" gradientUnits="userSpaceOnUse">
<stop stop-color="#4058A6"/>
<stop offset="0.25" stop-color="#415AA8" stop-opacity="0.97"/>
<stop offset="0.49" stop-color="#4562AD" stop-opacity="0.89"/>
<stop offset="0.72" stop-color="#4C6FB5" stop-opacity="0.74"/>
<stop offset="0.96" stop-color="#5680C0" stop-opacity="0.54"/>
<stop offset="1" stop-color="#5884C3" stop-opacity="0.5"/>
</linearGradient>
<linearGradient id="paint20_linear_16_244" x1="201.242" y1="51.406" x2="217.107" y2="51.406" gradientUnits="userSpaceOnUse">
<stop stop-color="#5884C3" stop-opacity="0.5"/>
<stop offset="0.04" stop-color="#5680C0" stop-opacity="0.54"/>
<stop offset="0.28" stop-color="#4C6FB5" stop-opacity="0.74"/>
<stop offset="0.51" stop-color="#4562AD" stop-opacity="0.89"/>
<stop offset="0.75" stop-color="#415AA8" stop-opacity="0.97"/>
<stop offset="1" stop-color="#4058A6"/>
</linearGradient>
<linearGradient id="paint21_linear_16_244" x1="201.242" y1="55.584" x2="210.933" y2="55.584" gradientUnits="userSpaceOnUse">
<stop stop-color="#5884C3" stop-opacity="0.5"/>
<stop offset="0.04" stop-color="#5680C0" stop-opacity="0.54"/>
<stop offset="0.28" stop-color="#4C6FB5" stop-opacity="0.74"/>
<stop offset="0.51" stop-color="#4562AD" stop-opacity="0.89"/>
<stop offset="0.75" stop-color="#415AA8" stop-opacity="0.97"/>
<stop offset="1" stop-color="#4058A6"/>
</linearGradient>
<linearGradient id="paint22_linear_16_244" x1="218.385" y1="62.344" x2="224.453" y2="62.344" gradientUnits="userSpaceOnUse">
<stop stop-color="#5884C3" stop-opacity="0.5"/>
<stop offset="0.04" stop-color="#5680C0" stop-opacity="0.54"/>
<stop offset="0.28" stop-color="#4C6FB5" stop-opacity="0.74"/>
<stop offset="0.51" stop-color="#4562AD" stop-opacity="0.89"/>
<stop offset="0.75" stop-color="#415AA8" stop-opacity="0.97"/>
<stop offset="1" stop-color="#4058A6"/>
</linearGradient>
<linearGradient id="paint23_linear_16_244" x1="198.243" y1="61.238" x2="243.228" y2="61.238" gradientUnits="userSpaceOnUse">
<stop stop-color="#4058A6"/>
<stop offset="0.25" stop-color="#415AA8" stop-opacity="0.97"/>
<stop offset="0.49" stop-color="#4562AD" stop-opacity="0.89"/>
<stop offset="0.72" stop-color="#4C6FB5" stop-opacity="0.74"/>
<stop offset="0.96" stop-color="#5680C0" stop-opacity="0.54"/>
<stop offset="1" stop-color="#5884C3" stop-opacity="0.5"/>
</linearGradient>
<radialGradient id="paint24_radial_16_244" cx="0" cy="0" r="1" gradientUnits="userSpaceOnUse" gradientTransform="translate(206.099 67.998) scale(11.6314 11.59)">
<stop stop-color="white"/>
<stop offset="0.13" stop-color="white" stop-opacity="0.98"/>
<stop offset="0.26" stop-color="white" stop-opacity="0.94"/>
<stop offset="0.38" stop-color="white" stop-opacity="0.86"/>
<stop offset="0.5" stop-color="white" stop-opacity="0.75"/>
<stop offset="0.63" stop-color="white" stop-opacity="0.61"/>
<stop offset="0.75" stop-color="white" stop-opacity="0.44"/>
<stop offset="0.87" stop-color="white" stop-opacity="0.24"/>
<stop offset="0.99" stop-color="white" stop-opacity="0.01"/>
<stop offset="1" stop-color="white" stop-opacity="0"/>
</radialGradient>
<radialGradient id="paint25_radial_16_244" cx="0" cy="0" r="1" gradientUnits="userSpaceOnUse" gradientTransform="translate(206.099 67.998) scale(7.56894 7.542)">
<stop stop-color="white"/>
<stop offset="0.13" stop-color="white" stop-opacity="0.98"/>
<stop offset="0.26" stop-color="white" stop-opacity="0.94"/>
<stop offset="0.38" stop-color="white" stop-opacity="0.86"/>
<stop offset="0.5" stop-color="white" stop-opacity="0.75"/>
<stop offset="0.63" stop-color="white" stop-opacity="0.61"/>
<stop offset="0.75" stop-color="white" stop-opacity="0.44"/>
<stop offset="0.87" stop-color="white" stop-opacity="0.24"/>
<stop offset="0.99" stop-color="white" stop-opacity="0.01"/>
<stop offset="1" stop-color="white" stop-opacity="0"/>
</radialGradient>
<radialGradient id="paint26_radial_16_244" cx="0" cy="0" r="1" gradientUnits="userSpaceOnUse" gradientTransform="translate(206.099 67.998) scale(4.3816 4.366)">
<stop stop-color="white"/>
<stop offset="0.13" stop-color="white" stop-opacity="0.98"/>
<stop offset="0.26" stop-color="white" stop-opacity="0.94"/>
<stop offset="0.38" stop-color="white" stop-opacity="0.86"/>
<stop offset="0.5" stop-color="white" stop-opacity="0.75"/>
<stop offset="0.63" stop-color="white" stop-opacity="0.61"/>
<stop offset="0.75" stop-color="white" stop-opacity="0.44"/>
<stop offset="0.87" stop-color="white" stop-opacity="0.24"/>
<stop offset="0.99" stop-color="white" stop-opacity="0.01"/>
<stop offset="1" stop-color="white" stop-opacity="0"/>
</radialGradient>
<linearGradient id="paint27_linear_16_244" x1="85.7893" y1="42.14" x2="106.553" y2="42.14" gradientUnits="userSpaceOnUse">
<stop stop-color="#5884C3"/>
<stop offset="0.15" stop-color="#5B86C4" stop-opacity="0.98"/>
<stop offset="0.29" stop-color="#658EC8" stop-opacity="0.92"/>
<stop offset="0.43" stop-color="#769ACE" stop-opacity="0.82"/>
<stop offset="0.57" stop-color="#8EACD6" stop-opacity="0.68"/>
<stop offset="0.72" stop-color="#ACC2E1" stop-opacity="0.5"/>
<stop offset="0.86" stop-color="#D1DDEF" stop-opacity="0.27"/>
<stop offset="0.99" stop-color="#FCFDFE" stop-opacity="0.02"/>
<stop offset="1" stop-color="white" stop-opacity="0"/>
</linearGradient>
<linearGradient id="paint28_linear_16_244" x1="85.7893" y1="46.842" x2="96.7784" y2="46.842" gradientUnits="userSpaceOnUse">
<stop stop-color="#5884C3"/>
<stop offset="0.15" stop-color="#5B86C4" stop-opacity="0.98"/>
<stop offset="0.29" stop-color="#658EC8" stop-opacity="0.92"/>
<stop offset="0.43" stop-color="#769ACE" stop-opacity="0.82"/>
<stop offset="0.57" stop-color="#8EACD6" stop-opacity="0.68"/>
<stop offset="0.72" stop-color="#ACC2E1" stop-opacity="0.5"/>
<stop offset="0.86" stop-color="#D1DDEF" stop-opacity="0.27"/>
<stop offset="0.99" stop-color="#FCFDFE" stop-opacity="0.02"/>
<stop offset="1" stop-color="white" stop-opacity="0"/>
</linearGradient>
</defs>
</svg>
