<svg width="45" height="46" viewBox="0 0 45 46" fill="none" xmlns="http://www.w3.org/2000/svg">
<path d="M13.05 0.5H31.95C39.15 0.5 45 6.35 45 13.55V32.45C45 35.9111 43.6251 39.2304 41.1777 41.6777C38.7304 44.1251 35.4111 45.5 31.95 45.5H13.05C5.85 45.5 0 39.65 0 32.45V13.55C0 10.0889 1.37491 6.76961 3.82226 4.32226C6.26961 1.87491 9.58892 0.5 13.05 0.5ZM12.6 5C10.4517 5 8.39148 5.85339 6.87244 7.37244C5.35339 8.89148 4.5 10.9517 4.5 13.1V32.9C4.5 37.3775 8.1225 41 12.6 41H32.4C34.5483 41 36.6085 40.1466 38.1276 38.6276C39.6466 37.1085 40.5 35.0483 40.5 32.9V13.1C40.5 8.6225 36.8775 5 32.4 5H12.6ZM34.3125 8.375C35.0584 8.375 35.7738 8.67132 36.3012 9.19876C36.8287 9.72621 37.125 10.4416 37.125 11.1875C37.125 11.9334 36.8287 12.6488 36.3012 13.1762C35.7738 13.7037 35.0584 14 34.3125 14C33.5666 14 32.8512 13.7037 32.3238 13.1762C31.7963 12.6488 31.5 11.9334 31.5 11.1875C31.5 10.4416 31.7963 9.72621 32.3238 9.19876C32.8512 8.67132 33.5666 8.375 34.3125 8.375ZM22.5 11.75C25.4837 11.75 28.3452 12.9353 30.455 15.045C32.5647 17.1548 33.75 20.0163 33.75 23C33.75 25.9837 32.5647 28.8452 30.455 30.955C28.3452 33.0647 25.4837 34.25 22.5 34.25C19.5163 34.25 16.6548 33.0647 14.545 30.955C12.4353 28.8452 11.25 25.9837 11.25 23C11.25 20.0163 12.4353 17.1548 14.545 15.045C16.6548 12.9353 19.5163 11.75 22.5 11.75ZM22.5 16.25C20.7098 16.25 18.9929 16.9612 17.727 18.227C16.4612 19.4929 15.75 21.2098 15.75 23C15.75 24.7902 16.4612 26.5071 17.727 27.773C18.9929 29.0388 20.7098 29.75 22.5 29.75C24.2902 29.75 26.0071 29.0388 27.273 27.773C28.5388 26.5071 29.25 24.7902 29.25 23C29.25 21.2098 28.5388 19.4929 27.273 18.227C26.0071 16.9612 24.2902 16.25 22.5 16.25Z" fill="white"/>
</svg>
