<svg width="228" height="153" viewBox="0 0 228 153" fill="none" xmlns="http://www.w3.org/2000/svg">
<g clip-path="url(#clip0_22_1063)">
<path d="M228 148.222C228 149.415 217.57 150.506 200.325 151.344C197.19 151.494 193.828 151.637 190.265 151.779C187.184 151.896 183.956 152.006 180.581 152.108C177.309 152.205 173.913 152.295 170.393 152.38C159.271 152.645 146.98 152.837 133.92 152.933C130.75 152.957 127.539 152.975 124.284 152.987C120.894 153 117.466 153.006 114 153.004C51.0389 153.004 0 150.867 0 148.229C0 145.591 51.0389 143.44 114 143.44C141.105 143.44 165.996 143.836 185.563 144.498L187.702 144.57H187.715C212.36 145.453 228 146.759 228 148.222Z" fill="#3F3D56"/>
<path opacity="0.1" d="M228 148.222C228 149.415 217.57 150.506 200.325 151.344C197.19 151.494 193.828 151.637 190.265 151.779C187.184 151.896 183.956 152.006 180.581 152.108C177.309 152.205 173.913 152.295 170.393 152.38C159.271 152.645 146.98 152.837 133.92 152.933C130.75 152.957 127.539 152.975 124.284 152.987C120.894 153 117.466 153.006 114 153.004C51.0389 153.004 0 150.867 0 148.229C0 145.591 51.0389 143.44 114 143.44C141.105 143.44 165.996 143.836 185.563 144.498L187.702 144.57H187.715C212.36 145.453 228 146.759 228 148.222Z" fill="black"/>
<path d="M228 146.431C228 147.624 217.57 148.714 200.325 149.55C197.19 149.702 193.828 149.846 190.265 149.985C187.184 150.103 183.956 150.212 180.581 150.314C177.309 150.411 173.913 150.502 170.393 150.586C159.271 150.852 146.98 151.043 133.92 151.139C130.75 151.161 127.539 151.179 124.284 151.193C120.894 151.205 117.466 151.211 114 151.211C51.0389 151.211 0 149.073 0 146.435C0 143.797 51.0389 141.657 114 141.657C141.105 141.657 165.996 142.054 185.563 142.715L187.702 142.787H187.715C212.36 143.662 228 144.968 228 146.431Z" fill="#3F3D56"/>
<path d="M228 146.429C228 147.621 217.57 148.712 200.325 149.552C197.19 149.702 193.828 149.846 190.265 149.987C187.184 150.102 183.956 150.212 180.581 150.316C177.309 150.413 173.914 150.504 170.395 150.588C159.271 150.854 146.98 151.045 133.92 151.141C130.752 151.163 127.54 151.18 124.284 151.193C120.894 151.206 117.466 151.214 114 151.215C51.0389 151.215 0 149.075 0 146.426C0 144.152 37.9833 142.247 88.8439 141.768C91.7446 141.739 94.678 141.716 97.6441 141.699C102.984 141.668 108.436 141.652 114 141.651C119.564 141.649 125.016 141.665 130.356 141.699C133.328 141.718 136.26 141.741 139.154 141.768C156.439 141.929 172.24 142.258 185.561 142.709L187.7 142.781H187.715C212.36 143.662 228 144.968 228 146.429Z" fill="#3F3D56"/>
<path d="M169.26 57.2942L151.62 58.1083L168.953 54.5669C168.683 53.005 168.245 51.4768 167.647 50.0089C170.089 48.229 172.139 45.966 173.67 43.3605C175.201 40.7549 176.18 37.8624 176.547 34.8624C176.914 31.8623 176.661 28.8188 175.804 25.9207C174.947 23.0225 173.503 20.3316 171.563 18.0149C169.623 15.6981 167.227 13.8051 164.526 12.4531C161.824 11.1011 158.873 10.319 155.857 10.1555C152.84 9.99194 149.822 10.4504 146.99 11.5023C144.158 12.5542 141.572 14.1772 139.393 16.2706L151.694 32.1603L137.294 18.5997C135.451 20.9741 134.112 23.6995 133.359 26.6094C132.605 29.5193 132.452 32.5524 132.91 35.5232L145.515 39.0059L133.332 37.5998C133.585 38.5862 133.905 39.5541 134.289 40.4969C130.287 43.4009 127.376 47.5666 126.024 52.325C124.672 57.0834 124.958 62.1582 126.836 66.7344C123.778 68.9479 121.339 71.9097 119.753 75.3363C118.167 78.763 117.486 82.5396 117.777 86.3047C118.067 90.0698 119.319 93.6972 121.412 96.8396C123.506 99.9819 126.37 102.534 129.732 104.251C129.215 104.971 128.827 105.775 128.587 106.628C128.221 107.866 128.191 109.18 128.502 110.433C127.588 111.343 126.922 112.472 126.569 113.712C126.215 114.953 126.186 116.263 126.483 117.518C125.569 118.428 124.903 119.557 124.55 120.797C124.196 122.038 124.167 123.348 124.465 124.603C123.55 125.512 122.884 126.641 122.53 127.882C122.177 129.123 122.148 130.433 122.446 131.688C121.521 132.59 120.853 133.723 120.512 134.969C119.6 138.168 120.842 141.331 123.288 142.027C125.733 142.724 128.452 140.693 129.364 137.491C129.73 136.253 129.76 134.94 129.451 133.687C130.364 132.776 131.029 131.647 131.383 130.407C131.736 129.167 131.766 127.857 131.47 126.601C132.383 125.691 133.048 124.562 133.402 123.321C133.755 122.08 133.785 120.77 133.489 119.514C134.402 118.604 135.068 117.475 135.421 116.235C135.775 114.995 135.804 113.684 135.508 112.429C136.433 111.528 137.1 110.395 137.44 109.149C137.683 108.31 137.779 107.435 137.722 106.563C141.497 106.912 145.297 106.281 148.756 104.732C152.216 103.183 155.218 100.768 157.473 97.7198C159.727 94.6715 161.158 91.0932 161.628 87.3303C162.097 83.5674 161.589 79.7469 160.153 76.2378C163.122 74.0863 165.509 71.2282 167.098 67.9217C168.686 64.6153 169.425 60.9649 169.249 57.3008L169.26 57.2942Z" fill="#F2F2F2"/>
<path opacity="0.1" d="M114 149.143C128.694 149.143 140.605 147.883 140.605 146.329C140.605 144.774 128.694 143.514 114 143.514C99.3064 143.514 87.3949 144.774 87.3949 146.329C87.3949 147.883 99.3064 149.143 114 149.143Z" fill="black"/>
<path d="M114 146.84C143.245 146.84 166.953 123.12 166.953 93.86C166.953 64.6 143.245 40.88 114 40.88C84.7546 40.88 61.0466 64.6 61.0466 93.86C61.0466 123.12 84.7546 146.84 114 146.84Z" fill="#3F3D56"/>
<path opacity="0.1" d="M158.001 93.8579C158.001 118.171 138.299 137.881 114 137.881C112.605 137.881 111.224 137.818 109.866 137.689C87.9889 135.646 70.7605 117.581 70.0273 95.3424C70.0099 94.8475 70.0012 94.3527 70.0012 93.8579C70.0012 92.7463 70.0426 91.6435 70.1252 90.5494C71.8156 67.7836 90.8149 49.8457 114.002 49.8457C134.017 49.8457 150.909 63.2148 156.245 81.5118C156.339 81.8405 156.432 82.1648 156.522 82.5022C156.848 83.7357 157.123 84.9901 157.348 86.2657C157.783 88.773 158.001 91.3131 158.001 93.8579Z" fill="black"/>
<path opacity="0.4" d="M158.001 93.8578C158.001 118.171 138.299 137.881 114 137.881C90.1971 137.881 70.8062 118.966 70.0251 95.3423C75.042 95.4859 80.1524 95.3205 84.893 93.6858C90.0317 91.9162 94.4307 88.5293 99.1626 85.8498C111.874 78.6777 127.045 76.747 141.567 78.1662C146.499 78.6473 151.613 79.6485 156.243 81.49C157.412 85.5046 158.004 89.6653 158.001 93.8469V93.8578Z" fill="#585EC7"/>
<path opacity="0.4" d="M158.001 93.8579C158.001 118.171 138.299 137.881 114 137.881C112.605 137.881 111.224 137.818 109.866 137.689C102.732 134.164 96.6857 128.768 92.3727 122.077C88.0597 115.387 85.6409 107.651 85.3738 99.6935C90.3907 99.8372 95.5011 99.6717 100.242 98.0371C105.383 96.2674 109.779 92.8805 114.511 90.2011C127.108 83.0921 142.117 81.1353 156.519 82.4804C156.846 83.7139 157.121 84.9684 157.346 86.2439C157.783 88.7583 158.002 91.3058 158.001 93.8579Z" fill="#585EC7"/>
<path d="M158.001 93.8578C158.001 118.171 138.299 137.881 114 137.881C89.701 137.881 69.999 118.171 69.999 93.8578C69.999 92.7463 70.0404 91.6434 70.123 90.5493C73.593 90.9734 76.9796 91.9163 80.1698 93.3463C85.3303 95.6645 89.9207 99.2233 95.2879 101.01C99.2039 102.316 103.368 102.628 107.488 102.752C112.634 102.915 117.888 102.784 122.754 101.106C127.893 99.3365 132.29 95.9496 137.024 93.281C143.318 89.7287 150.221 87.4628 157.346 86.2526C157.782 88.7641 158.001 91.3086 158.001 93.8578Z" fill="#585EC7"/>
<path d="M214.947 8.73502L210.976 11.2534L213.387 6.86744C212.706 6.32328 211.864 6.02151 210.994 6.00984H210.928C210.653 6.01369 210.378 5.9933 210.106 5.94889L208.759 6.80214L209.336 5.75299C208.383 5.41982 207.559 4.79449 206.982 3.96595L204.573 5.48961L206.096 2.72089C204.687 1.02962 202.789 -0.00646973 200.699 -0.00646973C198.195 -0.00646973 195.965 1.48237 194.524 3.80487C194.099 4.4996 193.497 5.06932 192.78 5.45619C192.063 5.84306 191.257 6.03332 190.443 6.00766H190.308C187.543 6.00766 185.304 9.14423 185.304 13.0143C185.304 16.8845 187.545 20.0189 190.308 20.0189C190.915 20.0161 191.512 19.8668 192.049 19.5835C193.852 18.6454 196.219 18.6258 198.108 19.4638C198.917 19.8274 199.795 20.0165 200.682 20.0187C201.57 20.021 202.448 19.8364 203.259 19.4769C205.135 18.6541 207.473 18.6715 209.266 19.5922C209.798 19.8738 210.39 20.0231 210.991 20.0276C213.757 20.0276 215.995 16.891 215.995 13.0231C216.011 11.5283 215.651 10.0535 214.947 8.73502Z" fill="#F2F2F2"/>
<path opacity="0.03" d="M207.46 18.9849C206.016 18.7101 204.522 18.8723 203.17 19.4507C202.36 19.813 201.483 20.0003 200.595 20.0003C199.708 20.0003 198.831 19.813 198.021 19.4507C196.13 18.6127 193.763 18.6301 191.959 19.5683C191.423 19.8524 190.826 20.0018 190.219 20.0036C187.752 19.9949 185.718 17.5113 185.291 14.2463C185.782 13.8887 186.199 13.4393 186.518 12.9229C187.959 10.6004 190.191 9.11157 192.695 9.11157C195.199 9.11157 197.403 10.583 198.843 12.8794C199.273 13.5732 199.874 14.1443 200.589 14.5375C201.304 14.9306 202.109 15.1325 202.924 15.1235H202.987C204.939 15.1279 206.636 16.6973 207.46 18.9849Z" fill="black"/>
<path d="M42.0038 5.89221L40.024 7.14815L41.2271 4.97148C40.8873 4.6966 40.4653 4.54336 40.0284 4.53615H39.9979C39.8602 4.53808 39.7226 4.52788 39.5867 4.50568L38.9145 4.94101L39.2038 4.41643C38.7284 4.25071 38.3173 3.93918 38.029 3.52618L36.8281 4.28801L37.5874 2.90583C37.2674 2.49391 36.86 2.1582 36.3946 1.92294C35.9292 1.68768 35.4174 1.55873 34.8962 1.54541C33.6452 1.54541 32.5335 2.28983 31.8156 3.44782C31.6018 3.79241 31.301 4.0745 30.9435 4.26558C30.5859 4.45667 30.1844 4.55 29.7792 4.53615H29.7118C28.3325 4.53615 27.2142 6.099 27.2142 8.0297C27.2142 9.9604 28.3325 11.5124 29.7118 11.5124C30.0152 11.5113 30.3138 11.4366 30.582 11.2947C31.0514 11.0665 31.5647 10.9431 32.0865 10.9329C32.6083 10.9228 33.126 11.0262 33.6039 11.2359C34.0083 11.416 34.4459 11.5091 34.8886 11.5091C35.3312 11.5091 35.7689 11.416 36.1732 11.2359C36.6476 11.0306 37.1605 10.9294 37.6773 10.9391C38.194 10.9489 38.7027 11.0694 39.169 11.2925C39.4336 11.4338 39.7285 11.5085 40.0284 11.5102C41.4077 11.5102 42.5259 9.94734 42.5259 8.02752C42.5348 7.28306 42.3552 6.54847 42.0038 5.89221Z" fill="#F2F2F2"/>
<path opacity="0.03" d="M38.2726 11.0052C37.5525 10.8674 36.8077 10.9485 36.1341 11.2381C35.7297 11.4182 35.292 11.5113 34.8494 11.5113C34.4068 11.5113 33.9691 11.4182 33.5647 11.2381C33.0864 11.0283 32.5683 10.9249 32.0462 10.9351C31.5241 10.9452 31.0104 11.0687 30.5407 11.2969C30.2727 11.4394 29.9739 11.5141 29.6704 11.5145C28.4434 11.5145 27.4252 10.2804 27.212 8.65223C27.456 8.47541 27.6642 8.25382 27.8255 7.99923C28.5435 6.84124 29.6574 6.099 30.9062 6.099C32.1549 6.099 33.2536 6.83253 33.9715 7.97746C34.1857 8.32379 34.4858 8.60882 34.8426 8.80485C35.1994 9.00089 35.6008 9.10128 36.0079 9.09627H36.0405C37.0173 9.08103 37.8549 9.86463 38.2726 11.0052Z" fill="black"/>
<path d="M62.5129 29.9313L65.7023 31.949L63.7704 28.4359C64.3182 27.9996 64.9956 27.7584 65.6958 27.7503H65.7458C65.9644 27.7539 66.1829 27.7371 66.3985 27.7002L67.4754 28.3858L67.0076 27.5435C67.7714 27.2766 68.4315 26.7754 68.8939 26.1112L70.8236 27.3367L69.6183 25.1295C70.7474 23.7757 72.2682 22.9529 73.9412 22.9529C75.9492 22.9529 77.7354 24.1457 78.8906 26.0002C79.231 26.5559 79.712 27.0118 80.2851 27.3218C80.8581 27.6318 81.5028 27.7849 82.154 27.7655H82.2627C84.4775 27.7655 86.2723 30.2774 86.2723 33.3769C86.2723 36.4765 84.4775 38.9906 82.2627 38.9906C81.775 38.9887 81.295 38.8684 80.8639 38.6401C80.1099 38.2737 79.2855 38.0754 78.4475 38.0588C77.6095 38.0423 76.7779 38.2079 76.0102 38.5443C75.3608 38.8375 74.6569 38.9901 73.9445 38.9919C73.2321 38.9938 72.5274 38.845 71.8766 38.5552C71.1147 38.2244 70.2906 38.0615 69.4602 38.0777C68.6298 38.0938 67.8127 38.2886 67.0642 38.6488C66.6374 38.8711 66.1638 38.9882 65.6827 38.9906C63.4658 38.9906 61.671 36.4765 61.671 33.3769C61.6569 32.1757 61.9466 30.9905 62.5129 29.9313Z" fill="#F2F2F2"/>
<path opacity="0.03" d="M68.5066 38.1439C69.6641 37.9246 70.8607 38.0549 71.944 38.5183C72.5943 38.8091 73.2985 38.9594 74.0108 38.9594C74.7231 38.9594 75.4273 38.8091 76.0776 38.5183C76.8455 38.1811 77.6774 38.0148 78.5158 38.0309C79.3542 38.0471 80.1791 38.2453 80.9335 38.6119C81.3638 38.8401 81.8431 38.9604 82.3302 38.9623C84.2991 38.9623 85.9351 36.9794 86.2767 34.363C85.879 34.0738 85.5414 33.7101 85.2824 33.2921C84.1272 31.4332 82.3411 30.2448 80.333 30.2448C78.3249 30.2448 76.5627 31.4245 75.4075 33.266C75.0638 33.8207 74.5828 34.2775 74.0112 34.592C73.4396 34.9066 72.7965 35.0683 72.1441 35.0617H72.0941C70.5255 35.0552 69.168 36.3111 68.5066 38.1439Z" fill="black"/>
<path d="M206.649 143.555C207.706 141.596 206.508 139.202 205.126 137.461C203.745 135.719 202.08 133.902 202.106 131.68C202.159 128.486 205.546 126.599 208.254 124.906C210.264 123.65 212.118 122.16 213.776 120.468C214.442 119.788 215.081 119.061 215.473 118.195C216.032 116.948 216.017 115.526 215.982 114.157C215.865 109.602 215.639 105.05 215.306 100.501" stroke="#3F3D56" stroke-width="4" stroke-miterlimit="10"/>
<path d="M220.453 100.251C220.414 99.4166 220.166 98.6056 219.731 97.8927C219.297 97.1798 218.69 96.5879 217.966 96.1716L216.852 98.3766L216.885 95.7058C215.873 95.408 214.792 95.4397 213.799 95.7964C212.806 96.1531 211.952 96.8163 211.36 97.6902C210.768 98.5642 210.469 99.6037 210.506 100.659C210.543 101.714 210.914 102.73 211.566 103.56C212.218 104.39 213.116 104.992 214.132 105.278C215.148 105.564 216.228 105.519 217.217 105.151C218.206 104.783 219.052 104.11 219.634 103.229C220.215 102.348 220.502 101.305 220.453 100.251Z" fill="#6C63FF"/>
<path d="M211.574 133.963C211.052 134.978 210.196 135.783 209.151 136.242C208.106 136.7 206.935 136.786 205.834 136.484C204.733 136.181 203.77 135.51 203.106 134.581C202.441 133.653 202.116 132.524 202.185 131.384C202.253 130.244 202.712 129.162 203.483 128.32C204.254 127.478 205.291 126.927 206.42 126.759C207.548 126.591 208.701 126.817 209.683 127.398C210.666 127.979 211.419 128.881 211.816 129.951L208.705 132.483L212.127 131.69C212.127 132.481 211.937 133.26 211.574 133.963Z" fill="#6C63FF"/>
<path d="M209.116 124.292C207.894 124.351 206.692 123.958 205.741 123.187C204.791 122.416 204.157 121.321 203.962 120.113C203.766 118.904 204.023 117.666 204.682 116.634C205.342 115.603 206.358 114.85 207.537 114.521L207.51 116.574L208.637 114.34H208.65C209.312 114.295 209.975 114.383 210.602 114.598C211.229 114.813 211.807 115.151 212.301 115.593C212.796 116.034 213.197 116.569 213.482 117.168C213.768 117.767 213.93 118.416 213.961 119.078C213.992 119.741 213.891 120.402 213.663 121.025C213.435 121.648 213.085 122.218 212.634 122.704C212.183 123.19 211.639 123.58 211.035 123.853C210.431 124.125 209.778 124.275 209.116 124.292Z" fill="#6C63FF"/>
<path d="M221.201 116.247C220.431 116.284 219.663 116.141 218.957 115.83C218.251 115.518 217.628 115.047 217.135 114.454C216.642 113.86 216.294 113.161 216.117 112.409C215.941 111.658 215.941 110.877 216.119 110.126C216.296 109.375 216.645 108.675 217.138 108.082C217.632 107.489 218.256 107.019 218.962 106.709C219.668 106.398 220.437 106.256 221.207 106.294C221.977 106.331 222.728 106.547 223.401 106.924L222.531 109.336L224.341 107.595C224.821 108.034 225.211 108.563 225.487 109.153C225.763 109.743 225.919 110.381 225.948 111.032C225.973 111.496 225.932 111.961 225.824 112.414C225.576 113.469 224.99 114.414 224.155 115.106C223.321 115.798 222.284 116.198 221.201 116.247Z" fill="#6C63FF"/>
<path opacity="0.1" d="M219.783 101.578C218.634 101.705 217.516 102.062 216.363 102.133C215.21 102.205 213.944 101.929 213.215 101.032C212.821 100.549 212.625 99.9437 212.292 99.4105C211.978 98.9201 211.548 98.5149 211.039 98.2307C210.717 98.8626 210.533 99.556 210.501 100.265C210.468 100.973 210.587 101.681 210.849 102.339C211.112 102.998 211.512 103.594 212.023 104.085C212.534 104.577 213.144 104.954 213.812 105.191C214.48 105.428 215.191 105.519 215.898 105.459C216.604 105.399 217.29 105.189 217.908 104.842C218.527 104.496 219.064 104.021 219.485 103.45C219.905 102.879 220.199 102.224 220.346 101.531C220.168 101.546 219.97 101.559 219.783 101.578Z" fill="black"/>
<path opacity="0.1" d="M221.201 116.247C220.345 116.285 219.493 116.101 218.728 115.713C217.964 115.325 217.312 114.746 216.836 114.032C216.36 113.318 216.077 112.494 216.012 111.639C215.948 110.783 216.106 109.926 216.47 109.149C216.866 109.414 217.206 109.755 217.47 110.152C217.825 110.688 218.04 111.306 218.458 111.798C219.232 112.71 220.557 113.008 221.758 112.954C222.959 112.899 224.119 112.558 225.318 112.449C225.483 112.434 225.65 112.423 225.818 112.418C225.569 113.472 224.983 114.415 224.15 115.106C223.317 115.797 222.282 116.197 221.201 116.247Z" fill="black"/>
<path opacity="0.1" d="M209.116 124.292C208.265 124.334 207.418 124.157 206.656 123.778C205.893 123.398 205.241 122.83 204.76 122.126C204.28 121.423 203.988 120.607 203.913 119.759C203.838 118.91 203.981 118.056 204.33 117.279C204.739 117.55 205.096 117.893 205.383 118.291C205.768 118.837 206.009 119.466 206.471 119.971C207.31 120.907 208.722 121.236 209.995 121.206C211.228 121.179 212.414 120.877 213.641 120.783C213.339 121.763 212.742 122.625 211.933 123.253C211.123 123.881 210.139 124.244 209.116 124.292Z" fill="black"/>
<path opacity="0.1" d="M211.574 133.963C210.99 135.093 209.996 135.957 208.795 136.377C207.594 136.797 206.278 136.742 205.117 136.222C203.956 135.702 203.038 134.757 202.551 133.582C202.064 132.406 202.045 131.088 202.498 129.899C202.906 130.168 203.273 130.496 203.586 130.872C204.06 131.451 204.371 132.104 204.919 132.642C205.938 133.643 207.58 134.054 209.053 134.093C209.895 134.099 210.737 134.056 211.574 133.963Z" fill="black"/>
<path d="M199.143 141.305C199.143 141.305 203.072 141.183 204.256 140.341C205.439 139.498 210.3 138.488 210.593 139.842C210.887 141.196 216.498 146.57 212.062 146.607C207.626 146.644 201.754 145.915 200.573 145.195C199.391 144.474 199.143 141.305 199.143 141.305Z" fill="#656380"/>
<path opacity="0.2" d="M212.142 146.137C207.706 146.172 201.834 145.445 200.653 144.724C199.752 144.176 199.393 142.208 199.274 141.3H199.143C199.143 141.3 199.391 144.47 200.573 145.19C201.754 145.911 207.626 146.638 212.062 146.603C213.343 146.592 213.785 146.137 213.761 145.462C213.582 145.874 213.095 146.128 212.142 146.137Z" fill="black"/>
<path d="M184.053 142.67C183.364 141.392 184.147 139.827 185.045 138.688C185.944 137.55 187.04 136.364 187.017 134.912C186.984 132.827 184.771 131.595 183.003 130.489C181.69 129.669 180.48 128.696 179.398 127.59C178.944 127.164 178.57 126.663 178.29 126.107C177.925 125.291 177.936 124.366 177.96 123.471C178.036 120.494 178.182 117.519 178.395 114.547" stroke="#3F3D56" stroke-width="4" stroke-miterlimit="10"/>
<path d="M175.038 114.373C175.063 113.829 175.225 113.301 175.508 112.836C175.791 112.371 176.186 111.985 176.656 111.713L177.383 113.154L177.361 111.413C178.023 111.216 178.73 111.235 179.38 111.468C180.03 111.7 180.589 112.133 180.977 112.704C181.365 113.275 181.561 113.954 181.537 114.645C181.513 115.335 181.271 115.999 180.844 116.542C180.418 117.085 179.83 117.478 179.166 117.665C178.502 117.852 177.795 117.822 177.149 117.581C176.502 117.339 175.949 116.898 175.57 116.322C175.19 115.745 175.004 115.062 175.038 114.373Z" fill="#6C63FF"/>
<path d="M180.836 136.394C181.164 137.032 181.693 137.543 182.341 137.848C182.989 138.154 183.72 138.237 184.42 138.083C185.12 137.93 185.75 137.55 186.212 137.001C186.674 136.453 186.941 135.767 186.973 135.051C186.994 134.601 186.92 134.152 186.755 133.732C186.52 133.113 186.1 132.581 185.554 132.206C185.008 131.832 184.36 131.633 183.698 131.637C183.035 131.641 182.39 131.847 181.848 132.227C181.306 132.608 180.893 133.145 180.664 133.767L182.696 135.421L180.462 134.903C180.463 135.423 180.591 135.935 180.836 136.394Z" fill="#6C63FF"/>
<path d="M182.439 130.08C183.3 130.117 184.14 129.812 184.777 129.232C185.414 128.652 185.796 127.843 185.84 126.982C185.866 126.473 185.77 125.965 185.559 125.5C185.364 125.066 185.076 124.679 184.715 124.368C184.355 124.056 183.931 123.828 183.473 123.698L183.488 125.039L182.748 123.58C181.888 123.544 181.048 123.848 180.411 124.429C179.775 125.009 179.393 125.817 179.35 126.678C179.33 127.053 179.378 127.429 179.489 127.788C179.687 128.426 180.076 128.988 180.604 129.398C181.132 129.808 181.772 130.046 182.439 130.08Z" fill="#6C63FF"/>
<path d="M174.548 124.821C175.409 124.858 176.25 124.554 176.887 123.973C177.524 123.393 177.905 122.584 177.949 121.724C177.972 121.145 177.842 120.57 177.57 120.059C177.298 119.547 176.896 119.118 176.403 118.813C175.911 118.509 175.346 118.341 174.768 118.327C174.189 118.313 173.617 118.453 173.11 118.733L173.685 120.309L172.503 119.172C172.03 119.607 171.696 120.171 171.543 120.795C171.39 121.419 171.425 122.075 171.644 122.679C171.863 123.283 172.255 123.809 172.772 124.19C173.289 124.571 173.907 124.791 174.548 124.821Z" fill="#6C63FF"/>
<path opacity="0.1" d="M175.475 115.244C176.224 115.326 176.955 115.559 177.707 115.607C178.46 115.655 179.287 115.472 179.763 114.887C180.02 114.571 180.148 114.173 180.366 113.829C180.572 113.508 180.852 113.243 181.184 113.056C181.438 113.563 181.555 114.128 181.524 114.695C181.493 115.261 181.315 115.81 181.008 116.287C180.7 116.764 180.274 117.152 179.771 117.414C179.267 117.676 178.705 117.802 178.138 117.779C177.422 117.744 176.737 117.474 176.19 117.011C175.642 116.547 175.263 115.916 175.11 115.215C175.229 115.224 175.351 115.244 175.475 115.244Z" fill="black"/>
<path opacity="0.1" d="M174.548 124.821C175.409 124.858 176.249 124.554 176.887 123.973C177.524 123.393 177.905 122.584 177.949 121.724C177.975 121.191 177.869 120.661 177.64 120.18C177.382 120.354 177.16 120.575 176.987 120.833C176.754 121.182 176.615 121.586 176.335 121.909C175.828 122.503 174.962 122.699 174.179 122.662C173.395 122.625 172.636 122.405 171.853 122.333C171.746 122.322 171.635 122.316 171.526 122.313C171.688 123.004 172.071 123.623 172.616 124.075C173.162 124.528 173.84 124.79 174.548 124.821Z" fill="black"/>
<path opacity="0.1" d="M182.439 130.08C183.3 130.117 184.14 129.812 184.777 129.232C185.414 128.652 185.796 127.843 185.84 126.982C185.866 126.473 185.77 125.965 185.559 125.5C185.292 125.674 185.059 125.895 184.871 126.153C184.619 126.51 184.462 126.919 184.167 127.241C183.618 127.853 182.696 128.068 181.865 128.049C181.034 128.029 180.285 127.831 179.485 127.772C179.681 128.414 180.069 128.98 180.598 129.393C181.127 129.806 181.769 130.045 182.439 130.08Z" fill="black"/>
<path opacity="0.1" d="M180.836 136.394C181.164 137.032 181.693 137.543 182.341 137.848C182.989 138.154 183.72 138.237 184.42 138.083C185.12 137.93 185.75 137.55 186.212 137.001C186.674 136.453 186.941 135.767 186.973 135.051C186.994 134.601 186.92 134.152 186.755 133.732C186.487 133.908 186.247 134.123 186.042 134.37C185.733 134.747 185.528 135.173 185.172 135.526C184.506 136.179 183.431 136.446 182.478 136.473C181.93 136.479 181.381 136.453 180.836 136.394Z" fill="black"/>
<path d="M188.955 141.192C188.955 141.192 186.388 141.111 185.616 140.56C184.843 140.01 181.667 139.352 181.482 140.236C181.297 141.12 177.627 144.631 180.522 144.653C183.418 144.674 187.254 144.202 188.026 143.732C188.798 143.262 188.955 141.192 188.955 141.192Z" fill="#656380"/>
<path opacity="0.2" d="M180.464 144.346C183.362 144.37 187.208 143.895 187.967 143.425C188.557 143.066 188.79 141.779 188.868 141.187H188.955C188.955 141.187 188.792 143.257 188.019 143.727C187.247 144.198 183.414 144.672 180.516 144.648C179.681 144.648 179.391 144.346 179.406 143.904C179.524 144.174 179.842 144.341 180.464 144.346Z" fill="black"/>
<path opacity="0.6" d="M107.256 116.702C112.205 115.788 112.227 108.57 112.227 108.57C112.009 109.602 111.502 109.702 108.924 110.529C106.346 111.356 104.791 114.022 104.791 114.022C97.0871 105.235 90.4647 114.804 90.4647 114.804C91.5702 116.466 93.1894 117.721 95.0747 118.376C94.7701 119.12 94.4481 120.159 94.8267 120.539C95.2618 120.975 96.4518 119.636 97.0915 118.833C97.2829 118.855 97.4743 118.874 97.6658 118.887C98.0335 119.625 98.945 121.565 98.9429 122.716C98.9429 122.716 101.044 122.555 100.779 118.722C102.111 118.504 103.411 118.117 104.645 117.57C104.645 117.57 104.427 123.55 106.168 123.863C107.908 124.177 109.614 126.297 109.614 126.297C112.199 121.253 107.256 116.702 107.256 116.702Z" fill="#FE7D1E"/>
<path opacity="0.6" d="M138.057 105.385C142.992 106.374 145.687 99.6782 145.687 99.6782C145.111 100.549 144.599 100.46 141.895 100.264C139.191 100.068 136.763 101.966 136.763 101.966C132.867 90.9563 123.168 97.3949 123.168 97.3949C123.579 99.3493 124.618 101.115 126.127 102.423C125.567 103.002 124.884 103.847 125.095 104.338C125.339 104.915 126.938 104.103 127.83 103.594C128 103.688 128.172 103.775 128.344 103.857C128.411 104.68 128.539 106.82 128.111 107.889C128.111 107.889 130.123 108.518 131.296 104.859C132.607 105.15 133.95 105.273 135.292 105.224C135.292 105.224 132.869 110.694 134.379 111.637C135.888 112.579 136.676 115.174 136.676 115.174C140.951 111.441 138.057 105.385 138.057 105.385Z" fill="#FE7D1E"/>
<path d="M61.5883 59.7385L61.6013 59.719L61.5513 59.6863L61.4491 59.6145L61.4686 59.6319C61.3795 59.5786 61.2739 59.5599 61.172 59.5796C61.07 59.5993 60.9789 59.6559 60.916 59.7385L60.8551 59.8278L57.8963 64.0919L57.3786 64.8363C55.8209 64.3683 53.2928 66.3447 52.0114 67.4766L51.7939 67.6768C51.6916 67.4483 51.6329 67.3025 51.6329 67.3025C51.5698 67.999 49.1157 69.0438 48.5414 69.4204C48.281 69.5782 47.9891 69.6771 47.6864 69.7099C47.7691 67.063 45.7284 64.2791 45.7284 64.2791L40.7267 57.9058C40.5431 56.7553 40.7218 55.5762 41.238 54.532C41.2771 54.4492 41.3207 54.3665 41.3664 54.286H41.5839H41.6122C42.02 54.2853 42.4269 54.2489 42.8283 54.1772C44.2954 53.914 45.6318 53.1658 46.6235 52.0525C47.6152 50.9392 48.2047 49.5251 48.2977 48.0368C48.8003 47.9062 49.2289 47.4404 49.1571 46.9027C49.1755 46.8005 49.1755 46.6959 49.1571 46.5937C49.1431 46.5289 49.1235 46.4656 49.0983 46.4043C48.9547 46.043 48.6523 45.7513 48.4304 45.4204C48.1231 44.9361 47.9587 44.3747 47.9562 43.801C47.9757 43.2988 48.0538 42.8006 48.1889 42.3165C48.2905 42.0287 48.3384 41.7248 48.3304 41.4197V41.3588C48.3332 41.2788 48.3296 41.1987 48.3195 41.1193C48.3108 41.0625 48.2977 41.0065 48.2803 40.9517C48.1555 40.6118 47.9193 40.3241 47.6102 40.1355C46.8205 39.6196 45.8067 39.6131 44.9191 39.2888C43.6311 38.8164 42.465 37.6497 41.1205 37.9327C40.3852 38.0851 39.8152 38.6488 39.1842 39.0472C38.482 39.4867 37.6756 39.7316 36.8477 39.7568C36.1515 39.7785 35.4488 39.6457 34.7635 39.7568C34.6407 39.7797 34.5199 39.8124 34.4023 39.8547C33.8197 39.657 33.2075 39.5605 32.5923 39.5696C31.989 39.5535 31.3946 39.7172 30.8844 40.0397C29.9598 40.6927 29.7118 41.9421 29.727 43.0653V43.0914C29.727 43.1654 29.727 43.2372 29.727 43.3091C29.727 43.8467 29.7792 44.3974 29.7879 44.9307C29.7973 45.4316 29.729 45.9308 29.5856 46.4108C29.1505 47.7408 27.9387 48.7573 27.6929 50.1329C27.6531 50.3701 27.6393 50.611 27.6515 50.8512C27.6341 51.6305 27.8843 52.4119 28.1149 53.1672C28.5914 54.7279 28.9699 56.3865 28.9721 58.0059C28.9627 59.0118 28.7626 60.0067 28.3825 60.9379C28.2693 61.2094 28.1294 61.469 27.9648 61.7128C27.9104 61.7911 27.8517 61.8651 27.7929 61.9304L27.7668 61.9587C27.7146 62.0197 27.6581 62.0763 27.6015 62.1329L27.5536 62.1764C27.4992 62.225 27.4418 62.27 27.3818 62.3114L27.3252 62.3549C27.2465 62.4081 27.1635 62.4547 27.0772 62.4942L27.5014 62.4703C27.3728 62.5789 27.2301 62.6697 27.0772 62.7402L29.3224 62.6096C29.3224 62.6335 29.3224 62.6575 29.3333 62.6836C29.3268 62.7395 29.3159 62.7948 29.3006 62.849C29.2857 62.9016 29.2676 62.9532 29.2462 63.0035C29.245 63.0107 29.245 63.0181 29.2462 63.0253C29.2 63.1257 29.1416 63.22 29.0722 63.3061L29.0548 63.3279C29.0193 63.3699 28.9816 63.4098 28.9417 63.4476C28.9034 63.4824 28.8627 63.5144 28.8198 63.5434L28.7915 63.5629C28.7469 63.5927 28.7004 63.6196 28.6523 63.6435C28.6054 63.6635 28.5575 63.6809 28.5087 63.6957L28.4717 63.7066C28.4205 63.7216 28.3681 63.7326 28.3151 63.7393L28.5326 63.7131C28.6741 63.6957 28.8155 63.6783 28.9547 63.6544H28.996C28.8164 63.8403 28.5782 63.9587 28.3216 63.9896C28.8045 63.9534 29.2814 63.8598 29.7423 63.711C30.036 65.67 30.6843 71.6623 30.3275 72.7681C29.9141 73.9609 30.8931 82.5935 30.8931 82.5935C30.8931 82.5935 31.0258 83.2465 31.2586 84.2434C30.6582 85.6605 29.9729 87.232 29.6291 87.8611C28.9373 89.1257 29.2789 95.573 31.6568 98.4397C31.6568 98.4397 32.6423 99.8284 32.3834 100.336C32.1245 100.843 32.4269 101.726 32.4269 101.726L32.8033 110.07C32.7972 110.926 32.7405 111.782 32.6336 112.632C31.6198 113.89 30.0534 115.725 29.3158 116.025C28.178 116.486 19.6802 126.812 19.6802 126.812C19.6802 126.812 19.7477 126.937 19.8804 127.139L19.6411 127.415L18.0094 129.307L17.881 129.457C17.5765 129.398 15.5379 129.022 13.9215 128.911H13.7627V128.88C13.1948 128.816 12.6207 128.832 12.057 128.926H12.044C11.9382 128.947 11.8408 128.999 11.7633 129.074C11.2129 129.749 10.9149 140.369 10.9149 140.369C10.9149 140.369 11.5023 145.673 13.3297 145.98C13.4244 146.013 13.5234 146.031 13.6234 146.035H13.643C13.677 146.038 13.7113 146.038 13.7453 146.035C15.0506 145.939 15.6576 145.184 15.9208 144.67C16.0004 144.514 16.0618 144.35 16.1036 144.18C16.1036 144.18 15.886 143.231 16.4647 141.925C17.0434 140.619 18.1008 138.342 18.1008 138.342C18.1008 138.342 20.0414 136.298 19.6955 135.306L19.8826 135.036C20.6136 133.995 22.0864 131.941 23.2786 130.567L23.5136 130.304C23.9475 130.488 24.4017 130.621 24.8668 130.698C24.8668 130.698 26.6943 129.982 27.3752 128.38C27.6646 127.698 28.7981 126.493 30.0055 125.332C29.9794 125.533 29.9663 125.644 29.9663 125.644L29.925 135.798C30.3175 136.068 30.7358 136.3 31.1738 136.488C31.1738 136.568 31.1738 136.653 31.1738 136.738C31.1833 138.186 31.0961 139.633 30.9127 141.07C30.9018 141.146 30.8888 141.22 30.8757 141.287C30.7256 141.181 30.5951 141.144 30.5124 141.229C30.1382 141.607 29.9054 144.03 29.8837 145.147C29.8837 145.168 29.8837 145.19 29.8837 145.21C29.8576 145.673 29.7336 146.222 29.7336 146.714C29.7227 147.428 29.9511 148.02 31.0976 148.076C32.5292 148.137 38.686 148.231 41.9755 148.279C43.7538 148.316 45.4845 147.702 46.8423 146.553C47.4471 146.035 47.9105 145.464 47.93 144.916C47.9605 144.5 47.7342 144.1 47.1055 143.753C47.1055 143.767 47.1055 143.78 47.0925 143.795C47.0098 143.749 46.9206 143.706 46.8227 143.662L43.6572 143.166L38.2618 140.406C38.2618 140.406 38.2292 138.738 37.5809 139.015C37.3882 139.057 37.2038 139.131 37.0348 139.233C37.0021 139.172 36.9695 139.106 36.9369 139.039C36.4992 138.166 36.2712 137.203 36.2712 136.227C36.2712 136.137 36.2712 136.048 36.2842 135.957C36.4431 135.814 36.5921 135.66 36.7302 135.497C36.7302 135.497 36.6889 131.706 37.1131 130.987C37.5373 130.269 38.8536 123.023 38.8536 123.023C38.8536 123.023 38.8971 121.676 39.7455 120.875C40.594 120.074 40.2981 117.755 40.2981 117.755C40.2981 117.755 41.4882 117.124 41.8711 115.059C42.254 112.993 43.4854 108.485 43.4854 108.485C43.4854 108.485 46.0351 101.827 45.8654 97.6125C45.6957 93.3985 46.12 91.2066 46.12 91.2066L46.6508 81.4116V81.2592C46.8684 81.4203 47.0033 81.5509 47.0033 81.5509C47.0033 81.5509 47.0033 81.5117 47.0033 81.4443L47.1251 81.5509C47.1251 81.5509 47.3949 77.1083 47.3035 75.3452C48.7916 74.8403 51.0542 74.0088 51.1825 73.5865C51.374 72.9553 53.9216 70.9636 53.9216 70.9636C53.8672 70.9526 53.815 70.9328 53.7671 70.9048C53.8476 70.8678 53.9303 70.8243 54.0195 70.7764C55.6903 69.8818 58.7949 67.2633 58.2727 65.6634L61.6666 60.7768C61.774 60.6208 61.8249 60.4327 61.8106 60.2439C61.7964 60.055 61.7179 59.8766 61.5883 59.7385ZM33.9389 54.9782C33.856 54.9805 33.7732 54.987 33.6909 54.9978C33.5438 54.126 33.3359 53.2655 33.0687 52.4228C32.6749 51.0994 32.2529 49.7672 32.1876 48.3894C32.1876 48.3306 32.1876 48.2697 32.1876 48.2087C32.1963 47.8463 32.2438 47.4858 32.329 47.1335C32.4117 47.2837 32.5009 47.4317 32.5944 47.5688C33.1362 48.3894 33.7714 49.1687 34.1065 50.0937C34.2234 50.5321 34.3814 50.9585 34.5786 51.3671C34.8113 51.7567 35.2312 52.081 35.6925 52.0201C35.8473 51.9946 35.9924 51.9276 36.1123 51.8264C35.5036 52.9523 34.7749 54.0091 33.9389 54.9782Z" fill="url(#paint0_linear_22_1063)"/>
<path d="M53.4147 71.8321C53.17 71.986 52.8971 72.0896 52.6119 72.1368C51.5654 72.1673 50.7039 69.3333 50.7039 69.3333C50.7039 69.3333 51.002 69.0329 51.4762 68.6106C52.8773 67.3612 55.8274 65.0583 57.198 66.3469C58.7405 67.7922 55.2139 70.857 53.4147 71.8321Z" fill="#ECB4B6"/>
<path d="M37.5199 139.381L33.6626 143.54C33.6626 143.54 30.0925 143.579 30.7909 141.61C30.9297 141.184 31.0287 140.747 31.0868 140.304C31.264 138.905 31.3483 137.495 31.3391 136.085C31.3391 135.16 31.3239 134.511 31.3239 134.511C31.3239 134.511 36.9456 132.047 36.3712 134.614C36.2994 134.935 36.2608 135.262 36.2559 135.591C36.2548 136.542 36.4745 137.48 36.8977 138.332C37.0702 138.701 37.2786 139.052 37.5199 139.381Z" fill="#ECB4B6"/>
<path opacity="0.1" d="M37.5199 139.381L33.6626 143.54C33.6626 143.54 30.0925 143.579 30.7909 141.609C30.9297 141.184 31.0287 140.747 31.0868 140.303C31.5958 140.697 32.329 141.86 32.329 141.86C32.329 141.86 34.7918 142.578 35.4684 140.423C35.8469 139.217 36.4452 138.621 36.8977 138.331C37.0702 138.701 37.2786 139.052 37.5199 139.381Z" fill="black"/>
<path d="M46.4724 145.658C45.1631 146.774 43.4907 147.372 41.771 147.339C38.5903 147.291 32.6336 147.199 31.2608 147.14C29.4159 147.062 30.0272 145.484 30.0881 144.396C30.0881 144.359 30.0881 144.324 30.0881 144.287C30.1077 143.198 30.334 140.839 30.6951 140.469C31.0563 140.099 32.3246 142.11 32.3246 142.11C32.3246 142.11 34.7874 142.831 35.464 140.674C36.1406 138.516 37.5199 138.316 37.5199 138.316C38.1465 138.044 38.1726 139.67 38.1726 139.67L43.3939 142.358L46.4528 142.842C46.5507 142.887 46.6421 142.933 46.7247 142.976C48.0954 143.74 47.484 144.781 46.4724 145.658Z" fill="#6C63FF"/>
<path opacity="0.25" d="M36.8433 141.518C36.9683 141.518 37.0696 141.417 37.0696 141.292C37.0696 141.167 36.9683 141.065 36.8433 141.065C36.7184 141.065 36.6171 141.167 36.6171 141.292C36.6171 141.417 36.7184 141.518 36.8433 141.518Z" fill="white"/>
<path opacity="0.25" d="M38.9558 142.565C39.0808 142.565 39.1821 142.464 39.1821 142.339C39.1821 142.214 39.0808 142.112 38.9558 142.112C38.8309 142.112 38.7296 142.214 38.7296 142.339C38.7296 142.464 38.8309 142.565 38.9558 142.565Z" fill="white"/>
<path opacity="0.25" d="M40.0436 143.053C40.1685 143.053 40.2698 142.951 40.2698 142.826C40.2698 142.701 40.1685 142.6 40.0436 142.6C39.9186 142.6 39.8173 142.701 39.8173 142.826C39.8173 142.951 39.9186 143.053 40.0436 143.053Z" fill="white"/>
<path opacity="0.25" d="M42.3018 143.919C42.4268 143.919 42.5281 143.818 42.5281 143.693C42.5281 143.568 42.4268 143.466 42.3018 143.466C42.1769 143.466 42.0756 143.568 42.0756 143.693C42.0756 143.818 42.1769 143.919 42.3018 143.919Z" fill="white"/>
<path opacity="0.25" d="M41.1531 143.549C41.2781 143.549 41.3794 143.448 41.3794 143.323C41.3794 143.198 41.2781 143.096 41.1531 143.096C41.0282 143.096 40.9269 143.198 40.9269 143.323C40.9269 143.448 41.0282 143.549 41.1531 143.549Z" fill="white"/>
<path d="M46.4724 145.658C45.1631 146.774 43.4907 147.372 41.771 147.338C38.5903 147.291 32.6336 147.199 31.2608 147.14C29.4159 147.062 30.0272 145.484 30.0881 144.396L41.6861 145.112C41.6861 145.112 46.4354 144.391 46.7182 142.974C48.0954 143.74 47.484 144.781 46.4724 145.658Z" fill="#6C63FF"/>
<path opacity="0.25" d="M46.4724 145.61C45.1642 146.728 43.491 147.326 41.771 147.291C38.5903 147.245 32.6336 147.154 31.263 147.095C29.4159 147.014 30.0273 145.436 30.0882 144.348L41.6861 145.064C41.6861 145.064 46.4354 144.343 46.7182 142.929C48.0954 143.695 47.484 144.735 46.4724 145.61Z" fill="white"/>
<path d="M24.8798 128.911C24.4519 129.258 24.0618 129.649 23.7159 130.078C22.565 131.416 21.1422 133.419 20.4351 134.431L20 135.071L18.4575 134.834C18.4575 134.834 16.7954 132.289 16.8172 132.222C16.8389 132.154 18.1225 129.429 18.1225 129.429L18.6229 128.843L20.198 127L20.9116 126.164C20.9116 126.164 26.2766 127.905 24.8798 128.911Z" fill="#ECB4B6"/>
<path opacity="0.1" d="M20.4351 134.431L20 135.071L18.4575 134.834C18.4575 134.834 16.7954 132.289 16.8172 132.222C16.8389 132.154 18.1225 129.429 18.1225 129.429L18.6229 128.843L18.7861 128.872H19.1777C17.8005 130.308 19.2799 133.471 19.2799 133.471C19.2799 133.471 19.9261 133.547 20.4351 134.431Z" fill="black"/>
<path d="M18.7099 137.663C18.7099 137.663 17.683 139.881 17.1283 141.146C16.5735 142.41 16.7802 143.342 16.7802 143.342C16.7417 143.508 16.6825 143.668 16.6039 143.819C16.3516 144.322 15.7685 145.055 14.5023 145.149C14.4697 145.151 14.437 145.151 14.4044 145.149C12.5334 145.099 11.9395 139.666 11.9395 139.666C11.9395 139.666 12.2245 129.318 12.7575 128.66C12.8321 128.587 12.9267 128.537 13.0295 128.517C13.5741 128.422 14.1297 128.407 14.6786 128.473C16.3712 128.595 18.5446 129.011 18.5446 129.011H18.9362C17.559 130.448 19.0362 133.608 19.0362 133.608C19.0362 133.608 19.6889 133.671 20.2067 134.594C20.7245 135.517 18.7099 137.663 18.7099 137.663Z" fill="#6C63FF"/>
<path opacity="0.25" d="M16.4561 134.803C16.581 134.803 16.6823 134.702 16.6823 134.577C16.6823 134.452 16.581 134.35 16.4561 134.35C16.3311 134.35 16.2298 134.452 16.2298 134.577C16.2298 134.702 16.3311 134.803 16.4561 134.803Z" fill="white"/>
<path opacity="0.25" d="M16.3451 136.597C16.4701 136.597 16.5714 136.495 16.5714 136.37C16.5714 136.245 16.4701 136.144 16.3451 136.144C16.2201 136.144 16.1188 136.245 16.1188 136.37C16.1188 136.495 16.2201 136.597 16.3451 136.597Z" fill="white"/>
<path d="M16.456 143.777C16.2591 144.169 15.9596 144.5 15.5895 144.734C15.2194 144.969 14.7925 145.099 14.3544 145.11H14.2565C12.3855 145.064 11.7894 139.622 11.7894 139.622C11.7894 139.622 12.0766 129.276 12.6096 128.619C12.6833 128.544 12.7782 128.493 12.8816 128.473C13.4257 128.381 13.9802 128.366 14.5285 128.43C14.498 130.289 14.4088 136.168 14.5394 136.751C14.6699 137.335 15.712 142.215 16.456 143.777Z" fill="#6C63FF"/>
<path opacity="0.25" d="M16.5909 143.817C16.3939 144.208 16.0943 144.538 15.7242 144.773C15.354 145.007 14.9272 145.136 14.4893 145.147C14.4567 145.149 14.424 145.149 14.3914 145.147C12.5182 145.097 11.9243 139.664 11.9243 139.664C11.9243 139.664 12.2115 129.316 12.7445 128.658C12.8179 128.584 12.9119 128.534 13.0143 128.515C13.5589 128.42 14.1145 128.405 14.6634 128.471C14.6329 130.33 14.5437 136.209 14.6634 136.793C14.783 137.376 15.8447 142.252 16.5909 143.817Z" fill="white"/>
<path d="M14.2565 145.11C12.3855 145.064 11.7894 139.622 11.7894 139.622C11.7894 139.622 12.0766 129.277 12.6096 128.619C12.6833 128.544 12.7782 128.493 12.8816 128.473C13.2732 129.059 13.6169 130.352 13.3167 133.197C12.7315 138.586 13.4363 138.924 13.4363 138.924C13.4363 138.924 14.3 143.501 14.2565 145.11Z" fill="#6C63FF"/>
<path opacity="0.1" d="M14.2413 145.11C12.3703 145.064 11.7742 139.622 11.7742 139.622C11.7742 139.622 12.0613 129.277 12.5944 128.619C12.668 128.544 12.7629 128.493 12.8663 128.473C13.2579 129.059 13.6017 130.352 13.3014 133.197C12.7162 138.586 13.4211 138.924 13.4211 138.924C13.4211 138.924 14.2826 143.501 14.2413 145.11Z" fill="black"/>
<path opacity="0.1" d="M53.4147 71.8322C53.17 71.9861 52.8971 72.0897 52.6119 72.1369C51.5654 72.1674 50.7039 69.3334 50.7039 69.3334C50.7039 69.3334 51.002 69.033 51.4762 68.6107C51.8091 69.3834 52.7533 71.4491 53.4147 71.8322Z" fill="black"/>
<path d="M46.703 70.8135C46.703 70.8135 47.5732 70.8744 48.1193 70.5044C48.6654 70.1344 51.0433 69.1179 51.1042 68.4409C51.1042 68.4409 52.5205 71.8909 53.3211 72.0128C53.3211 72.0128 50.8584 73.9544 50.6734 74.5704C50.4885 75.1864 45.687 76.6948 45.687 76.6948L46.703 70.8135Z" fill="#FF748E"/>
<path d="M46.703 70.8135C46.703 70.8135 47.5732 70.8744 48.1193 70.5044C48.6654 70.1344 51.0433 69.1179 51.1042 68.4409C51.1042 68.4409 52.5205 71.8909 53.3211 72.0128C53.3211 72.0128 50.8584 73.9544 50.6734 74.5704C50.4885 75.1864 45.687 76.6948 45.687 76.6948L46.703 70.8135Z" fill="#6C63FF"/>
<path opacity="0.1" d="M24.8799 128.911C24.452 129.258 24.0618 129.649 23.7159 130.077C21.8602 129.298 20.6701 127.711 20.2067 127.015L20.9203 126.179C20.9203 126.179 26.2766 127.905 24.8799 128.911Z" fill="black"/>
<path d="M33.6626 111.441C33.6626 111.441 30.6517 115.463 29.5508 115.916C28.45 116.369 20.2437 126.427 20.2437 126.427C20.2437 126.427 22.0081 129.67 25.2475 130.204C25.2475 130.204 27.0119 129.505 27.6689 127.947C28.326 126.388 33.5038 121.991 33.5038 121.991L33.6626 111.441Z" fill="#5E5A6B"/>
<path opacity="0.1" d="M33.6626 111.441C33.6626 111.441 30.6517 115.463 29.5508 115.916C28.45 116.369 20.2437 126.427 20.2437 126.427C20.2437 126.427 22.0081 129.67 25.2475 130.204C25.2475 130.204 27.0119 129.505 27.6689 127.947C28.326 126.388 33.5038 121.991 33.5038 121.991L33.6626 111.441Z" fill="black"/>
<path opacity="0.1" d="M24.5426 124.917C25.4531 125.013 26.3712 125.013 27.2816 124.917C28.9133 124.764 27.682 125.748 24.5426 124.917Z" fill="black"/>
<path opacity="0.1" d="M23.8029 125.964C23.8029 125.964 25.9589 127.196 26.79 126.58C27.621 125.964 25.9872 127.174 23.8029 125.964Z" fill="black"/>
<path opacity="0.1" d="M36.3712 134.616C36.2995 134.937 36.2608 135.264 36.2559 135.593C34.5916 137.104 32.5901 136.636 31.3391 136.087C31.3391 135.162 31.3239 134.514 31.3239 134.514C31.3239 134.514 36.9456 132.052 36.3712 134.616Z" fill="black"/>
<path d="M46.3397 81.0568L46.2766 82.193L45.7697 91.7356C45.7697 91.7356 45.3585 93.8709 45.5239 97.9782C45.6892 102.086 43.2243 108.57 43.2243 108.57C43.2243 108.57 42.0342 112.965 41.6644 114.976C41.2946 116.987 40.1415 117.603 40.1415 117.603C40.1415 117.603 40.4287 119.862 39.6085 120.65C38.7883 121.438 38.7383 122.744 38.7383 122.744C38.7383 122.744 37.4655 129.805 37.0565 130.504C36.6475 131.203 36.6867 134.899 36.6867 134.899C34.0194 138.059 30.1208 135.186 30.1208 135.186L30.1621 125.291C30.1621 125.291 31.2695 116.175 32.0897 114.902C32.9099 113.628 32.9099 110.139 32.9099 110.139L32.5466 102.009C32.5466 102.009 32.2551 101.139 32.5052 100.656C32.7554 100.172 31.8025 98.8075 31.8025 98.8075C29.5051 96.0149 29.1766 89.733 29.8445 88.501C30.5124 87.269 32.5052 82.3432 32.5052 82.3432L35.2508 80.7412L40.2111 80.8892L46.3397 81.0568Z" fill="#5E5A6B"/>
<path opacity="0.1" d="M34.6677 129.444C34.6677 129.444 35.3204 131.693 35.8404 131.939C36.3603 132.185 34.6677 129.444 34.6677 129.444Z" fill="black"/>
<path opacity="0.1" d="M35.5619 121.961C35.5619 121.961 37.2436 123.288 37.955 123.286C38.6664 123.284 35.5619 121.961 35.5619 121.961Z" fill="black"/>
<path d="M45.687 66.3775V69.0983L43.8987 68.3278L42.1169 67.5594L38.2379 63.7415C38.2379 63.7415 35.1703 61.7455 33.5278 59.928C32.5901 58.8919 32.118 57.9124 32.9447 57.3965C33.344 57.1335 33.705 56.8163 34.0173 56.4541C34.8436 55.4824 35.5615 54.4233 36.158 53.2957L36.2342 53.1564C37.0326 51.6915 37.5613 50.4377 37.5613 50.4377C37.5613 50.4377 39.8108 51.1604 41.2597 52.1791C41.3772 52.2596 41.4882 52.3445 41.5926 52.4294C42.3997 53.0933 42.8 53.8595 42.0582 54.6235C41.8652 54.8206 41.6877 55.0324 41.5273 55.2569C41.4078 55.4238 41.2981 55.5975 41.1988 55.7771C41.1531 55.8555 41.1118 55.936 41.0726 56.0165C40.5745 57.0354 40.4028 58.1832 40.581 59.3033L45.687 66.3775Z" fill="#ECB4B6"/>
<path opacity="0.1" d="M42.056 54.6147C41.863 54.8118 41.6855 55.0236 41.5252 55.2481C41.4056 55.415 41.2959 55.5887 41.1966 55.7683C41.151 55.8467 41.1096 55.9272 41.0705 56.0077C40.1217 55.956 39.1961 55.695 38.36 55.2435C37.5239 54.7919 36.798 54.1609 36.2342 53.3957C36.2081 53.3587 36.182 53.3239 36.158 53.2869L36.2342 53.1476C37.0326 51.6827 37.5613 50.429 37.5613 50.429C37.5613 50.429 39.8108 51.1516 41.2597 52.1703C41.3772 52.2508 41.4882 52.3357 41.5926 52.4206C42.3976 53.0845 42.7979 53.8616 42.056 54.6147Z" fill="black"/>
<path d="M47.8974 49.3058C47.898 50.1552 47.7312 50.9964 47.4065 51.7813C47.0819 52.5661 46.6058 53.2793 46.0055 53.8799C45.4052 54.4805 44.6924 54.9568 43.908 55.2816C43.1235 55.6064 42.2828 55.7733 41.4338 55.7727H41.4055H41.1879C39.9199 55.7266 38.6934 55.3081 37.6613 54.5696C36.6293 53.831 35.8372 52.8049 35.3838 51.6192C34.9305 50.4334 34.8359 49.1404 35.1118 47.9013C35.3877 46.6621 36.022 45.5315 36.9355 44.6505C37.8491 43.7694 39.0016 43.1767 40.2494 42.9463C41.4973 42.7159 42.7853 42.8579 43.953 43.3547C45.1207 43.8515 46.1165 44.681 46.8164 45.74C47.5162 46.799 47.8891 48.0406 47.8887 49.3102L47.8974 49.3058Z" fill="#ECB4B6"/>
<path opacity="0.1" d="M42.2801 65.2891C42.2801 65.2891 45.5434 67.1283 44.7015 65.5764L40.4657 59.3032L45.2867 65.5045C45.2867 65.5045 48.3652 69.7338 46.6834 72.6484C46.6834 72.6484 46.4376 75.071 46.7248 75.6456C47.012 76.2203 46.6421 82.3389 46.6421 82.3389C46.6421 82.3389 45.4934 81.2701 44.8777 81.4682C44.262 81.6663 39.9109 82.0428 39.9109 82.0428L42.2801 65.2891Z" fill="black"/>
<path opacity="0.1" d="M46.3397 81.0569L46.2766 82.1931C45.8872 81.9101 45.3454 81.5923 44.9843 81.7142C44.3817 81.9188 40.0305 82.2889 40.0305 82.2889L40.2307 80.8762L46.3397 81.0569Z" fill="black"/>
<path d="M42.4041 65.2891C42.4041 65.2891 45.6674 67.1283 44.8255 65.5764L40.5788 59.3032L45.3998 65.5045C45.3998 65.5045 48.4783 69.7338 46.7944 72.6484C46.7944 72.6484 46.5485 75.071 46.8357 75.6456C47.1229 76.2203 46.753 82.3389 46.753 82.3389C46.753 82.3389 45.6043 81.2701 44.9886 81.4682C44.373 81.6663 40.0305 82.0428 40.0305 82.0428L42.4041 65.2891Z" fill="#464353"/>
<path opacity="0.1" d="M44.1445 68.4453C43.9531 70.4174 43.1416 72.766 43.1416 72.766C43.1416 72.766 42.5694 78.5973 41.8362 80.3234C41.1031 82.0495 41.4251 84.4286 41.016 88.8124C40.8681 90.3948 40.3634 91.481 39.6715 92.2145C38.5402 93.4204 36.9281 93.6729 35.6533 93.5988L35.3509 93.5749C33.2993 93.3703 31.3304 83.4752 31.3304 83.4752C31.3304 83.4752 30.3862 75.058 30.756 73.9087C31.1259 72.7595 30.3862 66.1881 30.1404 64.7515C29.9837 63.8417 30.4536 62.3572 30.8191 61.3842C31.0367 60.827 31.2064 60.4395 31.2064 60.4395C31.2064 60.4395 31.9047 58.2237 33.0534 57.0744C33.2118 56.9117 33.4013 56.7825 33.6106 56.6946C33.8199 56.6067 34.0448 56.5619 34.2718 56.5629C34.8129 56.5823 35.3389 56.7469 35.7947 57.0396L35.8469 57.0744C35.8469 57.0744 43.3156 64.7101 44.0118 66.4754C44.1989 66.9739 44.2185 67.6791 44.1445 68.4453Z" fill="black"/>
<path d="M43.8987 68.3169C43.7073 70.2911 42.8958 72.6397 42.8958 72.6397C42.8958 72.6397 42.3214 78.471 41.5904 80.1949C40.8595 81.9188 41.1793 84.3001 40.7681 88.6839C40.6223 90.2642 40.1154 91.3503 39.4236 92.086C38.2945 93.2919 36.6824 93.5422 35.4075 93.4682C35.303 93.4682 35.2051 93.4552 35.1051 93.4443C33.0535 93.2397 31.0846 83.3446 31.0846 83.3446C31.0846 83.3446 30.1404 74.9274 30.5103 73.7781C30.8801 72.6288 30.1404 66.0596 29.8946 64.6209C29.7379 63.711 30.2078 62.2265 30.5733 61.2558C30.7909 60.6963 30.9606 60.3111 30.9606 60.3111C30.9606 60.3111 31.659 58.0931 32.8077 56.9438C32.9657 56.7813 33.1549 56.6523 33.3638 56.5644C33.5727 56.4765 33.7972 56.4316 34.0238 56.4323C34.5648 56.4529 35.0904 56.6175 35.5467 56.9089L35.6011 56.9438C35.6011 56.9438 43.0698 64.5817 43.766 66.347C43.9466 66.8498 43.9727 67.555 43.8987 68.3169Z" fill="#6C63FF"/>
<path opacity="0.1" d="M35.5293 98.3722C35.5293 98.3722 33.8367 99.8828 33.2514 99.8197C32.6662 99.7566 35.5293 98.3722 35.5293 98.3722Z" fill="black"/>
<path opacity="0.1" d="M35.9796 99.822C35.9796 99.822 34.1956 100.651 33.6626 100.775C33.1296 100.899 35.2921 99.6086 35.9796 99.822Z" fill="black"/>
<path opacity="0.1" d="M42.8871 77.1519C42.8871 77.1519 45.5326 77.1823 45.9329 78.0225C46.3332 78.8627 43.7486 76.8167 42.8871 77.1519Z" fill="black"/>
<path opacity="0.1" d="M42.5172 78.6038C42.5172 78.6038 44.5492 79.0391 45.1627 79.5267C45.7762 80.0142 42.5172 78.6038 42.5172 78.6038Z" fill="black"/>
<path opacity="0.1" d="M39.1016 73.5844C39.1016 73.5844 38.8557 81.9406 37.9463 83.0071C37.037 84.0737 39.1016 73.5844 39.1016 73.5844Z" fill="black"/>
<path opacity="0.1" d="M36.8238 97.1772C36.8238 97.1772 35.1333 104.537 38.5316 104.998C41.9298 105.459 40.8856 96.6222 40.8856 96.6222L36.8238 97.1772Z" fill="black"/>
<path d="M36.6997 97.0488C36.6997 97.0488 35.0093 104.408 38.4097 104.872C41.8101 105.335 40.7615 96.4938 40.7615 96.4938L36.6997 97.0488Z" fill="#ECB4B6"/>
<path opacity="0.1" d="M39.6085 66.1532C39.4344 61.7303 33.2471 60.8161 31.8047 64.9996L31.7743 65.0845C30.8322 67.9142 31.2412 75.0972 31.2412 75.0972C31.2412 75.0972 31.3653 79.9141 31.8156 81.514C32.2659 83.1138 33.5386 87.7153 33.5386 88.4532C33.5386 89.1911 34.7178 92.0251 35.216 92.2319C35.7142 92.4387 35.9644 94.0385 36.0862 94.3258C36.2081 94.6131 36.5757 98.3483 36.5757 98.3483C36.5757 98.3483 41.2141 98.061 41.2967 97.3231C41.3794 96.5852 40.2699 92.9698 40.2699 92.9698C40.2699 92.9698 39.4518 91.4918 39.3474 90.3012C39.243 89.1105 38.5881 88.5772 38.71 87.7566C38.8318 86.936 38.3401 86.5247 38.3401 85.9892C38.3401 85.4537 37.9725 84.0193 37.9725 84.0193C37.9725 84.0193 37.1914 83.4033 37.3198 82.6654C37.4481 81.9275 36.2124 80.4474 36.5409 79.9141C36.8695 79.3808 36.9499 78.0661 36.9499 78.0661C36.9499 78.0661 37.3568 72.1456 37.6374 70.5457C37.9181 68.9459 39.5954 66.3578 39.5954 66.3578C39.5954 66.3578 39.6128 66.2838 39.6085 66.1532Z" fill="black"/>
<path opacity="0.1" d="M39.417 92.0969C38.2879 93.3028 36.6758 93.5531 35.4009 93.4791C35.2552 92.9197 35.0398 92.2319 34.7243 92.1013C34.2261 91.8967 33.047 89.054 33.047 88.3248C33.047 87.5956 31.7743 82.9854 31.3239 81.3856C30.8736 79.7857 30.7496 74.9753 30.7496 74.9753C30.7496 74.9753 30.3384 67.7923 31.2826 64.9626C31.2935 64.9343 31.3022 64.906 31.3109 64.8756C32.7554 60.692 38.9406 61.6106 39.1168 66.0314C39.1168 66.162 39.1168 66.2338 39.1168 66.2338C39.1168 66.2338 37.4329 68.8197 37.1588 70.4217C36.8847 72.0237 36.4604 77.9356 36.4604 77.9356C36.4604 77.9356 36.3778 79.2416 36.0493 79.7835C35.7208 80.3255 36.9521 81.797 36.8303 82.5349C36.7085 83.2727 37.483 83.8909 37.483 83.8909C37.483 83.8909 37.8528 85.3253 37.8528 85.8608C37.8528 86.3963 38.3445 86.8055 38.2227 87.6261C38.1008 88.4467 38.7557 88.98 38.8601 90.1728C38.948 90.8385 39.1358 91.4872 39.417 92.0969Z" fill="black"/>
<path d="M39.3626 66.0313C39.1864 61.6084 33.0012 60.692 31.5567 64.8777C31.5567 64.906 31.5392 64.9343 31.5284 64.9626C30.5842 67.7923 30.9954 74.9753 30.9954 74.9753C30.9954 74.9753 31.1194 79.79 31.5697 81.3921C32.0201 82.9941 33.2862 87.5847 33.2862 88.3247C33.2862 89.0648 34.4654 91.8967 34.9636 92.1013C35.4618 92.3059 35.712 93.9079 35.8338 94.1952C35.9557 94.4825 36.332 98.2199 36.332 98.2199C36.332 98.2199 40.9704 97.9326 41.0509 97.1925C41.1313 96.4524 40.0262 92.8392 40.0262 92.8392C40.0262 92.8392 39.2081 91.3612 39.1037 90.1706C38.9993 88.9799 38.3423 88.4445 38.4663 87.6239C38.5903 86.8033 38.0964 86.3919 38.0964 85.8586C38.0964 85.3253 37.7288 83.8865 37.7288 83.8865C37.7288 83.8865 36.9477 83.2705 37.0761 82.5326C37.2044 81.7948 35.9665 80.3146 36.2951 79.7813C36.6236 79.2481 36.7062 77.9333 36.7062 77.9333C36.7062 77.9333 37.1174 72.0215 37.4046 70.4195C37.6918 68.8175 39.3626 66.2316 39.3626 66.2316C39.3626 66.2316 39.3778 66.1619 39.3626 66.0313Z" fill="#6C63FF"/>
<path opacity="0.1" d="M31.7438 77.4023C31.8678 77.2782 34.2065 74.6924 34.9462 75.6174C35.6859 76.5425 31.7438 77.4023 31.7438 77.4023Z" fill="black"/>
<path opacity="0.1" d="M31.9592 79.4048C32.0527 79.3112 34.2979 79.2198 34.8527 77.9573C35.4075 76.6948 31.9592 79.4048 31.9592 79.4048Z" fill="black"/>
<g opacity="0.1">
<path d="M29.3985 56.6913C29.4539 56.7549 29.4961 56.8289 29.5225 56.909C29.5674 56.7687 29.5795 56.6201 29.558 56.4745C29.5365 56.3288 29.4819 56.1901 29.3985 56.0688C29.2898 55.9447 29.1288 55.8685 29.0309 55.7357C29.0309 55.7249 29.0178 55.7118 29.0091 55.7009C28.9551 55.8021 28.9287 55.9157 28.9325 56.0303C28.9363 56.145 28.9702 56.2566 29.0309 56.3539C29.1288 56.4976 29.2898 56.5716 29.3985 56.6913Z" fill="black"/>
<path d="M32.5313 48.716C32.5313 48.4831 32.5422 48.2502 32.5313 48.0194C32.49 47.1814 32.3334 46.3216 32.2986 45.4814C32.2485 46.511 32.4791 47.5906 32.5313 48.6354C32.5313 48.6616 32.5313 48.6898 32.5313 48.716Z" fill="black"/>
</g>
<path d="M54.311 70.0734L54.4372 70.1604C54.3264 70.0842 54.2504 69.9671 54.2259 69.8349C54.2015 69.7026 54.2305 69.566 54.3067 69.4552L60.011 61.1708C60.0876 61.0598 60.205 60.9838 60.3376 60.9593C60.4701 60.9348 60.6069 60.9639 60.7181 61.0402L60.5897 60.9531C60.6785 61.0133 60.7545 61.0903 60.8134 61.1799C60.8724 61.2694 60.9132 61.3697 60.9334 61.4751C60.9536 61.5804 60.9528 61.6886 60.9312 61.7937C60.9096 61.8987 60.8674 61.9984 60.8073 62.0872L55.451 69.8644C55.3906 69.9539 55.3129 70.0304 55.2226 70.0895C55.1322 70.1485 55.031 70.189 54.9249 70.2084C54.8187 70.2279 54.7097 70.226 54.6043 70.2028C54.4989 70.1796 54.3992 70.1356 54.311 70.0734Z" fill="#464353"/>
<path d="M60.6171 60.9672L60.7497 61.0586L54.4704 70.1791L54.3432 70.0915C54.2605 70.0345 54.2038 69.947 54.1857 69.8482C54.1675 69.7494 54.1892 69.6474 54.2462 69.5647L60.096 61.068C60.1523 60.9862 60.2385 60.9298 60.3359 60.911C60.4334 60.8921 60.5344 60.9123 60.6171 60.9672Z" fill="#9F9EFF"/>
<path d="M59.45 62.1515L59.4268 62.1354C59.4101 62.1237 59.387 62.1278 59.3754 62.1446L58.9029 62.8246C58.8913 62.8414 58.8954 62.8644 58.9122 62.8761L58.9354 62.8922C58.9521 62.9039 58.9751 62.8997 58.9868 62.8829L59.4592 62.2029C59.4709 62.1862 59.4668 62.1631 59.45 62.1515Z" fill="#464353"/>
<path opacity="0.1" d="M48.7067 48.5136C48.6153 48.0782 48.2542 47.7452 48.0062 47.3708C47.384 46.4327 47.4819 45.1942 47.7734 44.1058C47.8789 43.8094 47.9233 43.4948 47.9039 43.1807C47.8628 42.9818 47.7806 42.7937 47.6626 42.6284C47.5446 42.4631 47.3934 42.3242 47.2186 42.2208C46.4572 41.718 45.4782 41.7115 44.621 41.3959C43.3766 40.9344 42.2496 39.7982 40.9508 40.0746C40.2416 40.2248 39.6955 40.7733 39.082 41.163C38.405 41.5907 37.6261 41.8297 36.8259 41.8551C36.1537 41.8747 35.4727 41.7441 34.8113 41.8551C34.6924 41.8753 34.5758 41.9074 34.4632 41.9509C33.9036 41.7578 33.3148 41.6628 32.7228 41.6701C32.1398 41.6569 31.566 41.8167 31.0737 42.1294C30.1795 42.7606 29.9424 43.9818 29.9554 45.0766C29.9685 46.1715 30.1534 47.2968 29.8184 48.3416C29.4029 49.6476 28.228 50.6271 27.9931 51.9679C27.8299 52.8778 28.1323 53.7985 28.3999 54.6844C29.1701 57.2289 29.6792 60.0412 28.6566 62.4965C28.3977 63.119 28.004 63.735 27.397 64.0201L29.5725 63.8939C29.6187 64.2032 29.5405 64.5183 29.3549 64.77C29.1694 65.0217 28.8917 65.1896 28.5827 65.2369C29.1297 65.2032 29.6676 65.0804 30.1752 64.8734C30.428 64.7664 30.6512 64.5999 30.8258 64.3881C31.0004 64.1762 31.1213 63.9253 31.1781 63.6566C31.2195 63.365 31.1585 63.058 31.239 62.7729C31.3804 62.2853 31.8917 62.0154 32.2855 61.7042C33.345 60.8792 33.8454 59.4883 33.8867 58.1453C33.928 56.8023 33.5712 55.4811 33.1905 54.1925C32.8098 52.9039 32.4008 51.6044 32.3399 50.2745C32.3141 49.783 32.3595 49.2903 32.4748 48.8118C32.5531 48.9576 32.6401 49.1013 32.7293 49.2362C33.2536 50.0372 33.8671 50.7969 34.1891 51.698C34.3015 52.1245 34.4545 52.5392 34.646 52.9366C34.8635 53.3175 35.2856 53.6331 35.7229 53.5656C36.1602 53.4981 36.4865 53.028 36.6301 52.5796C36.7737 52.1312 36.8368 51.6414 37.1087 51.2583C37.6265 50.5357 38.6599 50.4704 39.5475 50.4965C41.4185 50.5553 43.9988 50.8404 45.4629 49.4082C45.7414 49.1361 45.8741 48.7182 46.3092 48.8205C46.6987 48.9119 46.9162 49.5453 47.3317 49.6911C47.9996 49.9023 48.8633 49.2667 48.7067 48.5136Z" fill="black"/>
<path d="M48.7067 48.2741C48.6153 47.8387 48.2542 47.5057 48.0062 47.1313C47.384 46.1932 47.4819 44.9546 47.7734 43.8663C47.8789 43.5699 47.9233 43.2552 47.9039 42.9412C47.8628 42.7423 47.7806 42.5542 47.6626 42.3889C47.5446 42.2236 47.3934 42.0848 47.2186 41.9813C46.4572 41.4785 45.4782 41.472 44.621 41.1564C43.3766 40.6949 42.2496 39.5587 40.9508 39.8351C40.2416 39.9853 39.6955 40.5338 39.082 40.9235C38.405 41.3512 37.6261 41.5902 36.8259 41.6156C36.1537 41.6352 35.4727 41.5046 34.8113 41.6156C34.6924 41.6358 34.5758 41.6679 34.4632 41.7114C33.9036 41.5183 33.3148 41.4233 32.7228 41.4306C32.1398 41.4174 31.566 41.5772 31.0737 41.8899C30.1795 42.5211 29.9424 43.7423 29.9554 44.8371C29.9685 45.932 30.1534 47.0573 29.8184 48.1021C29.4029 49.3972 28.228 50.3876 27.9931 51.7284C27.8299 52.6383 28.1323 53.559 28.3999 54.4449C29.1701 56.9894 29.6792 59.8017 28.6566 62.257C28.3977 62.8795 28.004 63.4955 27.397 63.7806L29.5725 63.6522C29.6187 63.9616 29.5405 64.2766 29.3549 64.5283C29.1694 64.7801 28.8917 64.948 28.5827 64.9952C29.1297 64.9615 29.6676 64.8388 30.1752 64.6317C30.428 64.5247 30.6512 64.3582 30.8258 64.1464C31.0004 63.9345 31.1213 63.6836 31.1781 63.415C31.2195 63.1233 31.1585 62.8164 31.239 62.5312C31.3804 62.0437 31.8917 61.7738 32.2855 61.4625C33.345 60.6375 33.8454 59.2466 33.8867 57.9036C33.928 56.5606 33.5712 55.2394 33.1905 53.9508C32.8098 52.6622 32.4008 51.3628 32.3399 50.0219C32.3141 49.5304 32.3595 49.0377 32.4748 48.5592C32.5531 48.7051 32.6401 48.8487 32.7293 48.9945C33.2536 49.7956 33.8671 50.5552 34.1891 51.4564C34.3015 51.8828 34.4545 52.2976 34.646 52.6949C34.8635 53.0758 35.2856 53.3914 35.7229 53.3239C36.1602 53.2565 36.4865 52.7863 36.6301 52.3379C36.7737 51.8895 36.8368 51.3998 37.1087 51.0167C37.6265 50.294 38.6599 50.2287 39.5475 50.2548C41.4185 50.3136 43.9988 50.5987 45.4629 49.1665C45.7414 48.8944 45.8741 48.4765 46.3092 48.5788C46.6987 48.6702 46.9162 49.3036 47.3317 49.4495C47.9996 49.6628 48.8633 49.0272 48.7067 48.2741Z" fill="#464353"/>
<g opacity="0.1">
<path d="M29.9555 44.4192C29.9555 44.5607 29.9446 44.7043 29.9555 44.8436C29.9555 45.3007 29.9946 45.7622 30.0098 46.2215C30.0229 45.6272 29.975 45.0199 29.9555 44.4192Z" fill="black"/>
<path d="M29.2136 58.8026C29.2702 57.1113 28.8851 55.3656 28.3912 53.7288C28.1887 53.1419 28.043 52.5369 27.9561 51.9221C27.8648 52.771 28.1367 53.6243 28.3912 54.4471C28.849 55.8581 29.1254 57.3217 29.2136 58.8026Z" fill="black"/>
<path d="M47.5602 45.0591C47.5952 44.6556 47.668 44.2562 47.7777 43.8663C47.8833 43.5699 47.9277 43.2552 47.9083 42.9412C47.8999 42.8858 47.8868 42.8312 47.8691 42.778C47.843 42.902 47.8104 43.0261 47.7777 43.1502C47.5964 43.7693 47.5228 44.415 47.5602 45.0591Z" fill="black"/>
<path d="M29.5574 62.936L28.252 63.0122C28.0407 63.3415 27.7446 63.6077 27.3948 63.7828L29.4399 63.6609C29.5618 63.4402 29.6033 63.184 29.5574 62.936Z" fill="black"/>
<path d="M48.6502 48.089C48.5383 48.3346 48.3425 48.5321 48.0981 48.6463C47.8536 48.7604 47.5765 48.7835 47.3166 48.7115C46.901 48.57 46.6835 47.9366 46.2941 47.8409C45.8589 47.7386 45.7262 48.1565 45.4478 48.4286C43.9836 49.8673 41.4034 49.5822 39.5324 49.5169C38.6447 49.4908 37.6113 49.5561 37.0936 50.2787C36.8216 50.6618 36.7607 51.1494 36.6149 51.6C36.4692 52.0505 36.1798 52.5142 35.7077 52.586C35.2356 52.6578 34.8549 52.3379 34.6308 51.9569C34.4394 51.5596 34.2864 51.1449 34.1739 50.7184C33.852 49.8173 33.2384 49.0576 32.7141 48.2566C32.6249 48.1217 32.5379 47.978 32.4596 47.8322C32.3443 48.3107 32.2989 48.8033 32.3247 49.2949C32.3247 49.3297 32.3247 49.3645 32.3247 49.3994C32.3402 49.1131 32.3824 48.8289 32.4509 48.5505C32.5292 48.6963 32.6162 48.84 32.7054 48.9858C33.2297 49.7868 33.8432 50.5465 34.1652 51.4476C34.2777 51.8741 34.4306 52.2888 34.6221 52.6861C34.8397 53.067 35.2617 53.3827 35.699 53.3152C36.1363 53.2477 36.4626 52.7775 36.6062 52.3291C36.7498 51.8808 36.8129 51.391 37.0849 51.0079C37.6026 50.2853 38.636 50.22 39.5237 50.2461C41.3947 50.3049 43.9749 50.59 45.439 49.1578C45.7175 48.8857 45.8502 48.4677 46.2854 48.57C46.6748 48.6615 46.8923 49.2949 47.3079 49.4407C47.991 49.6736 48.8547 49.038 48.6981 48.2849C48.6887 48.2182 48.6726 48.1526 48.6502 48.089Z" fill="black"/>
<path d="M32.2703 60.7463C31.87 61.0576 31.3652 61.3275 31.2238 61.8151C31.1433 62.1002 31.2042 62.4071 31.1629 62.6988C31.1061 62.9675 30.9852 63.2184 30.8106 63.4302C30.6359 63.6421 30.4127 63.8086 30.16 63.9156C29.96 64.0098 29.7508 64.0828 29.5356 64.1332C29.4769 64.3572 29.354 64.559 29.1819 64.7137C29.0098 64.8684 28.7962 64.9693 28.5674 65.0039C29.1145 64.9702 29.6524 64.8475 30.16 64.6404C30.4127 64.5334 30.6359 64.3669 30.8106 64.1551C30.9852 63.9432 31.1061 63.6923 31.1629 63.4236C31.2042 63.132 31.1433 62.8251 31.2238 62.5399C31.3652 62.0523 31.8765 61.7824 32.2703 61.4712C33.3298 60.6462 33.8302 59.2553 33.8715 57.9123C33.8715 57.7121 33.8715 57.514 33.8715 57.3159C33.7953 58.6132 33.2993 59.9562 32.2703 60.7463Z" fill="black"/>
</g>
</g>
<defs>
<linearGradient id="paint0_linear_22_1063" x1="36.3582" y1="148.268" x2="36.3582" y2="37.8892" gradientUnits="userSpaceOnUse">
<stop stop-color="#808080" stop-opacity="0.25"/>
<stop offset="0.54" stop-color="#808080" stop-opacity="0.12"/>
<stop offset="1" stop-color="#808080" stop-opacity="0.1"/>
</linearGradient>
<clipPath id="clip0_22_1063">
<rect width="228" height="153" fill="white"/>
</clipPath>
</defs>
</svg>
