<svg width="238" height="172" viewBox="0 0 238 172" fill="none" xmlns="http://www.w3.org/2000/svg">
<path d="M110.812 104.943C108.749 103.752 105.519 103.683 103.602 104.79L61.2527 129.24C59.3365 130.347 59.4556 132.212 61.5186 133.403L116.802 165.321C118.865 166.512 122.094 166.58 124.01 165.473L166.359 141.022C168.276 139.916 168.159 138.053 166.096 136.861L110.812 104.943Z" fill="#E1E3EE"/>
<path d="M147.035 20.8795C147.035 20.8795 152.12 25.5837 157.906 28.2435C163.692 30.9034 166.733 34.0155 164.09 39.7806C164.09 39.7806 169.199 43.8546 160.635 50.6308C152.072 57.4075 144.075 56.1975 140.423 53.7978C140.423 53.7978 128.729 51.207 124.943 46.7203C121.157 42.2334 123.255 40.7398 122.826 35.4459C122.394 30.1531 147.035 20.8795 147.035 20.8795Z" fill="#10243E"/>
<path d="M128.319 109.88C128.319 109.88 129.788 115.496 128.319 117.085C126.85 118.675 123.257 120.139 119.424 120.407C116.07 120.642 114.865 117.848 117.823 115.513C120.78 113.178 122.752 112.319 122.625 108.962L128.319 109.88Z" fill="#10243E"/>
<path d="M124.057 63.8144C124.057 63.8144 119.575 100.63 117.822 109.807C117.822 109.807 128.657 114.809 135.611 110.369C135.611 110.369 139.317 78.4549 138.756 65.4317L124.057 63.8144Z" fill="#4B61DC"/>
<path d="M123.817 65.7803L123.085 71.6689C123.085 71.6689 130.911 76.7301 138.734 74.1933L138.815 67.4304L123.817 65.7803Z" fill="#10243E"/>
<path d="M155.547 107.87C155.547 107.87 158.352 112.951 157.319 114.852C156.287 116.754 153.164 119.056 149.514 120.259C146.322 121.312 144.467 118.901 146.759 115.911C149.051 112.92 150.752 111.602 149.803 108.382L155.547 107.87Z" fill="#10243E"/>
<path d="M140.088 64.281C140.088 64.281 144.798 101.058 145.357 110.382C145.357 110.382 157.088 112.564 162.737 106.551C162.737 106.551 158.016 71.7259 154.929 58.6167L140.088 64.281Z" fill="#4B61DC"/>
<path d="M140.082 63.4698L141.378 72.4257C141.378 72.4257 149.604 70.9138 156.563 66.531L155.229 58.7882L140.082 63.4698Z" fill="#10243E"/>
<path d="M123.604 37.1436C122.669 38.7035 116.569 42.877 114.356 44.1597C111.702 45.6972 100.854 44.4127 99.7275 44.6504C94.91 45.6675 94.9565 54.8228 99.5366 57.3955C105.404 60.6909 126.012 53.973 127.856 49.7792C131.346 41.8274 131.349 38.8506 131.349 38.8506L123.604 37.1436Z" fill="#7887DA"/>
<path d="M124.748 52.5097C121.804 54.2331 117.241 55.9599 112.71 57.0664C113.391 55.4803 117.583 55.5566 119.368 53.0808C121.886 49.5883 121.82 43.9843 121.82 43.9843L124.595 51.5387C124.595 51.5387 124.667 51.9319 124.748 52.5097Z" fill="#10243E"/>
<path d="M142.104 31.6013L126.211 32.5316C126.211 32.5316 120.997 38.181 121.104 42.9514C121.194 47.013 123.202 50.7688 123.202 50.7688L120.077 67.2862C120.077 67.2862 130.663 72.0166 141.363 68.4375C152.063 64.8589 158.184 57.9679 158.184 57.9679L142.104 31.6013Z" fill="#7887DA"/>
<path d="M141.29 33.5385C141.29 33.5385 138.055 40.2734 133.195 41.4776C128.335 42.6819 125.389 40.8165 125.862 37.8222C126.334 34.8281 141.29 33.5385 141.29 33.5385Z" fill="#10243E"/>
<path d="M140.654 40.4756L142.683 50.8905C145.567 56.2228 147.092 60.4593 150.873 62.6582C150.873 62.6582 154.636 62.6903 158.183 57.9321L148.092 40.5226L140.654 40.4756Z" fill="#10243E"/>
<path d="M168.231 62.1392C168.231 62.1392 173.293 62.2278 176.45 63.0074C179.824 63.8399 177.747 65.8632 175.352 65.619C173.931 65.4747 173.774 65.697 173.774 65.697C173.774 65.697 175.893 66.7459 177.602 68.7143C179.311 70.6838 177.504 71.7078 175.952 70.8698C174.401 70.0329 171.971 69.4206 171.971 69.4206C171.971 69.4206 173.678 71.8234 173.865 73.3036C174.054 74.7847 172.255 75.7646 171.361 74.2563C170.468 72.7476 169.428 71.7232 169.428 71.7232C169.428 71.7232 169.197 73.8518 168.967 74.7284C168.736 75.605 166.17 75.9815 166.106 74.2859C166.042 72.5903 165.415 69.6226 165.415 69.6226L168.231 62.1392Z" fill="#88DAFF"/>
<path d="M142.776 33.3867C140.734 33.9391 138.041 34.8728 139.685 41.0343C141.327 47.1956 158.208 66.5273 160.264 70.6655C160.264 70.6655 170.859 71.8857 170.474 61.4555C170.474 61.4555 155.69 44.6182 150.668 39.1143C145.643 33.6087 145.118 32.7529 142.776 33.3867Z" fill="#7887DA"/>
<path d="M129.737 11.8573C137.386 11.8573 143.587 18.0583 143.587 25.7074C143.587 33.3566 137.386 39.5573 129.737 39.5573C122.087 39.5573 115.887 33.3566 115.887 25.7074C115.887 18.0583 122.087 11.8573 129.737 11.8573Z" fill="#88DAFF"/>
<path d="M141.128 12.166C141.128 12.166 136.818 4.29688 130.137 5.16705C123.457 6.03704 122.911 8.98475 122.911 8.98475C122.911 8.98475 117.404 5.48715 111.832 10.7012C106.263 15.9152 109.859 24.0355 116.978 23.0396C116.978 23.0396 120.023 27.4677 124.713 24.2524C124.713 24.2524 130.282 28.9696 133.43 23.1197C133.43 23.1197 133.88 26.0534 137.461 25.9961C137.461 25.9961 136.832 20.5545 140.859 21.783C144.886 23.0118 143.62 28.2726 140.365 29.5293C139.791 33.643 144.347 39.2592 150.949 34.4627C156.513 30.4196 153.693 23.5296 149.414 22.6036C149.414 22.6036 152.305 10.429 141.128 12.166Z" fill="#10243E"/>
<path d="M157.798 127.351C162.156 127.351 165.689 128.857 165.689 130.715C165.689 132.573 162.156 134.08 157.798 134.08C153.44 134.08 149.908 132.573 149.908 130.715C149.908 128.857 153.44 127.351 157.798 127.351Z" fill="#E1E3EE"/>
<path d="M167.102 128.97C172.981 128.97 177.747 130.845 177.747 133.157C177.747 135.469 172.981 137.344 167.102 137.344C161.223 137.344 156.457 135.469 156.457 133.157C156.457 130.845 161.223 128.97 167.102 128.97Z" fill="#E1E3EE"/>
<path d="M146.561 124.1C145.223 119.758 140.029 109.448 144.862 104.846C149.332 100.591 153.381 107.954 153.649 113.507C153.649 113.507 153.92 89.8866 161.769 90.6189C169.618 91.3514 164.682 105.981 162.361 112.018C162.361 112.018 170.982 100.658 175.025 105.806C179.068 110.953 160.752 127.984 160.752 127.984C159.446 129.666 156.266 131.387 152.892 130.9C150.101 130.498 147.474 127.06 146.561 124.1Z" fill="#7887DA"/>
<path d="M161.308 96.2456C161.355 96.0283 161.569 95.8907 161.786 95.9376C162.003 95.9841 162.14 96.1979 162.094 96.4148C162.094 96.4148 156.662 121.574 152.731 131.09C152.647 131.295 152.412 131.392 152.207 131.308C152.002 131.223 151.904 130.988 151.989 130.783C155.903 121.305 161.308 96.2456 161.308 96.2456Z" fill="#F2F3F7"/>
<path d="M148.53 111.919C148.516 111.698 148.684 111.507 148.905 111.492C149.127 111.478 149.318 111.646 149.332 111.867C149.332 111.867 149.577 115.647 150.779 119.33C151.562 121.727 152.742 124.094 154.563 125.284C154.748 125.406 154.801 125.655 154.679 125.841C154.558 126.026 154.309 126.078 154.123 125.957C152.165 124.677 150.858 122.157 150.016 119.579C148.781 115.799 148.53 111.919 148.53 111.919Z" fill="#F2F3F7"/>
<path d="M156.096 120.834C155.88 120.884 155.664 120.749 155.614 120.533C155.563 120.317 155.698 120.101 155.914 120.051C155.914 120.051 164.897 117.975 169.16 111.73C169.285 111.547 169.535 111.5 169.718 111.625C169.901 111.75 169.949 112 169.824 112.183C165.402 118.66 156.096 120.834 156.096 120.834Z" fill="#F2F3F7"/>
<path d="M165.458 123.579C170.215 123.526 168.904 126.81 171.897 128.745C174.64 130.519 174.578 134.394 170.183 135.194C165.788 135.994 162.059 135.868 159.02 134.948C153.536 133.288 154.628 129.38 158.135 128.238C161.037 127.294 161.928 123.618 165.458 123.579Z" fill="#10243E"/>
<path d="M166.703 125.982C167.31 125.982 167.801 126.455 167.801 127.039C167.801 127.624 167.31 128.097 166.703 128.097C166.097 128.097 165.605 127.624 165.605 127.039C165.605 126.455 166.097 125.982 166.703 125.982Z" fill="#E1E3EE"/>
<path d="M168.356 128.341C168.661 128.341 168.909 128.568 168.909 128.847C168.909 129.127 168.661 129.353 168.356 129.353C168.051 129.353 167.803 129.127 167.803 128.847C167.803 128.568 168.051 128.341 168.356 128.341Z" fill="#E1E3EE"/>
<path d="M69.3351 124.575L98.3929 107.798C100.092 106.816 103.063 106.941 105.024 108.072L149.603 133.81V128.311H159.225V140.84H159.207C159.119 141.373 158.748 141.872 158.08 142.258L120.543 163.929C118.843 164.908 115.874 164.786 113.912 163.655L61.3332 133.297C60.2665 132.683 59.7172 131.894 59.7103 131.146V118.619H69.3351V124.575Z" fill="#40C3FD"/>
<path d="M105.022 95.7743C103.06 94.6413 100.087 94.518 98.3894 95.4986L60.8525 117.17C59.1542 118.151 59.3679 119.867 61.3301 121L113.909 151.356C115.871 152.489 118.841 152.611 120.539 151.63L158.076 129.959C159.774 128.978 159.563 127.264 157.601 126.131L105.022 95.7743Z" fill="#88DAFF"/>
<path d="M134.282 117.22V88.9172C134.282 88.0674 134.056 86.7695 133.194 85.6653C131.804 83.8845 126.123 76.6047 124.732 74.8237C124.539 74.5762 124.301 74.3693 124.03 74.2125C121.519 72.7626 110.679 66.5041 106.428 64.05C105.627 63.5873 104.634 63.6185 103.864 64.1294C97.6976 68.2142 68.1101 84.6414 68.1101 84.6414L98.6954 137.765L134.282 117.22Z" fill="#7887DA"/>
<path d="M98.7458 108.662C98.7458 107.791 98.1622 106.656 97.6755 106.037C97.4816 105.791 90.5359 97.1523 89.1459 95.3711C88.952 95.1237 88.7146 94.9168 88.4434 94.7602C86.2952 93.5201 76.2518 87.7215 70.7324 84.5347C69.9794 84.0998 69.0494 84.0998 68.2961 84.5358C67.5405 84.9702 67.0754 85.7747 67.0754 86.6456V119.512L98.7458 137.797V108.662Z" fill="#4B61DC"/>
<path d="M128.249 97.9407L104.871 111.437L104.871 134.205L128.248 120.708L128.249 97.9407Z" fill="#10243E"/>
<path d="M108.663 109.263L104.75 111.523L104.867 134.216L121.131 143.744L144.805 130.075L128.375 120.644L108.663 109.263Z" fill="#E1E3EE"/>
<path d="M72.9883 103.452L72.4192 102.466L76.371 100.185L76.374 100.188C77.7905 99.4515 79.7054 99.6022 81.8121 100.819C86.1711 103.335 89.7097 109.465 89.7097 114.498C89.7097 117.012 88.8251 118.782 87.3961 119.607L83.546 121.83L82.957 120.811C82.1734 120.66 81.3339 120.339 80.4629 119.836C77.832 118.318 79.3938 113.748 77.9583 110.632C77.0153 108.585 72.5653 108.153 72.5653 106.157C72.5653 105.125 72.7143 104.22 72.9883 103.452Z" fill="#40C3FD"/>
<path d="M77.9579 121.285C73.5963 118.767 70.0605 112.643 70.0605 107.606C70.0605 102.57 73.5963 100.529 77.9579 103.047C82.3194 105.565 85.855 111.689 85.855 116.726C85.855 121.762 82.3194 123.803 77.9579 121.285Z" fill="#88DAFF"/>
<path d="M72.1079 109.338L71.8034 108.81L73.9197 107.589L73.9214 107.591C74.6797 107.196 75.7053 107.277 76.8337 107.928C79.168 109.276 81.063 112.559 81.063 115.254C81.063 116.6 80.5892 117.548 79.8241 117.99L77.7622 119.181L77.4466 118.635C77.0269 118.554 76.5773 118.382 76.111 118.113C74.7023 117.299 75.5385 114.852 74.7697 113.184C74.2647 112.087 71.8818 111.856 71.8818 110.787C71.8818 110.234 71.9613 109.75 72.1079 109.338Z" fill="#10243E"/>
<path d="M74.7697 118.889C72.4338 117.541 70.5403 114.261 70.5403 111.564C70.5403 108.866 72.4338 107.773 74.7697 109.122C77.1053 110.47 78.999 113.75 78.999 116.447C78.999 119.144 77.1053 120.238 74.7697 118.889Z" fill="#10243E"/>
<path d="M73.1045 112.983C73.8689 112.546 74.8493 112.808 75.2922 113.572C75.7353 114.336 75.4751 115.319 74.7106 115.761L71.3379 117.709C70.8397 117.993 70.2303 117.993 69.7374 117.709C69.239 117.42 68.9343 116.89 68.9343 116.317V90.3225C68.9343 89.4386 69.6486 88.7182 70.5349 88.7182C71.4211 88.7182 72.141 89.4386 72.141 90.3225V113.545L73.1045 112.983Z" fill="#F2F3F7"/>
<path d="M70.5349 80.4464C73.6718 80.4464 76.2143 82.9892 76.2143 86.1257C76.2143 89.2626 73.6718 91.8053 70.5349 91.8053C67.3984 91.8053 64.8556 89.2626 64.8556 86.1257C64.8556 82.9892 67.3984 80.4464 70.5349 80.4464Z" fill="#10243E"/>
<path d="M68.3643 82.6129C69.0584 82.6129 69.6214 83.1758 69.6214 83.8701C69.6214 84.5645 69.0584 85.1273 68.3643 85.1273C67.6701 85.1273 67.1071 84.5645 67.1071 83.8701C67.1071 83.1758 67.6701 82.6129 68.3643 82.6129Z" fill="#E1E3EE"/>
<path d="M109.526 116.045L121.38 109.201L132.748 115.764L120.894 122.609L109.526 116.045Z" fill="#88DAFF"/>
<path d="M120.891 122.607L132.745 115.763L132.745 128.889L120.891 135.734L120.891 122.607Z" fill="#40C3FD"/>
<path d="M109.522 116.042L120.89 122.605L120.89 135.732L109.521 129.169L109.522 116.042Z" fill="#40C3FD"/>
<path d="M87.7865 79.0655L101.616 70.8325C102.83 70.1305 104.913 70.1837 106.376 70.9273L107.794 70.4216V72.8248L107.783 72.8296C107.72 73.2334 107.441 73.6121 106.937 73.9033L87.2854 85.4999C86.0133 86.2317 83.7902 86.1393 82.3217 85.2922C81.5991 84.8765 81.1928 84.3522 81.119 83.8421L81.1073 83.8469V81.4435L87.7865 79.0655Z" fill="#E1E3EE"/>
<path d="M106.581 68.8904C105.113 68.0426 102.888 67.9505 101.617 68.6845L81.9657 80.28C80.6944 81.0139 80.8539 82.2983 82.3205 83.145C83.7892 83.993 86.0135 84.085 87.2851 83.3511L106.936 71.7556C108.208 71.0215 108.048 69.7372 106.581 68.8904Z" fill="#F2F3F7"/>
<path d="M104.278 70.2806C103.517 69.8417 102.066 69.9666 101.039 70.5597L85.1059 79.8881C84.0791 80.4809 83.8627 81.3187 84.6221 81.7571C85.3824 82.196 86.8335 82.0711 87.8601 81.4783L103.794 72.1497C104.821 71.5567 105.037 70.7191 104.278 70.2806Z" fill="#10243E"/>
<path d="M95.1538 77.2081L91.1919 79.528L90.1616 80.1313L87.8604 81.4785C87.8282 81.4971 87.796 81.5157 87.7621 81.5327C87.496 81.675 87.2046 81.7886 86.9063 81.8682C86.2793 82.0377 85.6218 82.0665 85.1016 81.9411C83.7917 80.8701 82.7444 79.145 82.1192 76.8133C80.2466 69.8232 82.8783 59.9946 87.9993 54.8736C90.5547 52.3182 93.2508 51.4184 95.5419 52.0335C96.2146 52.2114 96.8518 52.5216 97.4415 52.9604C98.06 53.4163 98.6243 54.0145 99.1174 54.7465C99.5038 55.3176 99.8478 55.97 100.141 56.7021C100.322 57.1511 100.483 57.629 100.624 58.1374C100.637 58.1814 100.649 58.2272 100.661 58.2713C101.791 62.4907 95.5588 65.5478 93.8507 70.1756C93.122 72.1498 94.5929 74.9391 95.1538 77.2081Z" fill="#7887DA"/>
<path d="M99.3852 53.0605L95.5436 52.0319L95.5419 52.0336L94.8742 53.7909L93.3796 57.7121L89.7972 67.1153L98.6938 56.209L98.7412 56.1514L98.7633 56.0684L99.1174 54.7466L99.5563 53.108V53.1063L99.3852 53.0605ZM87.4926 73.7394V73.736L85.9794 71.3687L86.7046 79.5756L86.9063 81.8683C87.2045 81.7887 87.496 81.6751 87.7621 81.5328C87.796 81.5158 87.8282 81.4972 87.8603 81.4786L90.1616 80.1314L91.1919 79.5281L87.4926 73.7394Z" fill="#7887DA"/>
<path d="M104.099 71.9482C104.006 72.0176 103.905 72.0854 103.793 72.1498L101.693 73.3801L99.9105 74.4239L95.1538 77.2081L91.1919 79.528L90.1616 80.1313L87.8604 81.4784C87.8282 81.4971 87.796 81.5157 87.7621 81.5327C87.3622 80.965 87.008 80.3109 86.7047 79.5754C86.4878 79.0552 86.298 78.4926 86.137 77.8893C84.2628 70.8941 86.8945 61.0724 92.0155 55.9497C92.9594 55.0058 93.9202 54.289 94.8742 53.7908C95.7435 53.3332 96.6061 53.0587 97.4415 52.9604C98.1109 52.8808 98.7633 52.9147 99.3852 53.0604L99.5563 53.1062V53.1079C101.852 53.7179 103.745 55.8412 104.682 59.3439C105.692 63.116 105.394 67.7117 104.099 71.9482Z" fill="#ABB3DB"/>
<path d="M103.384 65.7951C103.383 65.8731 103.379 65.9527 103.374 66.0307C103.373 66.0629 103.371 66.0968 103.369 66.1307C103.366 66.2069 103.361 66.2832 103.356 66.3594C103.347 66.5052 103.335 66.6509 103.322 66.7966C103.317 66.8576 103.312 66.9187 103.305 66.9797C103.298 67.0593 103.29 67.1373 103.281 67.2169C103.273 67.2965 103.264 67.3762 103.254 67.4558C103.235 67.6151 103.215 67.7744 103.191 67.932C103.181 68.0117 103.169 68.0913 103.156 68.1709C103.147 68.2336 103.137 68.2963 103.127 68.3573C103.084 68.6132 103.039 68.8691 102.988 69.125C102.973 69.2046 102.956 69.2843 102.939 69.3639C102.822 69.9181 102.685 70.4705 102.525 71.0161C102.503 71.0941 102.479 71.172 102.456 71.25C102.434 71.3262 102.41 71.4042 102.385 71.4821C102.344 71.616 102.3 71.7482 102.256 71.8804C102.191 72.0736 102.124 72.2667 102.052 72.4599C101.949 72.7429 101.841 73.0242 101.725 73.3021C101.714 73.3292 101.703 73.3547 101.693 73.3801L99.9105 74.4239L95.1538 77.2081L91.1919 79.528L90.1616 80.1313C90.1565 80.1262 90.1498 80.1211 90.1447 80.116C90.1006 80.077 90.0566 80.0364 90.0142 79.9957C89.9312 79.916 89.8498 79.833 89.7702 79.7466C89.7227 79.6958 89.6753 79.6432 89.6295 79.589C89.5719 79.5246 89.516 79.4568 89.4618 79.3873C89.4126 79.3246 89.3635 79.2602 89.3143 79.1942C89.3042 79.1806 89.294 79.167 89.2838 79.1518C89.2364 79.0857 89.1889 79.0179 89.1432 78.9484C89.0923 78.8722 89.0415 78.7942 88.9924 78.7129C88.9432 78.6333 88.8941 78.5519 88.8466 78.4672C88.8026 78.3892 88.7585 78.3096 88.7145 78.2283C88.7111 78.2215 88.7094 78.2164 88.706 78.2113C88.6619 78.1232 88.6162 78.0351 88.5738 77.9436C88.4975 77.7843 88.423 77.6182 88.3535 77.4471L88.3027 77.32C88.2773 77.2539 88.2518 77.1878 88.2264 77.1183C88.1841 77.0048 88.1434 76.8878 88.1044 76.7675C88.0739 76.6777 88.0451 76.5879 88.018 76.4947C87.979 76.371 87.9434 76.2456 87.9095 76.1168C87.8841 76.0219 87.8604 75.927 87.8367 75.8321C87.818 75.7576 87.8011 75.6796 87.7841 75.6034C87.7689 75.539 87.7553 75.4746 87.7418 75.4102C87.7079 75.2492 87.6774 75.0882 87.6486 74.9272C87.6333 74.8374 87.6181 74.7459 87.6045 74.6544C87.5893 74.5527 87.574 74.4527 87.5621 74.3511C87.5486 74.2494 87.535 74.1477 87.5249 74.046C87.513 73.9444 87.5028 73.8427 87.4927 73.7393V73.7359C87.4825 73.6258 87.4723 73.5139 87.4656 73.4038C87.4605 73.3547 87.4571 73.3055 87.4554 73.2564C87.4486 73.1428 87.4418 73.031 87.4367 72.9174C87.4317 72.7921 87.4266 72.6683 87.4249 72.5429C87.4215 72.4091 87.4198 72.2735 87.4198 72.1396C87.4198 67.1644 89.4279 61.6079 92.6645 58.3712C92.8204 58.2153 92.9763 58.0679 93.1322 57.9289C93.178 57.8866 93.2237 57.8459 93.2695 57.8069C93.3068 57.7747 93.3423 57.7425 93.3796 57.712C93.4067 57.69 93.4338 57.668 93.4593 57.6459C93.5067 57.607 93.5542 57.568 93.6016 57.5307C93.8626 57.3223 94.1252 57.1342 94.3879 56.9664C94.4913 56.9003 94.5946 56.8359 94.698 56.7766C94.7065 56.7715 94.7166 56.7664 94.7251 56.7614C94.8149 56.7088 94.903 56.6597 94.9929 56.6139C95.3674 56.4208 95.7385 56.2665 96.1062 56.1547C96.1519 56.1395 96.1994 56.1259 96.2468 56.1123C96.3011 56.0971 96.357 56.0835 96.4129 56.07C96.4638 56.0564 96.5146 56.0446 96.5654 56.0344C96.6671 56.0124 96.7688 55.9937 96.8704 55.9785C96.9213 55.97 96.9704 55.9632 97.0213 55.9564C97.1212 55.9446 97.2212 55.9344 97.3212 55.9293C97.3568 55.9259 97.3907 55.9242 97.4263 55.9225C97.5415 55.9192 97.6567 55.9175 97.772 55.9209C97.8669 55.9242 97.9601 55.931 98.0533 55.9412C98.0973 55.9446 98.1414 55.9497 98.1854 55.9547H98.1871C98.2397 55.9615 98.2905 55.9683 98.3413 55.9785C98.3888 55.9852 98.4362 55.9937 98.482 56.0039C98.5294 56.0124 98.5769 56.0225 98.6243 56.0344C98.6718 56.0429 98.7175 56.0547 98.7633 56.0683C98.7718 56.07 98.7802 56.0717 98.787 56.0751C98.8463 56.0903 98.9039 56.1073 98.9616 56.1259C99.0243 56.1445 99.087 56.1666 99.1497 56.1903C99.2124 56.2123 99.2734 56.236 99.3361 56.2632C99.4479 56.3089 99.5564 56.3614 99.6648 56.4174C99.7139 56.4428 99.7614 56.4682 99.8105 56.497H99.8122C99.8614 56.5241 99.9122 56.5546 99.9614 56.5851C99.9715 56.5902 99.9817 56.597 99.9919 56.6038C100.041 56.636 100.092 56.6682 100.141 56.7021C100.18 56.7275 100.217 56.7546 100.255 56.7817C100.293 56.8071 100.331 56.8359 100.368 56.8664C100.393 56.8868 100.421 56.9054 100.446 56.9274C100.466 56.9427 100.487 56.9596 100.507 56.9749C100.534 56.9986 100.561 57.0223 100.588 57.0444C100.661 57.1071 100.732 57.1715 100.804 57.2392C100.909 57.3409 101.012 57.4477 101.114 57.5595C101.148 57.5968 101.18 57.6341 101.214 57.673C101.248 57.712 101.281 57.751 101.312 57.7917C101.344 57.8306 101.376 57.8713 101.407 57.912C101.439 57.9543 101.471 57.995 101.502 58.0374C101.534 58.0797 101.564 58.1221 101.595 58.1662C101.622 58.2051 101.649 58.2441 101.675 58.2831C101.708 58.3322 101.742 58.3831 101.775 58.4356C101.825 58.5169 101.876 58.5983 101.925 58.683C101.939 58.705 101.951 58.7288 101.964 58.7508C101.986 58.7898 102.008 58.8271 102.029 58.8677C102.312 59.3812 102.557 59.9607 102.759 60.603C102.783 60.6741 102.805 60.747 102.827 60.8216C102.856 60.9182 102.883 61.0164 102.91 61.1164C103.296 62.5602 103.445 64.1531 103.384 65.7951Z" fill="#7887DA"/>
<path d="M99.9105 74.4239L95.1538 77.2081L91.1919 79.528L90.1616 80.1313C90.1565 80.1262 90.1498 80.1211 90.1447 80.116C90.1006 80.077 90.0566 80.0364 90.0142 79.9957C89.9312 79.916 89.8498 79.833 89.7702 79.7466C89.7227 79.6958 89.6753 79.6432 89.6295 79.589C89.5719 79.5246 89.516 79.4568 89.4618 79.3873C89.4126 79.3246 89.3635 79.2602 89.3143 79.1942C89.3042 79.1806 89.294 79.167 89.2838 79.1518C89.2364 79.0857 89.1889 79.0179 89.1432 78.9484C89.0923 78.8722 89.0415 78.7942 88.9924 78.7129C88.9432 78.6333 88.8941 78.5519 88.8466 78.4672C88.8026 78.3892 88.7585 78.3096 88.7145 78.2283C88.7111 78.2215 88.7094 78.2164 88.706 78.2113C88.6619 78.1232 88.6162 78.0351 88.5738 77.9436C88.4959 77.7843 88.423 77.6182 88.3535 77.4471L88.3027 77.32C88.2773 77.2539 88.2518 77.1878 88.2264 77.1183C88.1841 77.0048 88.1434 76.8878 88.1044 76.7675C88.0739 76.6777 88.0451 76.5879 88.018 76.4947C87.979 76.371 87.9434 76.2456 87.9095 76.1168C87.8841 76.0219 87.8604 75.927 87.8367 75.8321C87.818 75.7576 87.8011 75.6796 87.7841 75.6034C87.7689 75.539 87.7553 75.4746 87.7418 75.4102C87.7079 75.2492 87.6774 75.0882 87.6486 74.9272C87.6333 74.8374 87.6181 74.7459 87.6045 74.6544C87.5893 74.5527 87.574 74.4527 87.5621 74.3511C87.5486 74.2494 87.535 74.1477 87.5249 74.046C87.513 73.9444 87.5028 73.8427 87.4927 73.7393V73.7359C87.4825 73.6258 87.4723 73.5139 87.4656 73.4038C87.4605 73.3547 87.4571 73.3055 87.4554 73.2564C87.4486 73.1428 87.4418 73.031 87.4367 72.9174C87.4317 72.792 87.4266 72.6683 87.4249 72.5429C87.4215 72.4091 87.4198 72.2735 87.4198 72.1396C87.4198 67.1644 89.4279 61.6079 92.6645 58.3712C92.8204 58.2153 92.9763 58.0679 93.1322 57.9289C93.178 57.8866 93.2237 57.8459 93.2695 57.8069C93.3068 57.7747 93.3423 57.7425 93.3796 57.712C93.4067 57.69 93.4338 57.668 93.4593 57.6459C93.5067 57.607 93.5542 57.568 93.6016 57.5307C93.8626 57.3223 94.1252 57.1342 94.3879 56.9664C94.4913 56.9003 94.5946 56.8359 94.698 56.7766C94.7065 56.7715 94.7166 56.7664 94.7251 56.7614C94.8149 56.7105 94.9047 56.6614 94.9929 56.6139C95.3674 56.4208 95.7385 56.2665 96.1062 56.1547C96.1519 56.1395 96.1994 56.1259 96.2468 56.1123C96.3011 56.0971 96.357 56.0835 96.4129 56.07C96.4637 56.0564 96.5146 56.0446 96.5654 56.0344C96.6671 56.0124 96.7688 55.9937 96.8704 55.9785C96.9213 55.97 96.9704 55.9632 97.0213 55.9564C97.1212 55.9446 97.2212 55.9344 97.3212 55.9293C97.3568 55.9259 97.3907 55.9242 97.4263 55.9225C97.5415 55.9192 97.6567 55.9175 97.772 55.9209C97.8669 55.9242 97.9601 55.931 98.0533 55.9412C98.0973 55.9446 98.1414 55.9497 98.1854 55.9547H98.1871C98.36 56.0293 98.5277 56.1123 98.6938 56.2089C99.4259 56.6326 100.08 57.2782 100.624 58.1374C101.088 58.8728 101.471 59.7642 101.751 60.8063C102.852 64.9174 102.03 70.2332 99.9105 74.4239Z" fill="#ABB3DB"/>
<path d="M102.297 52.3775C102.297 52.3775 103.024 50.1737 100.018 47.9898C97.0109 45.8053 92.3678 46.8186 90.4907 49.7289C88.6128 52.6373 91.3224 51.9634 92.6408 51.2091C92.6408 51.2091 89.459 53.2801 91.4322 53.8077C93.4054 54.3358 94.827 52.6519 94.827 52.6519C94.827 52.6519 92.3014 55.6631 94.272 55.3659C96.2428 55.0685 97.8904 54.1023 97.8904 54.1023C97.8904 54.1023 96.4 55.6491 97.9397 55.7416C99.4779 55.8329 100.81 55.4625 102.297 52.3775Z" fill="#88DAFF"/>
<path d="M62.9253 27.4185C62.9253 16.4505 71.8166 7.55927 82.7845 7.55927C93.7523 7.55927 102.643 16.4505 102.643 27.4185C102.643 38.3865 93.7523 47.2778 82.7845 47.2778C71.8166 47.2778 62.9253 38.3865 62.9253 27.4185Z" fill="#4B61DC"/>
<path d="M107.448 25.6055C108.115 25.9635 108.532 26.6607 108.532 27.4175C108.532 28.1745 108.115 28.8716 107.448 29.2297C102.519 31.8746 93.934 36.4806 93.934 36.4806V18.3517C93.934 18.3517 102.519 22.9608 107.448 25.6055Z" fill="#4B61DC"/>
<path d="M82.7852 21.1537C86.2436 21.1537 89.0527 23.9626 89.0527 27.4212C89.0527 30.8815 86.2436 33.6905 82.7852 33.6905C79.3247 33.6905 76.5158 30.8815 76.5158 27.4212C76.5158 23.9626 79.3247 21.1537 82.7852 21.1537ZM84.4672 15.9169C83.351 15.7547 82.2173 15.7547 81.1011 15.9169L80.7559 18.6704C79.791 18.8948 78.8707 19.2757 78.0307 19.799L75.8395 18.0973C74.9352 18.7702 74.1342 19.573 73.4594 20.4772L75.163 22.6684C74.6378 23.5086 74.2569 24.4289 74.0344 25.3937L71.2807 25.739C71.1168 26.8551 71.1168 27.9891 71.2807 29.1051L74.0344 29.4505C74.2569 30.4135 74.6378 31.3355 75.163 32.1738L73.4594 34.3651C74.1342 35.2712 74.9352 36.0722 75.8395 36.7468L78.0307 35.0433C78.8707 35.5665 79.791 35.9493 80.7559 36.1718L81.1011 38.9255C82.2173 39.0894 83.351 39.0894 84.4672 38.9255L84.8126 36.1718C85.7773 35.9493 86.6976 35.5665 87.5378 35.0433L89.729 36.7468C90.6333 36.0722 91.4345 35.2712 92.1089 34.3651L90.4053 32.1738C90.9305 31.3355 91.3114 30.4135 91.5339 29.4505L94.2876 29.1051C94.4515 27.9891 94.4515 26.8551 94.2876 25.739L91.5339 25.3937C91.3114 24.4289 90.9305 23.5086 90.4053 22.6684L92.1089 20.4772C91.4345 19.573 90.6333 18.7702 89.729 18.0973L87.5378 19.799C86.6976 19.2757 85.7773 18.8948 84.8126 18.6704L84.4672 15.9169Z" fill="#F2F3F7"/>
<path d="M82.7021 30.2601C82.2644 30.2601 81.8431 30.2013 81.4415 30.0837C81.0399 29.9661 80.7166 29.8126 80.4683 29.6233L80.8994 28.6664C81.1346 28.8363 81.4154 28.9734 81.7354 29.078C82.0556 29.1858 82.382 29.2412 82.7118 29.2412C82.9633 29.2412 83.1658 29.2151 83.3193 29.1661C83.4728 29.1171 83.587 29.0487 83.6589 28.9572C83.7338 28.8691 83.7697 28.7677 83.7697 28.6537C83.7697 28.5064 83.7111 28.389 83.5969 28.3041C83.4825 28.2192 83.3289 28.1473 83.143 28.0919C82.9533 28.0362 82.7479 27.984 82.5191 27.935C82.2905 27.8862 82.0653 27.8242 81.8369 27.7522C81.6113 27.6771 81.4024 27.5824 81.2129 27.468C81.0269 27.3538 80.8733 27.2035 80.7559 27.0142C80.6381 26.8281 80.5795 26.5863 80.5795 26.2924C80.5795 25.979 80.6644 25.6949 80.8342 25.437C81.0038 25.1757 81.2587 24.9698 81.6017 24.8165C81.9443 24.6631 82.3756 24.5847 82.8916 24.5847C83.2374 24.5847 83.5772 24.627 83.9102 24.7055C84.2432 24.7872 84.5406 24.908 84.7953 25.0712L84.4035 26.0345C84.1488 25.8876 83.8907 25.7798 83.636 25.708C83.3813 25.6394 83.1298 25.6036 82.8848 25.6036C82.6365 25.6036 82.4376 25.6329 82.2808 25.6916C82.1241 25.7473 82.0099 25.8224 81.9443 25.9137C81.8758 26.005 81.8401 26.1096 81.8401 26.2304C81.8401 26.3709 81.8989 26.4853 82.0131 26.5732C82.1273 26.6583 82.2808 26.7268 82.4669 26.7791C82.6564 26.8313 82.8653 26.8835 83.0905 26.9359C83.3193 26.9881 83.5445 27.0501 83.7731 27.1155C84.0015 27.184 84.2074 27.2755 84.3967 27.3897C84.5829 27.5039 84.7365 27.6574 84.8541 27.8437C84.9717 28.0329 85.0305 28.2714 85.0305 28.5588C85.0305 28.8657 84.9456 29.1498 84.7722 29.4045C84.5992 29.6626 84.3413 29.8682 84.0015 30.0251C83.6589 30.1818 83.2246 30.2601 82.7021 30.2601ZM82.4212 23.7389H83.2047V31.1061H82.4212V23.7389Z" fill="#F2F3F7"/>
</svg>
