<svg width="299" height="171" viewBox="0 0 299 171" fill="none" xmlns="http://www.w3.org/2000/svg">
<g clip-path="url(#clip0_16_192)">
<path opacity="0.1" d="M50.9079 42.6075C104.136 30.2258 109.836 -0.0158271 144.236 6.21489e-06C178.637 0.0158395 182.515 30.5108 214.33 19.7283C246.146 8.94584 275.687 17.1475 279.643 63.9033C283.598 110.659 267.512 147.931 181.471 131.068C95.4309 114.206 107.593 157.7 68.8946 152.032C30.1959 146.379 -2.32033 54.9892 50.9079 42.6075Z" fill="#2A94F4"/>
<path opacity="0.1" d="M148.612 169.923C185.535 169.923 215.467 166.017 215.467 161.199C215.467 156.381 185.535 152.475 148.612 152.475C111.69 152.475 81.7578 156.381 81.7578 161.199C81.7578 166.017 111.69 169.923 148.612 169.923Z" fill="#34C3EA"/>
<path d="M139.066 99.655H158.159V158.618H139.066V99.655Z" fill="#0B4870"/>
<path d="M67.6643 133.776H229.545C230.37 133.776 231.04 133.095 231.04 132.256V17.0525C231.04 16.2133 230.37 15.5325 229.545 15.5325H67.6643C66.8389 15.5325 66.1693 16.2133 66.1693 17.0525V132.272C66.1693 133.111 66.8389 133.776 67.6643 133.776Z" fill="#0E538C"/>
<path d="M143.286 123.737C143.286 126.73 145.669 129.152 148.612 129.152C151.556 129.152 153.938 126.73 153.938 123.737C153.938 120.745 151.556 118.338 148.612 118.338C145.669 118.323 143.286 120.745 143.286 123.737Z" fill="#163C47"/>
<path d="M105.662 151.604H191.562V161.199H105.662V151.604Z" fill="#0E538C"/>
<path d="M224.92 112.282L71.9936 112.282V21.3192L224.92 21.3192V112.282Z" fill="#CCE9FF"/>
<path d="M78.6588 28.0883H218.005V36.7967H78.6588V28.0883Z" fill="#2A94F4"/>
<path d="M78.6588 36.7967H218.005V90.5034H78.6588V36.7967Z" fill="#F7F7F7"/>
<path d="M74.6254 68.7008H139.004V105.608H74.6254V68.7008Z" fill="#31A1F4"/>
<path d="M74.6254 65.0433H139.938V68.7008H74.6254V65.0433Z" fill="#D3D3D3"/>
<path d="M104.152 73.5142H129.317V73.9575H104.152V73.5142ZM77.5375 71.8675H134.768V72.3108H77.5375V71.8675ZM77.5375 73.5142H102.703V73.9575H77.5375V73.5142ZM130.532 73.5142H134.768V73.9575H130.532V73.5142Z" fill="white"/>
<path d="M108.141 77.6847H82.9756V77.2414H108.141V77.6847Z" fill="white"/>
<path d="M134.756 79.3427L77.5257 79.3427V78.8994H134.756V79.3427Z" fill="white"/>
<path d="M134.758 77.6847H109.593V77.2414H134.758V77.6847Z" fill="white"/>
<path d="M81.7562 77.6847H77.5204V77.2414H81.7562V77.6847Z" fill="white"/>
<path d="M77.5375 75.1608H134.768V75.6042H77.5375V75.1608ZM104.152 82.7133H129.317V83.1567H104.152V82.7133ZM77.5375 81.0667H134.768V81.51H77.5375V81.0667ZM77.5375 82.7133H102.703V83.1567H77.5375V82.7133ZM130.532 82.7133H134.768V83.1567H130.532V82.7133Z" fill="white"/>
<path d="M108.141 86.8981H82.9756V86.4547H108.141V86.8981Z" fill="white"/>
<path d="M134.756 88.5403L77.5257 88.5403V88.097H134.756V88.5403Z" fill="white"/>
<path d="M134.758 86.8981H109.593V86.4547H134.758V86.8981Z" fill="white"/>
<path d="M81.7562 86.8981H77.5204V86.4547H81.7562V86.8981Z" fill="white"/>
<path d="M77.5375 84.36H134.768V84.8033H77.5375V84.36Z" fill="white"/>
<path d="M137.556 68.7008H139.923V105.608H137.556V68.7008Z" fill="#ADCFE0"/>
<path d="M144.719 52.3134H218.005V61.0217H144.719V52.3134Z" fill="#31A1F4"/>
<path d="M144.719 61.0217H218.005V105.593H144.719V61.0217Z" fill="#F7F7F7"/>
<path d="M139.487 69.2233H137.992C137.742 69.2233 137.556 69.4292 137.556 69.6667V71.4242C137.556 71.6775 137.758 71.8675 137.992 71.8675H139.487C139.736 71.8675 139.923 71.6617 139.923 71.4242V69.6667C139.938 69.4292 139.736 69.2233 139.487 69.2233Z" fill="#E9F8FF"/>
<path d="M165.866 117.24L171.832 109.302L192.014 124.981L186.047 132.92L165.866 117.24Z" fill="#FFBE55"/>
<path opacity="0.08" d="M165.866 117.24L171.832 109.302L192.014 124.981L186.047 132.92L165.866 117.24Z" fill="black"/>
<path d="M224.484 153.409L221.54 157.32C219.64 159.853 216.074 160.344 213.583 158.397L181.58 133.538L191.422 120.46L223.425 145.318C225.916 147.25 226.383 150.876 224.484 153.409Z" fill="#FFBE55"/>
<path d="M132.401 133.269C159.588 133.269 181.627 110.861 181.627 83.22C181.627 55.5786 159.588 33.1708 132.401 33.1708C105.214 33.1708 83.1749 55.5786 83.1749 83.22C83.1749 110.861 105.214 133.269 132.401 133.269Z" fill="#FFBE55"/>
<mask id="mask0_16_192" style="mask-type:luminance" maskUnits="userSpaceOnUse" x="91" y="42" width="83" height="83">
<path d="M132.401 124.893C154.875 124.893 173.093 106.37 173.093 83.5208C173.093 60.6714 154.875 42.1483 132.401 42.1483C109.927 42.1483 91.7089 60.6714 91.7089 83.5208C91.7089 106.37 109.927 124.893 132.401 124.893Z" fill="white"/>
</mask>
<g mask="url(#mask0_16_192)">
<path d="M205.086 141.18L39.2808 141.18V33.2287L205.086 33.2287V141.18Z" fill="#CCE9FF"/>
<path d="M46.5007 32.4425H197.574V102.473H46.5007V32.4425Z" fill="#F7F7F7"/>
<path d="M43.9312 63.7133H158.33V129.279H43.9312V63.7133Z" fill="#2A94F4"/>
<path d="M43.9312 57.2375H159.981V63.7292H43.9312V57.2375Z" fill="#D3D3D3"/>
<path d="M96.412 72.2791H141.122V73.0708H96.412V72.2791ZM49.1014 69.35H150.793V70.1416H49.1014V69.35ZM49.1014 72.2791H93.8113V73.0708H49.1014V72.2791ZM143.286 72.2791H150.808V73.0708H143.286V72.2791Z" fill="white"/>
<path d="M103.498 79.7018H58.7881V78.9102H103.498V79.7018Z" fill="white"/>
<path d="M150.805 82.645L49.1135 82.645V81.8533L150.805 81.8533V82.645Z" fill="white"/>
<path d="M150.805 79.7018H106.095V78.9102H150.805V79.7018Z" fill="white"/>
<path d="M49.1014 75.2242H150.793V76.0158H49.1014V75.2242ZM96.412 88.635H141.122V89.4267H96.412V88.635ZM49.1014 85.69H150.793V86.4817H49.1014V85.69ZM49.1014 88.635H93.8113V89.4267H49.1014V88.635ZM143.286 88.635H150.808V89.4267H143.286V88.635Z" fill="white"/>
<path d="M103.498 96.0523H58.7881V95.2606H103.498V96.0523Z" fill="white"/>
<path d="M150.805 98.9957L49.1135 98.9957V98.2041L150.805 98.2041V98.9957Z" fill="white"/>
<path d="M150.805 96.0523H106.095V95.2606H150.805V96.0523Z" fill="white"/>
<path d="M49.1014 91.5641H150.793V92.3558H49.1014V91.5641Z" fill="white"/>
<path d="M155.776 63.7133H159.996V129.279H155.776V63.7133Z" fill="#CCE9FF"/>
<path d="M159.545 64.6475H156.196C155.947 64.6475 155.76 64.8534 155.76 65.0909V68.8909C155.76 69.1442 155.963 69.3342 156.196 69.3342H159.545C159.794 69.3342 159.981 69.1284 159.981 68.8909V65.0909C159.981 64.8534 159.794 64.6475 159.545 64.6475Z" fill="#F7F7F7"/>
</g>
</g>
<defs>
<clipPath id="clip0_16_192">
<rect width="299" height="171" fill="white"/>
</clipPath>
</defs>
</svg>
