<svg width="66" height="66" viewBox="0 0 66 66" fill="none" xmlns="http://www.w3.org/2000/svg">
<path d="M27.5 49.5C32.3812 49.499 37.1217 47.8649 40.9668 44.858L53.0557 56.947L56.9443 53.0585L44.8553 40.9695C47.8638 37.1241 49.4988 32.3825 49.5 27.5C49.5 15.3698 39.6302 5.5 27.5 5.5C15.3698 5.5 5.5 15.3698 5.5 27.5C5.5 39.6302 15.3698 49.5 27.5 49.5ZM27.5 11C36.5998 11 44 18.4002 44 27.5C44 36.5998 36.5998 44 27.5 44C18.4002 44 11 36.5998 11 27.5C11 18.4002 18.4002 11 27.5 11Z" fill="black"/>
<path d="M31.383 23.6115C32.4253 24.6565 33 26.037 33 27.5H38.5C38.5024 26.0547 38.2184 24.6232 37.6642 23.2883C37.1101 21.9535 36.2968 20.7417 35.2715 19.723C31.108 15.565 23.8893 15.565 19.7285 19.723L23.6115 23.617C25.7015 21.5325 29.304 21.538 31.383 23.6115Z" fill="black"/>
</svg>
