<svg width="41" height="41" viewBox="0 0 41 41" fill="none" xmlns="http://www.w3.org/2000/svg">
<path d="M35.0251 5.9656C33.1362 4.06716 30.8864 2.56193 28.4067 1.53772C25.927 0.513511 23.2672 -0.00918421 20.5824 0.000122117C9.33316 0.000122117 0.164824 9.12259 0.164824 20.3156C0.164824 23.9031 1.11256 27.388 2.88442 30.463L0 41L10.8166 38.171C13.804 39.7905 17.1623 40.6515 20.5824 40.6515C31.8317 40.6515 41 31.529 41 20.3361C41 14.9036 38.8779 9.79909 35.0251 5.9656ZM20.5824 37.2075C17.5332 37.2075 14.5457 36.3875 11.9291 34.85L11.3111 34.481L4.88291 36.162L6.59296 29.93L6.1809 29.2945C4.48681 26.6028 3.58727 23.4915 3.58492 20.3156C3.58492 11.0086 11.208 3.42361 20.5618 3.42361C25.0945 3.42361 29.3593 5.18661 32.5528 8.3846C34.134 9.95072 35.3871 11.8135 36.2395 13.8651C37.0918 15.9167 37.5264 18.1161 37.5181 20.3361C37.5593 29.643 29.9362 37.2075 20.5824 37.2075ZM29.895 24.5795C29.3799 24.3335 26.8663 23.1036 26.4131 22.9191C25.9392 22.7551 25.6095 22.6731 25.2593 23.1651C24.909 23.6776 23.9407 24.8256 23.6523 25.1535C23.3638 25.502 23.0548 25.543 22.5397 25.2765C22.0246 25.0305 20.3764 24.477 18.4397 22.7551C16.9151 21.4021 15.9055 19.7416 15.5965 19.2291C15.308 18.7166 15.5553 18.4501 15.8231 18.1836C16.0497 17.9581 16.3382 17.5891 16.5854 17.3021C16.8327 17.0151 16.9357 16.7896 17.1005 16.4616C17.2653 16.1131 17.1829 15.8261 17.0593 15.5801C16.9357 15.3341 15.9055 12.8331 15.4935 11.8081C15.0814 10.8241 14.6487 10.9471 14.3397 10.9266H13.3508C13.0005 10.9266 12.4648 11.0496 11.991 11.5621C11.5377 12.0746 10.2191 13.3046 10.2191 15.8056C10.2191 18.3066 12.0528 20.7256 12.3 21.0536C12.5472 21.4021 15.9055 26.527 21.0151 28.7205C22.2307 29.2535 23.1784 29.561 23.9201 29.7865C25.1357 30.176 26.2482 30.1145 27.1342 29.9915C28.1231 29.848 30.1628 28.7615 30.5749 27.5725C31.0075 26.3835 31.0075 25.379 30.8633 25.1535C30.7191 24.928 30.41 24.8255 29.895 24.5795Z" fill="white"/>
</svg>
