<svg width="48" height="48" viewBox="0 0 48 48" fill="none" xmlns="http://www.w3.org/2000/svg">
<path d="M24 0C10.7664 0 0 10.7664 0 24C0 37.2336 10.7664 48 24 48C37.2336 48 48 37.2336 48 24C48 10.7664 37.2336 0 24 0ZM4.8 24C4.8 21.8424 5.1744 19.7712 5.8344 17.8344L9.6 21.6L14.4 26.4V31.2L19.2 36L21.6 38.4V43.0344C12.1464 41.8464 4.8 33.7728 4.8 24ZM39.192 35.6952C37.6248 34.4328 35.2488 33.6 33.6 33.6V31.2C33.6 29.927 33.0943 28.7061 32.1941 27.8059C31.2939 26.9057 30.073 26.4 28.8 26.4H19.2V19.2C20.473 19.2 21.6939 18.6943 22.5941 17.7941C23.4943 16.8939 24 15.673 24 14.4V12H26.4C27.673 12 28.8939 11.4943 29.7941 10.5941C30.6943 9.69394 31.2 8.47304 31.2 7.2V6.2136C38.2272 9.0672 43.2 15.96 43.2 24C43.1996 28.2353 41.7895 32.3499 39.192 35.6952Z" fill="black"/>
</svg>
