<svg width="305" height="240" viewBox="0 0 305 240" fill="none" xmlns="http://www.w3.org/2000/svg">
<path d="M260.808 115.962V107.435C260.808 105.809 260.161 104.249 259.01 103.099C257.86 101.95 256.299 101.304 254.671 101.304H248.024C247.218 101.304 246.42 101.145 245.675 100.837C244.93 100.529 244.254 100.077 243.684 99.508C243.114 98.9387 242.662 98.2628 242.354 97.519C242.045 96.7752 241.886 95.9779 241.886 95.1728V86.6457C241.886 85.0196 242.533 83.4602 243.684 82.3104C244.835 81.1606 246.396 80.5147 248.024 80.5147H248.708C249.514 80.5147 250.312 80.3561 251.056 80.048C251.801 79.7399 252.477 79.2883 253.047 78.7189C253.617 78.1496 254.069 77.4737 254.378 76.7299C254.686 75.9861 254.845 75.1888 254.845 74.3837V65.8566C254.845 64.2305 254.198 62.6711 253.047 61.5213C251.896 60.3715 250.335 59.7256 248.708 59.7256H69.505C68.6991 59.7256 67.901 59.8842 67.1564 60.1923C66.4118 60.5004 65.7352 60.952 65.1653 61.5213C64.5954 62.0906 64.1433 62.7665 63.8349 63.5103C63.5265 64.2542 63.3677 65.0514 63.3677 65.8566V74.3837C63.3677 75.1888 63.5265 75.9861 63.8349 76.7299C64.1433 77.4738 64.5954 78.1496 65.1653 78.719C65.7352 79.2883 66.4118 79.7399 67.1564 80.048C67.901 80.3561 68.6991 80.5147 69.505 80.5147C70.311 80.5147 71.109 80.6733 71.8537 80.9814C72.5983 81.2895 73.2748 81.7411 73.8447 82.3104C74.4146 82.8797 74.8667 83.5556 75.1751 84.2994C75.4836 85.0433 75.6423 85.8405 75.6423 86.6457V95.1728C75.6423 95.9779 75.4836 96.7752 75.1751 97.519C74.8667 98.2629 74.4146 98.9387 73.8447 99.508C73.2748 100.077 72.5983 100.529 71.8537 100.837C71.109 101.145 70.311 101.304 69.505 101.304H45.7716C44.9657 101.304 44.1676 101.462 43.423 101.77C42.6784 102.079 42.0018 102.53 41.4319 103.099C40.862 103.669 40.4099 104.345 40.1015 105.089C39.7931 105.832 39.6343 106.63 39.6343 107.435V115.962C39.6343 116.767 39.7931 117.564 40.1015 118.308C40.4099 119.052 40.862 119.728 41.4319 120.297C42.0018 120.866 42.6784 121.318 43.423 121.626C44.1676 121.934 44.9657 122.093 45.7716 122.093H55.0842C55.8902 122.093 56.6883 122.251 57.4329 122.56C58.1775 122.868 58.8541 123.319 59.424 123.889C59.9939 124.458 60.4459 125.134 60.7544 125.878C61.0628 126.621 61.2215 127.419 61.2215 128.224V136.751C61.2215 138.377 60.5749 139.936 59.424 141.086C58.273 142.236 56.712 142.882 55.0842 142.882H55.0617C53.434 142.882 51.873 143.528 50.722 144.678C49.571 145.828 48.9244 147.387 48.9244 149.013V157.54C48.9244 158.345 49.0832 159.142 49.3916 159.886C49.7 160.63 50.1521 161.306 50.722 161.875C51.2919 162.445 51.9685 162.896 52.7131 163.204C53.4577 163.512 54.2558 163.671 55.0617 163.671H56.4091C57.215 163.671 58.0131 163.83 58.7577 164.138C59.5023 164.446 60.1789 164.897 60.7488 165.467C61.3187 166.036 61.7707 166.712 62.0792 167.456C62.3876 168.2 62.5463 168.997 62.5463 169.802V178.329C62.5463 179.955 61.8997 181.515 60.7488 182.664C59.5978 183.814 58.0368 184.46 56.4091 184.46H53.0661C52.2601 184.46 51.462 184.619 50.7174 184.927C49.9728 185.235 49.2962 185.687 48.7263 186.256C48.1564 186.825 47.7044 187.501 47.3959 188.245C47.0875 188.989 46.9288 189.786 46.9288 190.591V199.118C46.9288 200.744 47.5754 202.304 48.7263 203.454C49.8773 204.603 51.4383 205.249 53.0661 205.249H256.695C258.323 205.249 259.884 204.603 261.035 203.454C262.186 202.304 262.832 200.744 262.832 199.118V190.591C262.832 188.965 262.186 187.406 261.035 186.256C259.884 185.106 258.323 184.46 256.695 184.46H246.681C245.875 184.46 245.077 184.302 244.333 183.993C243.588 183.685 242.911 183.234 242.342 182.664C241.772 182.095 241.32 181.419 241.011 180.675C240.703 179.932 240.544 179.134 240.544 178.329V169.802C240.544 168.176 241.191 166.617 242.342 165.467C243.492 164.317 245.054 163.671 246.681 163.671H259.228C260.034 163.671 260.832 163.512 261.577 163.204C262.322 162.896 262.998 162.445 263.568 161.875C264.138 161.306 264.59 160.63 264.898 159.886C265.207 159.142 265.366 158.345 265.366 157.54V149.013C265.366 148.208 265.207 147.411 264.898 146.667C264.59 145.923 264.138 145.247 263.568 144.678C262.998 144.108 262.322 143.657 261.577 143.349C260.832 143.041 260.034 142.882 259.228 142.882H255.422C253.794 142.882 252.233 142.236 251.082 141.086C249.931 139.936 249.285 138.377 249.285 136.751V128.224C249.285 126.598 249.931 125.038 251.082 123.889C252.233 122.739 253.794 122.093 255.422 122.093H254.671C256.299 122.093 257.86 121.447 259.01 120.297C260.161 119.147 260.808 117.588 260.808 115.962Z" fill="#DBE8EC"/>
<path d="M149.326 204.869C194.318 204.869 230.792 168.432 230.792 123.485C230.792 78.5387 194.318 42.1022 149.326 42.1022C104.333 42.1022 67.8588 78.5387 67.8588 123.485C67.8588 168.432 104.333 204.869 149.326 204.869Z" fill="#DBE8EC"/>
<path d="M250.091 200.248H153.373L156.979 191.453H245.611L250.091 200.248Z" fill="#B9D4DB"/>
<path d="M132.394 182.953H119.333L116.464 180.19C115.292 179.061 114.589 177.531 114.497 175.907C114.404 174.283 114.928 172.684 115.965 171.429L116.376 170.931C116.857 170.348 117.125 169.618 117.135 168.863C117.145 168.107 116.896 167.37 116.43 166.775L116.426 166.77C116.072 166.317 115.841 165.78 115.757 165.212C115.672 164.643 115.737 164.063 115.945 163.527L119.333 154.787H132.394L135.781 163.525C135.989 164.061 136.054 164.642 135.969 165.211C135.885 165.78 135.653 166.317 135.298 166.77C134.832 167.365 134.582 168.102 134.592 168.858C134.601 169.614 134.869 170.345 135.351 170.928L135.764 171.429C136.8 172.684 137.324 174.283 137.231 175.907C137.139 177.531 136.436 179.06 135.264 180.189L132.394 182.953Z" fill="#F9AE2B"/>
<path d="M120.408 177.186C119.235 176.057 118.532 174.527 118.44 172.903C118.347 171.279 118.871 169.679 119.908 168.424L120.321 167.925C120.802 167.342 121.07 166.612 121.079 165.857C121.089 165.101 120.84 164.365 120.374 163.77L120.369 163.765C120.015 163.313 119.784 162.777 119.7 162.209C119.615 161.641 119.68 161.06 119.888 160.525L122.112 154.787H119.333L115.944 163.529C115.737 164.065 115.672 164.645 115.756 165.213C115.841 165.781 116.072 166.317 116.426 166.77L116.43 166.775C116.897 167.37 117.146 168.106 117.136 168.861C117.127 169.617 116.859 170.346 116.377 170.929L115.965 171.429C114.928 172.684 114.404 174.283 114.497 175.907C114.589 177.532 115.292 179.061 116.464 180.19L119.333 182.953H132.394L135.264 180.189C135.344 180.112 135.415 180.029 135.491 179.948H127.262C124.705 179.948 122.248 178.958 120.408 177.186Z" fill="#EA9918"/>
<path d="M147.602 200.248H104.039C103.825 200.248 103.615 200.184 103.437 200.064C103.259 199.944 103.121 199.774 103.041 199.575C102.961 199.376 102.941 199.158 102.986 198.949C103.031 198.739 103.137 198.547 103.292 198.399L105.346 197.087C110.999 193.475 115.773 188.646 119.317 182.953H132.324C135.868 188.646 140.641 193.475 146.295 197.087L148.349 198.399C148.504 198.547 148.61 198.739 148.655 198.949C148.699 199.158 148.68 199.376 148.6 199.575C148.52 199.774 148.382 199.944 148.204 200.064C148.026 200.184 147.816 200.248 147.602 200.248Z" fill="#F9AE2B"/>
<path d="M146.295 197.087C145.553 196.613 144.827 196.118 144.117 195.602H115.461C115.246 195.602 115.036 195.538 114.859 195.418C114.681 195.298 114.543 195.128 114.462 194.929C114.382 194.73 114.363 194.512 114.408 194.302C114.452 194.092 114.559 193.901 114.713 193.752L116.767 192.44C120.798 189.863 124.392 186.661 127.413 182.953H119.317C115.773 188.646 110.999 193.475 105.346 197.087L103.292 198.399C103.137 198.547 103.031 198.739 102.986 198.949C102.941 199.158 102.961 199.376 103.041 199.575C103.121 199.774 103.259 199.944 103.437 200.064C103.615 200.184 103.825 200.248 104.039 200.248H147.602C147.816 200.248 148.026 200.184 148.204 200.064C148.382 199.944 148.52 199.774 148.6 199.575C148.68 199.376 148.699 199.158 148.655 198.949C148.61 198.739 148.504 198.547 148.349 198.399L146.295 197.087Z" fill="#EA9918"/>
<path d="M97.0515 62.8423C97.7859 63.7975 98.4841 64.7715 99.2017 65.7354L101.293 68.6592C102.682 70.6106 104.038 72.5796 105.378 74.557C107.528 78.7856 109.739 82.9829 111.916 87.1975L125.029 112.46L138.141 137.723L144.698 150.355C145.532 152.594 146.367 154.832 147.164 157.091L148.358 160.479C148.738 161.618 149.135 162.748 149.502 163.894C148.775 162.934 148.079 161.959 147.367 160.992L145.283 158.065C143.895 156.113 142.544 154.141 141.193 152.17L134.637 139.539L121.524 114.276L108.412 89.0128C106.218 84.8064 104.058 80.5828 101.838 76.3905C100.992 74.1574 100.162 71.9159 99.3667 69.6568L98.1794 66.2649C97.8044 65.1236 97.4098 63.9923 97.0515 62.8423Z" fill="#EE781D"/>
<path d="M125.864 165.866C113.797 165.86 102.082 161.807 92.598 154.355C83.1135 146.904 76.4092 136.486 73.5603 124.773C70.7114 113.059 71.883 100.73 76.8873 89.7614C81.8916 78.7931 90.4384 69.8215 101.157 64.2858C101.622 64.0464 102.163 64.0012 102.662 64.1602C103.16 64.3193 103.575 64.6694 103.815 65.1338C104.055 65.5981 104.101 66.1387 103.942 66.6368C103.783 67.1348 103.433 67.5495 102.969 67.7898C91.2242 73.8486 82.3661 84.3152 78.3391 96.892C74.312 109.469 75.4451 123.128 81.4896 134.871C87.534 146.614 97.9959 155.481 110.579 159.526C123.161 163.571 136.836 162.463 148.602 156.445C149.068 156.207 149.61 156.163 150.108 156.324C150.606 156.484 151.02 156.836 151.258 157.302C151.497 157.767 151.541 158.308 151.38 158.806C151.219 159.304 150.867 159.717 150.401 159.955C142.803 163.831 134.395 165.856 125.864 165.866Z" fill="#409CB5"/>
<path d="M125.863 155.504C149.872 155.504 169.335 136.061 169.335 112.077C169.335 88.0933 149.872 68.6504 125.863 68.6504C101.855 68.6504 82.3921 88.0933 82.3921 112.077C82.3921 136.061 101.855 155.504 125.863 155.504Z" fill="#409CB5"/>
<path d="M127.134 164.596L127.099 163.162C128.512 163.128 129.937 163.034 131.336 162.884L131.49 164.309C130.052 164.464 128.586 164.56 127.134 164.596ZM122.771 164.519C121.321 164.434 119.861 164.286 118.429 164.08L118.634 162.66C120.026 162.86 121.446 163.004 122.856 163.088L122.771 164.519ZM135.806 163.664L135.535 162.255C136.921 161.989 138.311 161.661 139.667 161.281L140.055 162.662C138.661 163.052 137.232 163.389 135.806 163.664ZM114.14 163.277C112.729 162.951 111.313 162.56 109.933 162.117L110.372 160.752C111.715 161.183 113.091 161.563 114.463 161.88L114.14 163.277ZM144.205 161.312L143.704 159.968C145.026 159.477 146.343 158.924 147.619 158.325L148.229 159.623C146.918 160.238 145.564 160.807 144.205 161.312ZM105.835 160.607C104.5 160.05 103.169 159.429 101.879 158.761L102.54 157.488C103.795 158.138 105.089 158.742 106.388 159.283L105.835 160.607ZM98.0905 156.596C96.8648 155.827 95.6546 154.996 94.4933 154.126L95.3541 152.979C96.484 153.825 97.6617 154.633 98.8542 155.381L98.0905 156.596ZM91.1108 151.371C90.0268 150.412 88.9683 149.396 87.9649 148.351L89.0009 147.358C89.9775 148.375 91.0076 149.364 92.0627 150.298L91.1108 151.371ZM85.0759 145.084C84.1609 143.96 83.2821 142.786 82.4637 141.593L83.6476 140.782C84.4441 141.943 85.2993 143.086 86.1897 144.179L85.0759 145.084ZM80.147 137.9C79.4284 136.643 78.7542 135.34 78.143 134.029L79.4443 133.424C80.0389 134.699 80.6947 135.966 81.3937 137.189L80.147 137.9ZM76.4678 130.006C75.9674 128.647 75.5189 127.251 75.1353 125.858L76.5194 125.477C76.8925 126.832 77.3285 128.189 77.8151 129.511L76.4678 130.006ZM74.1557 121.609C73.8902 120.185 73.6822 118.733 73.5375 117.293L74.9659 117.151C75.1066 118.551 75.3088 119.962 75.5671 121.346L74.1557 121.609ZM73.2834 112.942C73.2785 112.655 73.2761 112.366 73.2762 112.077C73.2762 110.917 73.3154 109.741 73.3927 108.582L74.8251 108.677C74.75 109.805 74.7118 110.949 74.7118 112.077C74.7118 112.358 74.714 112.639 74.7186 112.918L73.2834 112.942ZM75.2844 104.46L73.865 104.246C74.0819 102.812 74.3618 101.371 74.697 99.9637L76.0937 100.296C75.7676 101.665 75.4954 103.065 75.2844 104.46ZM77.2464 96.2132L75.882 95.7671C76.3334 94.3901 76.8479 93.0158 77.4115 91.6826L78.7339 92.2407C78.1859 93.5375 77.6854 94.8739 77.2464 96.2132ZM80.5457 88.404L79.2738 87.7388C79.9453 86.4573 80.6794 85.1871 81.4556 83.9631L82.6682 84.7305C81.9131 85.9213 81.199 87.1572 80.5457 88.404ZM85.0869 81.2451L83.9419 80.3803C84.8149 79.2266 85.7483 78.0943 86.7156 77.0145L87.7853 77.9711C86.8442 79.0214 85.9363 80.1229 85.0869 81.2451ZM90.7451 74.9327L89.7585 73.8907C90.8122 72.895 91.9197 71.9325 93.05 71.0295L93.9466 72.1499C92.8471 73.028 91.7699 73.9643 90.7451 74.9327ZM97.3678 69.642L96.5676 68.4516C97.7689 67.6459 99.0205 66.8798 100.288 66.1754L100.986 67.4282C99.7535 68.1137 98.5361 68.8584 97.3678 69.642Z" fill="#25788E"/>
<path d="M127.506 78.8799C126.721 80.2269 125.32 82.6234 122.676 83.5121C120.325 84.3002 118.795 83.2869 115.141 83.7051C112.931 83.9584 111.542 84.1152 110.117 85.0561C108.048 86.4233 108.173 87.9231 106.639 89.4953C103.331 92.8891 97.1281 91.6908 96.7859 91.6184C94.1465 91.0231 91.7512 89.6387 89.919 87.6497C93.9024 81.7919 99.261 76.9977 105.527 73.6858C111.792 70.3739 118.775 68.6451 125.863 68.6504C126.95 68.6504 128.033 68.6906 129.1 68.767C129.526 71.4169 129.595 75.3052 127.506 78.8799Z" fill="#25788E"/>
<path d="M114.174 95.6716C117.209 91.9236 120.333 88.0659 124.221 88.5303C127.287 88.8966 130.139 91.8676 130.79 94.8996C131.603 98.6864 128.522 100.425 129.631 103.971C130.385 106.382 131.953 106.036 134.268 109.568C135.362 111.237 137.208 114.055 136.973 117.675C136.919 118.503 136.48 123.615 132.143 125.781C129.292 127.204 125.723 126.873 123.448 125.202C120.821 123.272 121.665 120.837 119.198 119.605C116.949 118.482 115.639 120.203 111.856 119.412C110.461 119.12 107.887 118.582 106.639 116.71C104.925 114.137 106.589 110.362 109.151 104.55C110.594 101.276 111.739 98.68 114.174 95.6716Z" fill="#25788E"/>
<path d="M169.335 112.077C169.337 115.745 168.875 119.398 167.962 122.95C163.965 123.891 159.256 123.73 155.521 121.342C154.418 120.638 151.6 118.837 150.884 115.744C150.344 113.412 151.52 112.6 151.657 108.41C151.717 106.508 151.797 104.055 150.691 101.462C149.398 98.434 147.829 98.3657 146.826 96.0576C145.329 92.6116 146.851 88.2448 148.565 85.8282C150.393 83.2548 153.23 81.7911 156.334 81.1075C160.457 85.1437 163.732 89.9626 165.965 95.281C168.197 100.599 169.343 106.31 169.335 112.077Z" fill="#25788E"/>
<path d="M139.485 135.817C138.55 134.277 138.812 131.697 140.064 130.799C141.214 129.974 142.541 131.038 144.121 130.027C145.28 129.286 145.034 128.415 146.054 127.904C147.46 127.199 149.779 127.929 150.884 129.448C152.307 131.404 151.432 134.275 150.111 135.817C147.431 138.945 141.185 138.62 139.485 135.817Z" fill="#25788E"/>
<path d="M126.612 155.492C126.363 155.5 126.113 155.504 125.863 155.504C118.882 155.509 112.003 153.832 105.809 150.616C99.6148 147.399 94.2884 142.738 90.2813 137.028C90.8746 135.438 91.7714 133.978 92.9218 132.729C93.276 132.347 97.7037 127.735 102.969 128.869C104.794 129.315 106.464 130.249 107.799 131.571C109.497 133.3 109.095 134.269 110.504 135.431C112.351 136.955 113.941 136.026 117.845 136.782C120.051 137.209 123.155 137.812 125.187 140.063C127.272 142.372 127.292 145.371 127.313 148.363C127.325 149.806 127.345 152.794 126.612 155.492Z" fill="#25788E"/>
<path d="M72.3674 125.598C71.8076 126.35 71.2712 127.118 70.7445 127.89C70.2162 128.662 69.7103 129.446 69.2268 130.243C69.1841 130.314 69.1152 130.365 69.035 130.385C68.9549 130.404 68.8702 130.392 68.7995 130.349C68.7288 130.306 68.6779 130.237 68.6581 130.157C68.6383 130.077 68.6511 129.993 68.6937 129.922C68.6973 129.916 68.7014 129.91 68.7053 129.904C69.2476 129.13 69.8116 128.374 70.3971 127.635C70.9827 126.897 71.598 126.183 72.2217 125.48C72.2377 125.462 72.2602 125.45 72.2843 125.448C72.3085 125.446 72.3324 125.454 72.3512 125.469C72.3701 125.484 72.3822 125.506 72.3852 125.53C72.3883 125.554 72.3819 125.578 72.3674 125.598Z" fill="#DBE8EC"/>
<path d="M66.6978 135.196C65.9817 136.877 65.4908 138.645 65.2376 140.454C65.2276 140.534 65.2018 140.612 65.1618 140.682C65.1218 140.753 65.0682 140.815 65.0043 140.864C64.9403 140.914 64.8671 140.951 64.789 140.972C64.7109 140.994 64.6292 141 64.5488 140.99C64.4684 140.98 64.3907 140.954 64.3202 140.914C64.2498 140.874 64.1879 140.82 64.1381 140.756C64.0883 140.693 64.0516 140.619 64.0301 140.541C64.0086 140.463 64.0026 140.382 64.0127 140.301L64.0156 140.28C64.3519 138.378 64.9546 136.534 65.806 134.8C65.8603 134.685 65.9576 134.596 66.0771 134.551C66.1965 134.507 66.3287 134.511 66.4452 134.563C66.5617 134.614 66.6534 134.709 66.7006 134.828C66.7478 134.946 66.7468 135.078 66.6978 135.196Z" fill="#DBE8EC"/>
<path d="M65.7937 145.655C65.9897 146.039 66.1453 146.443 66.3655 146.812C66.5873 147.181 66.8371 147.532 67.1126 147.862C67.6739 148.525 68.3244 149.106 69.0456 149.59C69.2178 149.707 69.3364 149.888 69.3753 150.092C69.4142 150.297 69.3702 150.508 69.253 150.681C69.1358 150.853 68.955 150.971 68.7503 151.01C68.5456 151.049 68.3339 151.005 68.1616 150.888L68.1457 150.877C67.3208 150.292 66.581 149.596 65.9476 148.808C65.6318 148.41 65.3472 147.988 65.0963 147.546C64.847 147.103 64.669 146.625 64.4567 146.166C64.3786 145.997 64.37 145.804 64.4326 145.629C64.4952 145.453 64.6242 145.31 64.7918 145.228C64.9594 145.147 65.1522 145.134 65.329 145.193C65.5057 145.252 65.6523 145.378 65.7372 145.544L65.7937 145.655Z" fill="#DBE8EC"/>
<path d="M73.9352 151.677C75.7098 152.1 77.5188 152.363 79.3403 152.463C79.5619 152.477 79.7689 152.578 79.9159 152.745C80.0629 152.911 80.1379 153.129 80.1246 153.35C80.1113 153.572 80.0107 153.779 79.8449 153.926C79.6791 154.074 79.4615 154.15 79.2397 154.138C77.3099 154.041 75.3948 153.75 73.5234 153.269C73.312 153.215 73.1311 153.079 73.0202 152.891C72.9094 152.703 72.8778 152.479 72.9324 152.268C72.987 152.056 73.1234 151.876 73.3114 151.765C73.4995 151.654 73.7239 151.623 73.9352 151.677Z" fill="#DBE8EC"/>
<path d="M84.8685 152.474C86.7159 152.378 88.5637 152.216 90.4118 151.989C90.5941 151.967 90.7779 152.017 90.9239 152.128C91.0699 152.239 91.1666 152.403 91.1933 152.585C91.22 152.766 91.1746 152.951 91.0668 153.1C90.959 153.248 90.7974 153.349 90.6164 153.38C88.7458 153.707 86.8599 153.94 84.9658 154.078C84.7531 154.092 84.5432 154.022 84.3824 153.882C84.2215 153.742 84.1228 153.544 84.1081 153.332C84.0933 153.119 84.1636 152.91 84.3036 152.749C84.4436 152.588 84.6417 152.49 84.8545 152.475L84.8685 152.474Z" fill="#DBE8EC"/>
<path d="M95.9319 151.113L101.404 149.91L101.428 149.905C101.541 149.88 101.66 149.9 101.758 149.962C101.857 150.023 101.928 150.121 101.955 150.233C101.983 150.346 101.965 150.465 101.906 150.565C101.847 150.665 101.751 150.738 101.639 150.768L96.1747 152.239C96.027 152.279 95.8696 152.258 95.7371 152.182C95.6046 152.106 95.5078 151.98 95.468 151.833C95.4282 151.685 95.4487 151.528 95.5249 151.396C95.6011 151.263 95.7268 151.166 95.8744 151.126C95.8824 151.124 95.8905 151.122 95.8985 151.12L95.9319 151.113Z" fill="#DBE8EC"/>
<path d="M106.812 148.407C108.591 147.824 110.361 147.214 112.132 146.608L112.144 146.604C112.216 146.579 112.296 146.584 112.365 146.617C112.434 146.651 112.487 146.71 112.512 146.783C112.538 146.855 112.533 146.935 112.5 147.004C112.466 147.073 112.407 147.126 112.335 147.152C110.561 147.777 108.787 148.399 107.021 149.049C106.979 149.064 106.935 149.071 106.89 149.07C106.846 149.068 106.802 149.057 106.762 149.039C106.722 149.02 106.686 148.994 106.655 148.961C106.625 148.929 106.602 148.89 106.587 148.849C106.571 148.807 106.564 148.763 106.566 148.719C106.568 148.674 106.578 148.631 106.597 148.59C106.616 148.55 106.642 148.514 106.675 148.484C106.707 148.454 106.745 148.43 106.787 148.415L106.797 148.412L106.812 148.407Z" fill="#DBE8EC"/>
<path d="M117.359 144.547C119.075 143.796 120.778 143.016 122.487 142.251L122.498 142.246C122.539 142.227 122.584 142.217 122.629 142.216C122.674 142.215 122.719 142.222 122.761 142.238C122.803 142.254 122.842 142.279 122.875 142.309C122.908 142.34 122.934 142.378 122.953 142.419C122.971 142.46 122.981 142.504 122.982 142.549C122.984 142.595 122.976 142.639 122.96 142.682C122.944 142.724 122.92 142.762 122.889 142.795C122.858 142.828 122.821 142.854 122.779 142.873L122.774 142.875C121.044 143.614 119.308 144.338 117.586 145.091C117.55 145.106 117.512 145.115 117.473 145.116C117.434 145.117 117.396 145.11 117.359 145.096C117.323 145.082 117.29 145.061 117.262 145.034C117.234 145.007 117.212 144.975 117.196 144.939C117.181 144.904 117.172 144.866 117.172 144.827C117.171 144.788 117.178 144.749 117.192 144.713C117.206 144.677 117.227 144.644 117.254 144.616C117.281 144.589 117.314 144.566 117.349 144.551L117.359 144.547Z" fill="#DBE8EC"/>
<path d="M127.505 139.729L129.972 138.388C130.795 137.942 131.617 137.496 132.427 137.027C132.49 136.991 132.559 136.967 132.632 136.957C132.704 136.948 132.778 136.952 132.848 136.971C132.919 136.99 132.985 137.022 133.043 137.067C133.101 137.111 133.149 137.166 133.186 137.229C133.223 137.292 133.246 137.362 133.256 137.434C133.265 137.507 133.261 137.58 133.242 137.65C133.223 137.721 133.19 137.787 133.146 137.845C133.102 137.903 133.046 137.951 132.983 137.988L132.964 137.998L132.959 138.001C132.124 138.437 131.276 138.848 130.433 139.267L127.904 140.522C127.8 140.573 127.679 140.582 127.569 140.546C127.458 140.51 127.366 140.433 127.313 140.33C127.259 140.227 127.248 140.107 127.281 139.995C127.315 139.884 127.391 139.791 127.493 139.735L127.505 139.729Z" fill="#DBE8EC"/>
<path d="M137.244 134.153L141.972 131.143L141.995 131.129C142.08 131.075 142.174 131.038 142.273 131.02C142.372 131.003 142.474 131.005 142.572 131.027C142.67 131.049 142.763 131.089 142.845 131.147C142.928 131.205 142.998 131.278 143.052 131.363C143.106 131.447 143.143 131.542 143.16 131.641C143.177 131.739 143.175 131.841 143.154 131.939C143.132 132.037 143.091 132.13 143.033 132.212C142.976 132.294 142.902 132.364 142.818 132.418L142.797 132.431L137.933 135.317C137.78 135.407 137.598 135.434 137.426 135.392C137.253 135.35 137.105 135.241 137.012 135.09C136.918 134.939 136.888 134.758 136.928 134.585C136.967 134.412 137.073 134.262 137.223 134.166L137.244 134.153Z" fill="#DBE8EC"/>
<path d="M146.589 127.974L151.097 124.66L151.126 124.638C151.22 124.569 151.327 124.519 151.441 124.491C151.554 124.463 151.672 124.458 151.788 124.475C151.904 124.493 152.015 124.533 152.115 124.594C152.215 124.654 152.302 124.734 152.371 124.828C152.441 124.922 152.491 125.029 152.519 125.142C152.547 125.256 152.552 125.373 152.535 125.489C152.517 125.605 152.477 125.715 152.416 125.815C152.356 125.915 152.276 126.003 152.182 126.072L152.17 126.08L147.552 129.361C147.371 129.49 147.146 129.542 146.926 129.506C146.706 129.469 146.51 129.348 146.379 129.168C146.249 128.988 146.194 128.763 146.229 128.543C146.263 128.324 146.383 128.126 146.562 127.994L146.589 127.974Z" fill="#DBE8EC"/>
<path d="M155.459 121.164L159.649 117.475L159.686 117.442C159.882 117.27 160.138 117.183 160.397 117.199C160.657 117.216 160.9 117.335 161.072 117.53C161.244 117.725 161.331 117.98 161.315 118.24C161.299 118.499 161.18 118.742 160.985 118.914L160.973 118.924L156.652 122.607C156.464 122.767 156.221 122.846 155.975 122.828C155.728 122.809 155.5 122.694 155.338 122.508C155.176 122.322 155.095 122.079 155.111 121.833C155.127 121.588 155.24 121.358 155.425 121.195L155.459 121.164Z" fill="#DBE8EC"/>
<path d="M163.646 113.594C164.942 112.267 166.186 110.894 167.386 109.488C167.558 109.287 167.802 109.162 168.066 109.14C168.329 109.118 168.591 109.202 168.793 109.372C168.995 109.542 169.122 109.786 169.145 110.049C169.168 110.312 169.085 110.574 168.916 110.777C167.695 112.237 166.403 113.632 165.078 114.99C164.893 115.18 164.64 115.289 164.375 115.292C164.109 115.296 163.853 115.194 163.663 115.009C163.473 114.824 163.364 114.571 163.361 114.306C163.357 114.041 163.46 113.785 163.645 113.595L163.646 113.594Z" fill="#DBE8EC"/>
<path d="M170.788 105.126C171.845 103.629 172.801 102.063 173.65 100.44C173.76 100.226 173.95 100.065 174.178 99.9901C174.407 99.9154 174.655 99.9337 174.871 100.041C175.086 100.148 175.25 100.335 175.328 100.563C175.406 100.79 175.391 101.039 175.287 101.255C174.439 102.979 173.466 104.639 172.373 106.22C172.23 106.43 172.008 106.576 171.757 106.623C171.507 106.671 171.247 106.617 171.036 106.474C170.825 106.331 170.679 106.109 170.631 105.859C170.583 105.609 170.637 105.349 170.78 105.138L170.788 105.126Z" fill="#DBE8EC"/>
<path d="M175.593 95.3971C176.046 93.6939 176.111 91.9109 175.783 90.1793L175.782 90.1762C175.74 89.9831 175.776 89.7812 175.881 89.614C175.987 89.4469 176.154 89.3279 176.347 89.2827C176.539 89.2375 176.742 89.2697 176.911 89.3724C177.08 89.4751 177.202 89.6401 177.25 89.8317C177.701 91.7855 177.698 93.8163 177.241 95.7687C177.219 95.8773 177.174 95.9803 177.111 96.0718C177.049 96.1633 176.968 96.2415 176.875 96.302C176.782 96.3625 176.678 96.404 176.569 96.4242C176.459 96.4444 176.347 96.4429 176.239 96.4198C176.13 96.3967 176.027 96.3524 175.935 96.2895C175.844 96.2265 175.766 96.1462 175.705 96.053C175.645 95.9599 175.603 95.8558 175.583 95.7466C175.563 95.6375 175.565 95.5254 175.588 95.4169L175.593 95.3971Z" fill="#DBE8EC"/>
<path d="M173.223 85.7476C171.872 84.5526 170.292 83.6436 168.579 83.0754C168.454 83.0315 168.351 82.9405 168.293 82.8218C168.234 82.7031 168.225 82.5662 168.266 82.4405C168.307 82.3148 168.396 82.2102 168.513 82.1491C168.631 82.0881 168.768 82.0754 168.894 82.1139C170.784 82.6463 172.545 83.5567 174.072 84.7899C174.136 84.844 174.189 84.9102 174.228 84.9848C174.267 85.0594 174.29 85.1408 174.297 85.2245C174.305 85.3082 174.295 85.3925 174.27 85.4726C174.244 85.5526 174.203 85.6269 174.149 85.6911C174.095 85.7554 174.029 85.8084 173.954 85.847C173.879 85.8857 173.798 85.9092 173.714 85.9164C173.63 85.9236 173.546 85.9142 173.466 85.8888C173.386 85.8634 173.311 85.8225 173.247 85.7683C173.24 85.7622 173.231 85.7541 173.223 85.7476Z" fill="#DBE8EC"/>
<path d="M163.191 81.8502C161.338 81.6211 159.472 81.5118 157.605 81.523C157.562 81.523 157.521 81.5063 157.49 81.4765C157.459 81.4466 157.441 81.406 157.439 81.363C157.438 81.3201 157.453 81.2782 157.482 81.2461C157.51 81.2141 157.55 81.1944 157.593 81.1911C159.479 81.0468 161.372 81.0319 163.259 81.1466C163.306 81.1495 163.351 81.1616 163.393 81.182C163.435 81.2024 163.472 81.2309 163.503 81.2657C163.534 81.3006 163.557 81.3411 163.572 81.3851C163.587 81.429 163.593 81.4755 163.591 81.5219C163.588 81.5682 163.576 81.6135 163.555 81.6553C163.535 81.697 163.506 81.7342 163.471 81.7649C163.436 81.7957 163.396 81.8192 163.352 81.8342C163.308 81.8493 163.261 81.8555 163.215 81.8526C163.207 81.852 163.198 81.8512 163.191 81.8502Z" fill="#DBE8EC"/>
<path d="M156.168 66.0548C154.297 70.969 140.535 83.0982 137.719 85.546C137.67 85.5887 137.611 85.6173 137.547 85.6287C137.483 85.6402 137.417 85.6341 137.357 85.6111C137.296 85.5881 137.243 85.549 137.203 85.4981C137.163 85.4472 137.138 85.3864 137.129 85.3221C136.653 81.6232 134.436 63.4241 136.307 58.5099C137.308 55.8789 139.315 53.7531 141.886 52.6002C144.456 51.4473 147.38 51.3616 150.014 52.3621C152.647 53.3627 154.775 55.3673 155.929 57.9352C157.083 60.5031 157.169 63.4238 156.168 66.0548Z" fill="#D62828"/>
<path d="M146.237 67.2352C148.975 67.2352 151.195 65.0177 151.195 62.2823C151.195 59.547 148.975 57.3295 146.237 57.3295C143.499 57.3295 141.279 59.547 141.279 62.2823C141.279 65.0177 143.499 67.2352 146.237 67.2352Z" fill="#DBE8EC"/>
<path d="M112.009 126.658C112.418 129.656 108.807 139.57 108.058 141.581C108.045 141.616 108.023 141.647 107.994 141.67C107.965 141.694 107.93 141.709 107.893 141.714C107.856 141.719 107.819 141.714 107.784 141.699C107.75 141.684 107.72 141.661 107.699 141.63C106.438 139.892 100.303 131.305 99.894 128.308C99.675 126.703 100.103 125.077 101.084 123.787C102.066 122.498 103.519 121.65 105.126 121.431C106.733 121.213 108.36 121.641 109.651 122.621C110.942 123.601 111.79 125.053 112.009 126.658Z" fill="#D62828"/>
<path d="M105.952 130.333C107.527 130.333 108.805 129.057 108.805 127.483C108.805 125.909 107.527 124.633 105.952 124.633C104.376 124.633 103.099 125.909 103.099 127.483C103.099 129.057 104.376 130.333 105.952 130.333Z" fill="#DBE8EC"/>
<path d="M143.272 191.453L160.626 200.248L177.981 191.453L195.336 200.248L212.691 191.453L230.048 200.248L247.406 191.453L234.882 156.855L221.7 163.534L208.517 156.855L195.336 163.534L182.156 156.855L168.976 163.534L155.795 156.855L143.272 191.453Z" fill="#409CB5"/>
<path d="M143.272 191.453L160.626 200.248L177.981 191.453L195.336 200.248L212.691 191.453L230.048 200.248L247.406 191.453L234.882 156.855L221.7 163.534L208.517 156.855L195.336 163.534L182.156 156.855L168.976 163.534L155.795 156.855L143.272 191.453Z" fill="#409CB5"/>
<path d="M151.767 167.985C154.103 169.059 156.424 170.163 158.744 171.267L162.227 172.921L165.7 174.593H165.333C167.754 173.304 170.181 172.025 172.614 170.757C175.042 169.481 177.475 168.215 179.914 166.959L180.193 166.815L180.48 166.959L187.843 170.63L195.191 174.329H194.555L201.904 170.627C204.352 169.389 206.806 168.164 209.266 166.951L209.56 166.806L209.841 166.951C212.278 168.21 214.716 169.467 217.144 170.745C219.573 172.018 222.006 173.286 224.426 174.577L224.043 174.577C226.486 173.389 228.936 172.215 231.395 171.058L235.077 169.311C236.303 168.724 237.541 168.163 238.772 167.589C237.58 168.241 236.396 168.908 235.198 169.549L231.612 171.485C229.223 172.781 226.828 174.063 224.426 175.333L224.243 175.429L224.043 175.333C221.57 174.144 219.109 172.933 216.645 171.727C214.179 170.526 211.723 169.303 209.266 168.083H209.841C207.405 169.345 204.966 170.598 202.522 171.844L195.191 175.58L194.873 175.742L194.555 175.58L187.227 171.842L179.914 168.075H180.48C178.026 169.299 175.565 170.512 173.099 171.715C170.638 172.925 168.171 174.126 165.7 175.316L165.507 175.409L165.333 175.316L161.931 173.503L158.539 171.672C156.276 170.453 154.014 169.234 151.767 167.985Z" fill="#3086A3"/>
<path d="M243.113 179.793L239.192 181.928L235.257 184.038C232.637 185.449 230.01 186.848 227.377 188.235L227.193 188.332L226.996 188.235L218.975 184.314L210.973 180.355H211.544C208.9 181.719 206.257 183.088 203.603 184.434L195.65 188.487L195.332 188.649L195.013 188.487L187.062 184.434C184.409 183.088 181.766 181.722 179.123 180.357H179.695L171.694 184.316L163.673 188.237L163.475 188.334L163.29 188.237C160.656 186.853 158.03 185.454 155.412 184.04L151.479 181.928L147.559 179.793L151.6 181.69L155.629 183.613C158.316 184.891 160.998 186.181 163.673 187.483H163.29L171.197 183.337L179.123 179.228L179.403 179.083L179.695 179.228C182.36 180.553 185.024 181.875 187.679 183.218L195.65 187.233H195.013L202.987 183.219C205.642 181.875 208.309 180.555 210.973 179.23L211.265 179.085L211.544 179.23L219.47 183.339L227.377 187.485H226.996C229.67 186.179 232.352 184.889 235.042 183.614L239.071 181.691L243.113 179.793Z" fill="#3086A3"/>
<path d="M168.976 163.534C168.564 166.658 168.017 169.751 167.422 172.834C167.137 174.378 166.803 175.911 166.493 177.449L165.487 182.047L164.407 186.628C164.021 188.149 163.661 189.676 163.249 191.191C162.453 194.228 161.608 197.254 160.626 200.248C161.036 197.124 161.583 194.031 162.178 190.948C162.462 189.404 162.798 187.871 163.107 186.333L164.115 181.736L165.197 177.155C165.582 175.634 165.944 174.107 166.355 172.592C167.151 169.555 167.996 166.529 168.976 163.534Z" fill="#3086A3"/>
<path d="M182.156 156.855C182.097 159.773 181.901 162.674 181.655 165.57C181.546 167.019 181.386 168.463 181.25 169.909L180.767 174.238L180.208 178.559C179.995 179.996 179.809 181.436 179.57 182.87C179.12 185.741 178.62 188.605 177.981 191.454C178.038 188.535 178.234 185.634 178.479 182.738C178.588 181.289 178.75 179.846 178.885 178.399L179.37 174.07L179.931 169.75C180.142 168.313 180.331 166.873 180.569 165.439C181.02 162.568 181.519 159.703 182.156 156.855Z" fill="#3086A3"/>
<path d="M195.336 163.534C195.627 166.594 195.78 169.653 195.883 172.713C195.948 174.242 195.962 175.772 196 177.302L196.039 181.891L196.002 186.48C195.963 188.01 195.95 189.54 195.885 191.07C195.782 194.129 195.628 197.189 195.335 200.248C195.043 197.189 194.889 194.129 194.786 191.07C194.721 189.54 194.708 188.01 194.669 186.48L194.632 181.891L194.671 177.302C194.71 175.772 194.724 174.242 194.789 172.713C194.892 169.653 195.045 166.594 195.336 163.534Z" fill="#3086A3"/>
<path d="M208.517 156.855C209.154 159.703 209.653 162.568 210.104 165.439C210.342 166.873 210.53 168.313 210.742 169.75L211.302 174.07L211.787 178.4C211.922 179.846 212.084 181.289 212.193 182.738C212.438 185.634 212.634 188.535 212.691 191.454C212.052 188.605 211.552 185.74 211.102 182.87C210.863 181.436 210.677 179.996 210.464 178.559L209.905 174.238L209.422 169.909C209.286 168.463 209.127 167.019 209.017 165.57C208.772 162.674 208.576 159.773 208.517 156.855Z" fill="#3086A3"/>
<path d="M221.7 163.534C222.68 166.529 223.524 169.555 224.321 172.592C224.732 174.107 225.094 175.634 225.479 177.155L226.56 181.736L227.568 186.333C227.877 187.871 228.213 189.404 228.497 190.948C229.092 194.031 229.639 197.124 230.048 200.248C229.067 197.254 228.222 194.228 227.426 191.191C227.014 189.676 226.654 188.149 226.268 186.628L225.188 182.047L224.183 177.449C223.872 175.911 223.538 174.378 223.253 172.834C222.659 169.751 222.112 166.658 221.7 163.534Z" fill="#3086A3"/>
<path d="M163.247 178.108L159.983 177.314C159.731 177.253 159.477 177.407 159.416 177.659L158.372 181.941C158.31 182.193 158.465 182.446 158.717 182.508L161.981 183.302C162.233 183.363 162.487 183.209 162.548 182.957L163.592 178.675C163.653 178.423 163.499 178.17 163.247 178.108Z" fill="#F9AE2B"/>
<path d="M219.297 168.417L215.966 168.851C215.709 168.885 215.528 169.12 215.561 169.377L216.131 173.747C216.165 174.004 216.4 174.185 216.657 174.151L219.989 173.717C220.246 173.684 220.427 173.449 220.394 173.192L219.823 168.822C219.79 168.565 219.554 168.384 219.297 168.417Z" fill="#F9AE2B"/>
<path d="M240.644 177.858L237.457 178.921C237.211 179.003 237.079 179.269 237.161 179.514L238.559 183.695C238.641 183.94 238.907 184.073 239.153 183.991L242.339 182.927C242.585 182.845 242.718 182.579 242.636 182.334L241.238 178.154C241.155 177.908 240.89 177.776 240.644 177.858Z" fill="#F9AE2B"/>
<path d="M184.08 185.453L180.769 184.991C180.644 184.974 180.517 185.007 180.416 185.083C180.315 185.159 180.248 185.272 180.23 185.398L179.291 192.118L183.344 194.172L184.487 185.991C184.505 185.866 184.472 185.739 184.396 185.638C184.319 185.537 184.206 185.47 184.08 185.453Z" fill="#F9AE2B"/>
<path d="M149.429 174.44C150.111 174.051 150.826 173.721 151.566 173.455C151.937 173.324 152.314 173.204 152.696 173.105L153.862 172.858C153.886 172.852 153.91 172.852 153.934 172.856C153.958 172.861 153.98 172.87 154.001 172.883C154.021 172.896 154.038 172.913 154.052 172.933C154.066 172.952 154.075 172.975 154.08 172.998C154.085 173.022 154.086 173.046 154.081 173.07C154.077 173.094 154.068 173.116 154.055 173.136C154.041 173.156 154.024 173.174 154.004 173.187C153.985 173.201 153.962 173.211 153.939 173.215L153.926 173.218L153.903 173.221L152.76 173.381C152.379 173.452 152.002 173.543 151.627 173.647C150.877 173.859 150.142 174.124 149.429 174.44Z" fill="#F9AE2B"/>
<path d="M158.579 172.707L163.27 172.707C163.376 172.706 163.478 172.748 163.553 172.823C163.629 172.897 163.671 172.998 163.672 173.104C163.673 173.21 163.631 173.312 163.556 173.388C163.482 173.463 163.38 173.506 163.274 173.506C163.27 173.506 163.262 173.506 163.258 173.506L158.565 173.337C158.482 173.335 158.403 173.3 158.346 173.24C158.289 173.18 158.258 173.099 158.259 173.017C158.261 172.934 158.295 172.855 158.354 172.797C158.413 172.739 158.493 172.707 158.575 172.707L158.579 172.707Z" fill="#F9AE2B"/>
<path d="M167.957 172.708L170.286 172.65L171.45 172.621C171.838 172.619 172.228 172.579 172.616 172.559L172.63 172.559C172.753 172.553 172.874 172.596 172.966 172.678C173.058 172.761 173.113 172.877 173.119 173.001C173.126 173.124 173.083 173.245 173 173.337C172.917 173.428 172.802 173.484 172.678 173.49L172.675 173.491C172.282 173.508 171.893 173.544 171.498 173.544L170.317 173.565L167.956 173.606C167.837 173.608 167.722 173.563 167.636 173.481C167.551 173.399 167.501 173.286 167.499 173.167C167.496 173.048 167.541 172.933 167.623 172.847C167.705 172.761 167.818 172.711 167.936 172.708L167.957 172.708Z" fill="#F9AE2B"/>
<path d="M177.236 172.081C178.762 171.846 180.27 171.507 181.75 171.068C181.854 171.036 181.966 171.046 182.062 171.097C182.159 171.148 182.231 171.234 182.264 171.338C182.297 171.441 182.287 171.554 182.238 171.651C182.188 171.747 182.102 171.82 181.998 171.854C180.491 172.347 178.947 172.722 177.381 172.977C177.262 172.996 177.141 172.967 177.043 172.897C176.946 172.827 176.88 172.721 176.861 172.602C176.842 172.483 176.87 172.362 176.941 172.264C177.011 172.167 177.117 172.101 177.236 172.081Z" fill="#F9AE2B"/>
<path d="M186.038 169.359C187.416 168.655 188.723 167.821 189.941 166.868C189.987 166.832 190.044 166.816 190.101 166.822C190.159 166.828 190.211 166.856 190.248 166.9C190.285 166.945 190.303 167.001 190.299 167.059C190.294 167.116 190.268 167.17 190.225 167.208C189.036 168.257 187.74 169.178 186.357 169.954C186.279 169.998 186.187 170.008 186.101 169.984C186.014 169.96 185.941 169.902 185.898 169.824C185.854 169.746 185.843 169.654 185.867 169.568C185.892 169.482 185.949 169.409 186.027 169.365L186.038 169.359Z" fill="#F9AE2B"/>
<path d="M193.348 163.686L194.05 162.885L193.425 163.749C193.417 163.76 193.406 163.767 193.393 163.768C193.38 163.77 193.367 163.767 193.356 163.76C193.346 163.752 193.338 163.74 193.336 163.728C193.334 163.715 193.337 163.701 193.344 163.691L193.348 163.686Z" fill="#F9AE2B"/>
<path d="M154.764 197.274L156.586 195.798C156.591 195.793 156.598 195.79 156.605 195.788C156.611 195.786 156.619 195.785 156.626 195.786C156.633 195.786 156.64 195.789 156.646 195.792C156.653 195.795 156.658 195.8 156.663 195.806C156.667 195.811 156.671 195.818 156.673 195.825C156.675 195.831 156.675 195.839 156.675 195.846C156.674 195.853 156.672 195.86 156.668 195.866C156.665 195.873 156.66 195.878 156.655 195.883L156.652 195.885L154.764 197.274Z" fill="#F9AE2B"/>
<path d="M160.422 192.857L164.356 190.041C164.38 190.024 164.408 190.011 164.437 190.004C164.466 189.998 164.496 189.997 164.526 190.001C164.555 190.006 164.584 190.017 164.609 190.033C164.634 190.048 164.657 190.069 164.674 190.093C164.691 190.118 164.704 190.145 164.711 190.174C164.717 190.204 164.718 190.234 164.713 190.263C164.709 190.293 164.698 190.321 164.682 190.346C164.666 190.372 164.645 190.394 164.621 190.411L164.615 190.415L164.608 190.42L160.59 193.09L160.586 193.093C160.554 193.114 160.516 193.121 160.479 193.114C160.442 193.107 160.409 193.086 160.388 193.055C160.367 193.024 160.358 192.986 160.365 192.949C160.371 192.912 160.392 192.879 160.422 192.857Z" fill="#F9AE2B"/>
<path d="M168.404 187.387L172.557 184.893C172.594 184.871 172.636 184.856 172.679 184.849C172.722 184.843 172.766 184.845 172.809 184.855C172.851 184.866 172.891 184.885 172.927 184.911C172.962 184.937 172.991 184.969 173.014 185.007C173.037 185.044 173.051 185.086 173.058 185.129C173.064 185.172 173.062 185.216 173.052 185.259C173.041 185.301 173.022 185.341 172.996 185.376C172.97 185.412 172.938 185.441 172.9 185.464L172.895 185.467L172.882 185.474L168.699 187.867L168.689 187.873C168.625 187.91 168.549 187.92 168.477 187.901C168.405 187.881 168.344 187.835 168.306 187.771C168.269 187.707 168.258 187.631 168.276 187.559C168.294 187.487 168.34 187.425 168.404 187.387Z" fill="#F9AE2B"/>
<path d="M176.819 182.583C178.263 181.836 179.751 181.176 181.274 180.607C181.324 180.588 181.378 180.579 181.432 180.581C181.486 180.582 181.539 180.595 181.588 180.617C181.637 180.64 181.681 180.671 181.718 180.711C181.754 180.75 181.783 180.796 181.802 180.847C181.82 180.897 181.829 180.951 181.827 181.005C181.825 181.059 181.812 181.112 181.79 181.16C181.767 181.209 181.735 181.253 181.696 181.29C181.656 181.326 181.609 181.355 181.559 181.373L181.554 181.375C180.058 181.93 178.591 182.563 177.161 183.271C177.07 183.315 176.965 183.321 176.87 183.288C176.774 183.256 176.695 183.186 176.65 183.096C176.605 183.005 176.597 182.901 176.629 182.805C176.661 182.709 176.729 182.629 176.819 182.583Z" fill="#F9AE2B"/>
<path d="M186.002 179.318L188.44 179.017C189.262 178.938 190.09 178.925 190.914 178.979C191.031 178.986 191.14 179.04 191.218 179.128C191.296 179.215 191.336 179.331 191.329 179.448C191.321 179.565 191.268 179.674 191.181 179.752C191.093 179.83 190.978 179.87 190.861 179.863L190.858 179.863C190.465 179.837 190.074 179.823 189.683 179.825C189.293 179.831 188.9 179.84 188.506 179.883L186.147 180.157L186.104 180.162C185.992 180.175 185.881 180.142 185.793 180.073C185.705 180.003 185.648 179.902 185.635 179.79C185.621 179.679 185.652 179.567 185.721 179.479C185.79 179.39 185.891 179.332 186.002 179.318Z" fill="#F9AE2B"/>
<path d="M195.751 179.603C197.34 179.885 198.931 180.163 200.515 180.47C200.635 180.493 200.74 180.563 200.809 180.664C200.877 180.764 200.903 180.888 200.88 181.008C200.857 181.128 200.788 181.234 200.687 181.302C200.586 181.371 200.462 181.397 200.342 181.375L195.597 180.51L195.588 180.508C195.469 180.486 195.362 180.418 195.293 180.318C195.224 180.218 195.197 180.094 195.219 179.975C195.24 179.855 195.308 179.749 195.408 179.679C195.508 179.61 195.631 179.582 195.751 179.603Z" fill="#F9AE2B"/>
<path d="M205.259 181.425L209.99 182.454C210.1 182.478 210.196 182.545 210.258 182.64C210.319 182.734 210.34 182.85 210.316 182.96C210.293 183.07 210.226 183.167 210.132 183.228C210.037 183.29 209.922 183.311 209.811 183.288L209.805 183.287L205.08 182.294L205.073 182.292C205.016 182.28 204.962 182.257 204.913 182.224C204.865 182.192 204.824 182.15 204.792 182.101C204.76 182.052 204.738 181.997 204.727 181.94C204.716 181.882 204.717 181.824 204.729 181.766C204.741 181.709 204.764 181.655 204.797 181.607C204.83 181.559 204.872 181.518 204.921 181.486C204.97 181.454 205.025 181.432 205.083 181.421C205.14 181.411 205.199 181.412 205.256 181.424L205.259 181.425Z" fill="#F9AE2B"/>
<path d="M214.687 183.423C215.461 183.529 216.244 183.56 217.024 183.515C217.418 183.503 217.809 183.432 218.202 183.394L219.382 183.263L219.42 183.259C219.521 183.247 219.622 183.276 219.702 183.34C219.782 183.403 219.833 183.495 219.846 183.596C219.858 183.696 219.829 183.798 219.767 183.878C219.704 183.959 219.613 184.011 219.512 184.024L218.292 184.182C217.883 184.225 217.479 184.3 217.067 184.315C216.238 184.369 215.405 184.342 214.58 184.235L214.577 184.234C214.469 184.22 214.372 184.164 214.306 184.077C214.239 183.991 214.21 183.882 214.225 183.775C214.239 183.667 214.295 183.569 214.382 183.503C214.468 183.437 214.577 183.408 214.685 183.422L214.687 183.423Z" fill="#F9AE2B"/>
<path d="M223.967 182.02C225.453 181.445 226.884 180.737 228.242 179.902C228.306 179.863 228.382 179.851 228.455 179.868C228.528 179.885 228.591 179.93 228.63 179.993C228.67 180.056 228.683 180.132 228.667 180.205C228.651 180.277 228.606 180.341 228.543 180.381C227.172 181.264 225.723 182.021 224.214 182.642C224.173 182.659 224.129 182.667 224.085 182.667C224.041 182.667 223.997 182.658 223.957 182.642C223.916 182.625 223.879 182.6 223.848 182.569C223.817 182.537 223.792 182.5 223.776 182.46C223.759 182.419 223.75 182.375 223.751 182.331C223.751 182.287 223.76 182.244 223.777 182.203C223.794 182.162 223.819 182.126 223.85 182.095C223.882 182.064 223.919 182.039 223.96 182.023L223.967 182.02Z" fill="#F9AE2B"/>
<path d="M232.071 177.046C233.259 175.975 234.332 174.783 235.272 173.489C235.295 173.459 235.328 173.438 235.366 173.432C235.403 173.426 235.441 173.434 235.472 173.456C235.503 173.478 235.524 173.511 235.531 173.548C235.538 173.585 235.53 173.623 235.509 173.655C234.6 175.002 233.553 176.25 232.384 177.38C232.363 177.401 232.337 177.417 232.309 177.428C232.281 177.44 232.251 177.445 232.221 177.445C232.191 177.444 232.161 177.438 232.134 177.426C232.106 177.414 232.081 177.396 232.06 177.375C232.039 177.353 232.023 177.328 232.012 177.3C232.001 177.272 231.995 177.242 231.996 177.212C231.996 177.182 232.003 177.152 232.015 177.125C232.027 177.097 232.044 177.072 232.065 177.051L232.071 177.046Z" fill="#F9AE2B"/>
<path d="M237.71 169.346L238.622 167.194L237.811 169.39C237.808 169.397 237.804 169.403 237.799 169.409C237.795 169.414 237.789 169.419 237.782 169.422C237.775 169.425 237.768 169.426 237.761 169.427C237.754 169.427 237.747 169.426 237.74 169.423C237.733 169.421 237.727 169.417 237.721 169.412C237.716 169.407 237.712 169.401 237.709 169.395C237.706 169.388 237.704 169.381 237.704 169.374C237.703 169.366 237.705 169.359 237.707 169.352L237.708 169.35L237.71 169.346Z" fill="#F9AE2B"/>
<path d="M239.897 170.714L237.978 170.966L237.021 171.084C236.703 171.134 236.387 171.196 236.072 171.26C234.815 171.511 233.578 171.853 232.37 172.283C231.175 172.736 230.016 173.278 228.902 173.904C227.771 174.516 226.644 175.137 225.519 175.77C223.271 177.035 221.01 178.279 218.748 179.522L211.937 183.207C210.802 183.818 209.625 184.377 208.471 184.965L206.732 185.835C206.157 186.135 205.567 186.402 204.965 186.648C202.56 187.651 200.105 188.471 197.654 189.28C192.751 190.901 187.827 192.442 182.884 193.939C187.707 192.098 192.551 190.314 197.415 188.589C199.835 187.698 202.275 186.864 204.614 185.832C205.798 185.34 206.921 184.708 208.071 184.14C209.213 183.551 210.364 182.995 211.498 182.379C216.048 179.948 220.605 177.532 225.171 175.129C226.317 174.533 227.458 173.93 228.622 173.36C229.782 172.765 230.986 172.26 232.224 171.85C233.471 171.481 234.743 171.202 236.03 171.016C236.35 170.97 236.671 170.925 236.993 170.891L237.963 170.827L239.897 170.714Z" fill="#F9AE2B"/>
<path d="M208.517 150.398C208.517 154.424 201.972 166.847 200.623 169.365C200.6 169.409 200.565 169.446 200.522 169.471C200.48 169.497 200.431 169.51 200.382 169.51C200.332 169.51 200.283 169.497 200.241 169.471C200.198 169.446 200.164 169.409 200.14 169.365C198.791 166.847 192.246 154.424 192.246 150.398C192.246 148.243 193.103 146.176 194.629 144.651C196.155 143.127 198.224 142.271 200.382 142.271C202.539 142.271 204.609 143.127 206.134 144.651C207.66 146.176 208.517 148.243 208.517 150.398Z" fill="#D62828"/>
<path d="M200.382 154.191C202.478 154.191 204.178 152.493 204.178 150.398C204.178 148.304 202.478 146.606 200.382 146.606C198.285 146.606 196.585 148.304 196.585 150.398C196.585 152.493 198.285 154.191 200.382 154.191Z" fill="#DBE8EC"/>
<path d="M247.314 168.649C246.816 171.349 240.893 178.871 239.678 180.393C239.657 180.42 239.629 180.44 239.597 180.452C239.566 180.464 239.531 180.467 239.498 180.461C239.465 180.455 239.434 180.44 239.408 180.417C239.383 180.395 239.364 180.366 239.354 180.334C238.761 178.479 235.907 169.343 236.404 166.644C236.67 165.198 237.5 163.918 238.712 163.084C239.923 162.25 241.416 161.931 242.863 162.197C244.309 162.463 245.591 163.292 246.426 164.502C247.261 165.712 247.58 167.204 247.314 168.649Z" fill="#D62828"/>
<path d="M241.859 170.232C243.288 170.232 244.447 169.074 244.447 167.646C244.447 166.218 243.288 165.061 241.859 165.061C240.429 165.061 239.271 166.218 239.271 167.646C239.271 169.074 240.429 170.232 241.859 170.232Z" fill="#DBE8EC"/>
<path d="M169.677 63.14H183.904" stroke="#B9D4DB" stroke-width="3" stroke-miterlimit="10" stroke-linecap="round"/>
<path d="M169.677 67.2366H183.904" stroke="#B9D4DB" stroke-width="3" stroke-miterlimit="10" stroke-linecap="round"/>
<path d="M169.677 71.333H183.904" stroke="#B9D4DB" stroke-width="3" stroke-miterlimit="10" stroke-linecap="round"/>
<path d="M239.206 129.782H253.433" stroke="#B9D4DB" stroke-width="3" stroke-miterlimit="10" stroke-linecap="round"/>
<path d="M239.206 133.879H253.433" stroke="#B9D4DB" stroke-width="3" stroke-miterlimit="10" stroke-linecap="round"/>
<path d="M239.206 137.975H253.433" stroke="#B9D4DB" stroke-width="3" stroke-miterlimit="10" stroke-linecap="round"/>
<path d="M39.6343 191.754H53.8617" stroke="#B9D4DB" stroke-width="3" stroke-miterlimit="10" stroke-linecap="round"/>
<path d="M39.6343 195.851H53.8617" stroke="#B9D4DB" stroke-width="3" stroke-miterlimit="10" stroke-linecap="round"/>
<path d="M39.6343 199.947H53.8617" stroke="#B9D4DB" stroke-width="3" stroke-miterlimit="10" stroke-linecap="round"/>
<path d="M202.288 118.2C205.646 118.2 208.369 115.48 208.369 112.125C208.369 108.77 205.646 106.05 202.288 106.05C198.929 106.05 196.207 108.77 196.207 112.125C196.207 115.48 198.929 118.2 202.288 118.2Z" fill="#B9D4DB"/>
<path d="M192.299 128.566C194.041 128.566 195.452 127.156 195.452 125.416C195.452 123.677 194.041 122.266 192.299 122.266C190.558 122.266 189.146 123.677 189.146 125.416C189.146 127.156 190.558 128.566 192.299 128.566Z" fill="#B9D4DB"/>
<path d="M186.813 109.805C189.301 109.805 191.318 107.79 191.318 105.305C191.318 102.82 189.301 100.805 186.813 100.805C184.325 100.805 182.308 102.82 182.308 105.305C182.308 107.79 184.325 109.805 186.813 109.805Z" fill="#B9D4DB"/>
<path d="M88.6923 192.287C92.6884 192.287 95.9278 189.051 95.9278 185.059C95.9278 181.067 92.6884 177.831 88.6923 177.831C84.6963 177.831 81.4569 181.067 81.4569 185.059C81.4569 189.051 84.6963 192.287 88.6923 192.287Z" fill="#B9D4DB"/>
<path d="M74.8663 183.676C76.9478 183.676 78.6351 181.99 78.6351 179.911C78.6351 177.832 76.9478 176.146 74.8663 176.146C72.7848 176.146 71.0975 177.832 71.0975 179.911C71.0975 181.99 72.7848 183.676 74.8663 183.676Z" fill="#B9D4DB"/>
<path d="M78.328 169.284C79.5287 169.284 80.502 168.312 80.502 167.113C80.502 165.913 79.5287 164.941 78.328 164.941C77.1274 164.941 76.1541 165.913 76.1541 167.113C76.1541 168.312 77.1274 169.284 78.328 169.284Z" fill="#B9D4DB"/>
<path d="M90.3626 173.855C93.2408 173.855 95.5741 171.525 95.5741 168.649C95.5741 165.774 93.2408 163.443 90.3626 163.443C87.4843 163.443 85.1511 165.774 85.1511 168.649C85.1511 171.525 87.4843 173.855 90.3626 173.855Z" fill="#B9D4DB"/>
<path d="M111.451 60.3173C115.447 60.3173 118.687 57.0812 118.687 53.0893C118.687 49.0973 115.447 45.8612 111.451 45.8612C107.455 45.8612 104.216 49.0973 104.216 53.0893C104.216 57.0812 107.455 60.3173 111.451 60.3173Z" fill="#B9D4DB"/>
<path d="M113.667 42.2812C115.748 42.2812 117.435 40.5955 117.435 38.5162C117.435 36.4369 115.748 34.7512 113.667 34.7512C111.585 34.7512 109.898 36.4369 109.898 38.5162C109.898 40.5955 111.585 42.2812 113.667 42.2812Z" fill="#B9D4DB"/>
<path d="M138.267 47.2267C140.069 47.2267 141.529 45.7677 141.529 43.9681C141.529 42.1684 140.069 40.7095 138.267 40.7095C136.466 40.7095 135.006 42.1684 135.006 43.9681C135.006 45.7677 136.466 47.2267 138.267 47.2267Z" fill="#B9D4DB"/>
<path d="M126.915 41.4541C128.116 41.4541 129.089 40.4818 129.089 39.2823C129.089 38.0829 128.116 37.1106 126.915 37.1106C125.715 37.1106 124.741 38.0829 124.741 39.2823C124.741 40.4818 125.715 41.4541 126.915 41.4541Z" fill="#B9D4DB"/>
<path d="M127.872 56.5708C130.75 56.5708 133.084 54.2399 133.084 51.3646C133.084 48.4893 130.75 46.1584 127.872 46.1584C124.994 46.1584 122.661 48.4893 122.661 51.3646C122.661 54.2399 124.994 56.5708 127.872 56.5708Z" fill="#B9D4DB"/>
<path d="M199.083 90.7888C197.808 94.139 188.426 102.408 186.506 104.077C186.473 104.106 186.432 104.125 186.389 104.133C186.345 104.141 186.3 104.137 186.259 104.121C186.218 104.105 186.182 104.079 186.154 104.044C186.127 104.009 186.11 103.968 186.104 103.924C185.779 101.402 184.268 88.9953 185.543 85.6451C186.226 83.8514 187.594 82.4021 189.347 81.6161C191.099 80.8301 193.092 80.7717 194.888 81.4538C196.683 82.1359 198.134 83.5026 198.921 85.2533C199.708 87.0039 199.766 88.9951 199.083 90.7888Z" fill="#409CB5"/>
<path d="M192.313 91.5934C194.18 91.5934 195.693 90.0817 195.693 88.2168C195.693 86.352 194.18 84.8402 192.313 84.8402C190.447 84.8402 188.933 86.352 188.933 88.2168C188.933 90.0817 190.447 91.5934 192.313 91.5934Z" fill="#DBE8EC"/>
<path d="M79.9543 162.895C80.418 166.449 76.0707 178.169 75.1698 180.547C75.1543 180.588 75.1278 180.625 75.0932 180.652C75.0586 180.68 75.0172 180.697 74.9734 180.703C74.9296 180.709 74.885 180.702 74.8445 180.685C74.8041 180.667 74.7691 180.639 74.7436 180.603C73.2626 178.535 66.0535 168.319 65.5898 164.765C65.4668 163.823 65.5309 162.866 65.7783 161.948C66.0256 161.031 66.4515 160.171 67.0315 159.418C68.2029 157.897 69.9311 156.903 71.8359 156.655C73.7408 156.407 75.6663 156.925 77.1887 158.095C78.7112 159.266 79.706 160.992 79.9543 162.895Z" fill="#409CB5"/>
<path d="M72.772 167.207C74.6388 167.207 76.1521 165.695 76.1521 163.83C76.1521 161.965 74.6388 160.453 72.772 160.453C70.9053 160.453 69.392 161.965 69.392 163.83C69.392 165.695 70.9053 167.207 72.772 167.207Z" fill="#DBE8EC"/>
</svg>
